{
.appVersion = "1352";
copyright = "Copyright 2015-2021 The Luxurious Project Authors (https://github.com/googlefonts/luxurious-roman)";
customParameters = (
{
name = licenseURL;
value = "https://scripts.sil.org/OFL";
},
{
name = license;
value = "This Font Software is licensed under the SIL Open Font License, Version 1.1. This license is available with a FAQ at: https://scripts.sil.org/OFL";
},
{
name = vendorID;
value = GOOG;
},
{
name = "Disable Subroutines";
value = 1;
},
{
name = glyphOrder;
value = (
.notdef,
CR,
.null,
space,
nbspace
);
},
{
name = fsType;
value = (
);
},
{
name = "Use Typo Metrics";
value = 1;
}
);
date = "2021-11-03 22:20:54 +0000";
designer = "Robert E. Leuschke";
designerURL = www.typesetit.com;
familyName = "Luxurious Roman";
featurePrefixes = (
{
automatic = 1;
code = "languagesystem DFLT dflt;\012\012languagesystem latn dflt;\012languagesystem latn AZE;\012languagesystem latn CRT;\012languagesystem latn KAZ;\012languagesystem latn TAT;\012languagesystem latn TRK;\012languagesystem latn ROM;\012languagesystem latn MOL;\012languagesystem latn CAT;\012";
name = Languagesystems;
}
);
features = (
{
automatic = 1;
code = "feature locl;\012feature sups;\012feature frac;\012feature ordn;\012";
name = aalt;
},
{
automatic = 1;

glyphs = (
{
glyphname = .notdef;
lastChange = "2021-09-09 12:46:50 +0000";
layers = (
{
hints = (
{
horizontal = 1;
place = "{0, 63}";
type = Stem;
},
{
horizontal = 1;
place = "{738, 63}";
type = Stem;
},
{
place = "{63, 63}";
type = Stem;
},
{
place = "{375, 63}";
type = Stem;
}
);
layerId = "24D0D9E8-BA2F-4B13-8DB9-88CA40D3CAFC";
paths = (
{
closed = 1;
nodes = (
"63 0 LINE",
"501 0 LINE",
"501 800 LINE",
"63 800 LINE"
);
},
{
closed = 1;
nodes = (
"125 63 LINE",
"280 374 LINE",
"434 63 LINE"
);
},
{
closed = 1;
nodes = (
"126 738 LINE",
"433 738 LINE",
"280 429 LINE"
);
},
{
closed = 1;
nodes = (
"293 401 LINE",
"438 693 LINE",
"438 110 LINE"
);
},
{
closed = 1;
nodes = (
"266 401 LINE",
"125 119 LINE",
"125 684 LINE"
);
}
);
width = 568;
}
);
note = .notdef;
},
{
glyphname = A;
lastChange = "2021-09-09 12:54:47 +0000";
layers = (
{
hints = (
{
horizontal = 1;
place = "{-35, 21}";
target = up;
type = BottomGhost;
},
{
horizontal = 1;
place = "{192, 1}";
type = Stem;
},
{
horizontal = 1;
place = "{647, -20}";
target = down;
type = TopGhost;
}
);
layerId = "24D0D9E8-BA2F-4B13-8DB9-88CA40D3CAFC";
paths = (
{
closed = 1;
nodes = (
"701 23 LINE",
"690 23 OFFCURVE",
"680 24 OFFCURVE",
"670 25 CURVE SMOOTH",
"661 26 OFFCURVE",
"653 26 OFFCURVE",
"645 27 CURVE SMOOTH",
"621 33 OFFCURVE",
"604 44 OFFCURVE",
"596 62 CURVE SMOOTH",
"579 97 OFFCURVE",
"555 170 OFFCURVE",
"523 284 CURVE SMOOTH",
"491 391 LINE SMOOTH",
"470 466 OFFCURVE",
"445 562 OFFCURVE",
"415 680 CURVE",
"409 682 LINE",
"389 669 OFFCURVE",
"369 654 OFFCURVE",
"347 636 CURVE SMOOTH",
"344 633 OFFCURVE",
"341 629 OFFCURVE",
"339 624 CURVE SMOOTH",
"338 621 OFFCURVE",
"338 617 OFFCURVE",
"339 613 CURVE SMOOTH",
"340 605 OFFCURVE",
"340 605 OFFCURVE",
"340 602 CURVE SMOOTH",
"339 587 OFFCURVE",
"333 566 OFFCURVE",
"320 539 CURVE SMOOTH",
"115 95 LINE SMOOTH",
"100 65 OFFCURVE",
"86 47 OFFCURVE",
"72 38 CURVE SMOOTH",
"61 32 OFFCURVE",
"39 27 OFFCURVE",
"1 22 CURVE",
"-14 -8 LINE",
"16 -3 OFFCURVE",
"53 -2 OFFCURVE",
"101 -2 CURVE SMOOTH",
"148 -2 OFFCURVE",
"184 -3 OFFCURVE",
"211 -7 CURVE",
"227 23 LINE",
"170 22 OFFCURVE",
"142 31 OFFCURVE",
"143 47 CURVE SMOOTH",
"143 49 OFFCURVE",
"144 49 OFFCURVE",
"143 48 CURVE",
"145 50 LINE",
"150 71 OFFCURVE",
"175 126 OFFCURVE",
"217 215 CURVE",
"219 219 OFFCURVE",
"221 220 OFFCURVE",
"222 220 CURVE SMOOTH",
"452 220 LINE SMOOTH",
"455 220 OFFCURVE",
"457 219 OFFCURVE",
"457 215 CURVE SMOOTH",
"484 108 OFFCURVE",
"496 53 OFFCURVE",
"496 51 CURVE SMOOTH",
"496 31 OFFCURVE",
"472 22 OFFCURVE",
"422 22 CURVE",
"411 -2 LINE",
"415 -7 LINE",
"419 -7 OFFCURVE",
"437 -6 OFFCURVE",
"480 -4 CURVE SMOOTH",
"519 -2 OFFCURVE",
"544 -2 OFFCURVE",
"554 -2 CURVE SMOOTH",
"564 -2 OFFCURVE",
"608 -3 OFFCURVE",
"685 -7 CURVE"
);
},
{
closed = 1;
nodes = (
"443 263 LINE",
"444 261 OFFCURVE",
"444 261 OFFCURVE",
"441 261 CURVE SMOOTH",
"239 261 LINE SMOOTH",
"238 261 OFFCURVE",
"237 260 OFFCURVE",
"239 264 CURVE SMOOTH",
"364 535 LINE SMOOTH",
"372 550 OFFCURVE",
"360 550 OFFCURVE",
"364 535 CURVE"
);
}
);
width = 745;
}
);
leftKerningGroup = A;
note = A;
rightKerningGroup = A;
unicode = 0041;
},
{
glyphname = AE;
lastChange = "2021-09-09 12:54:47 +0000";
layers = (
{
hints = (
{
horizontal = 1;
place = "{-35, -3}";
type = Stem;
},
{
horizontal = 1;
place = "{-40, 21}";
target = up;
type = BottomGhost;
},
{
horizontal = 1;
place = "{289, -1}";
type = Stem;
},
{
horizontal = 1;
place = "{576, 4}";
type = Stem;
},
{
horizontal = 1;
place = "{617, -20}";
target = down;
type = TopGhost;
},
{
place = "{416, 38}";
type = Stem;
}
);
layerId = "24D0D9E8-BA2F-4B13-8DB9-88CA40D3CAFC";
paths = (
{
closed = 1;
nodes = (
"858 148 LINE",
"857 138 OFFCURVE",
"848 119 OFFCURVE",
"833 97 CURVE SMOOTH",
"820 76 OFFCURVE",
"807 62 OFFCURVE",
"796 54 CURVE SMOOTH",
"774 39 OFFCURVE",
"729 31 OFFCURVE",
"662 31 CURVE SMOOTH",
"645 31 OFFCURVE",
"629 32 OFFCURVE",
"614 34 CURVE SMOOTH",
"584 38 OFFCURVE",
"561 42 OFFCURVE",
"553 45 CURVE SMOOTH",
"545 48 OFFCURVE",
"540 55 OFFCURVE",
"538 67 CURVE SMOOTH",
"534 102 OFFCURVE",
"536 189 OFFCURVE",
"545 329 CURVE",
"575 331 OFFCURVE",
"619 330 OFFCURVE",
"678 327 CURVE SMOOTH",
"716 326 OFFCURVE",
"735 312 OFFCURVE",
"732 287 CURVE",
"729 276 OFFCURVE",
"727 269 OFFCURVE",
"726 266 CURVE",
"730 261 LINE",
"754 267 LINE",
"754 282 OFFCURVE",
"754 291 OFFCURVE",
"755 294 CURVE SMOOTH",
"755 301 OFFCURVE",
"758 311 OFFCURVE",
"762 325 CURVE SMOOTH",
"766 339 OFFCURVE",
"768 349 OFFCURVE",
"769 354 CURVE SMOOTH",
"769 364 OFFCURVE",
"765 370 OFFCURVE",
"756 370 CURVE SMOOTH",
"548 368 LINE",
"557 498 OFFCURVE",
"568 583 OFFCURVE",
"580 620 CURVE",
"596 622 OFFCURVE",
"621 623 OFFCURVE",
"656 623 CURVE SMOOTH",
"692 624 OFFCURVE",
"717 623 OFFCURVE",
"733 621 CURVE SMOOTH",
"771 616 OFFCURVE",
"788 604 OFFCURVE",
"787 586 CURVE SMOOTH",
"787 579 OFFCURVE",
"781 563 OFFCURVE",
"766 527 CURVE",
"793 520 LINE",
"809 583 LINE SMOOTH",
"809 584 OFFCURVE",
"809 585 OFFCURVE",
"810 586 CURVE",
"811 591 OFFCURVE",
"815 601 OFFCURVE",
"819 616 CURVE SMOOTH",
"825 633 OFFCURVE",
"827 642 OFFCURVE",
"827 649 CURVE SMOOTH",
"828 661 OFFCURVE",
"825 667 OFFCURVE",
"815 668 CURVE",
"715 667 OFFCURVE",
"620 666 OFFCURVE",
"530 665 CURVE SMOOTH",
"472 666 OFFCURVE",
"427 669 OFFCURVE",
"393 674 CURVE",
"378 646 LINE",
"416 651 OFFCURVE",
"453 642 OFFCURVE",
"470 623 CURVE",
"476 612 OFFCURVE",
"478 625 OFFCURVE",
"477 637 CURVE SMOOTH",
"475 659 OFFCURVE",
"463 667 OFFCURVE",
"469 642 CURVE",
"455 624 OFFCURVE",
"423 577 OFFCURVE",
"113 105 CURVE SMOOTH",
"94 77 OFFCURVE",
"69 47 OFFCURVE",
"55 38 CURVE SMOOTH",
"44 32 OFFCURVE",
"22 27 OFFCURVE",
"-16 22 CURVE",
"-31 -8 LINE",
"-6 -3 OFFCURVE",
"55 -2 OFFCURVE",
"102 -2 CURVE SMOOTH",
"150 -2 OFFCURVE",
"186 -3 OFFCURVE",
"212 -7 CURVE",
"228 23 LINE",
"171 22 OFFCURVE",
"143 31 OFFCURVE",
"144 47 CURVE SMOOTH",
"144 46 OFFCURVE",
"144 46 OFFCURVE",
"145 48 CURVE",
"145 49 OFFCURVE",
"146 50 OFFCURVE",
"146 51 CURVE SMOOTH",
"151 71 OFFCURVE",
"188 136 OFFCURVE",
"250 226 CURVE",
"255 231 OFFCURVE",
"257 232 OFFCURVE",
"258 232 CURVE SMOOTH",
"457 232 LINE",
"450 146 OFFCURVE",
"443 87 OFFCURVE",
"437 67 CURVE SMOOTH",
"432 51 OFFCURVE",
"419 39 OFFCURVE",
"397 31 CURVE SMOOTH",
"380 24 OFFCURVE",
"361 20 OFFCURVE",
"341 20 CURVE SMOOTH",
"334 20 OFFCURVE",
"327 22 OFFCURVE",
"323 23 CURVE",
"310 -8 LINE",
"397 0 OFFCURVE",
"449 3 OFFCURVE",
"466 4 CURVE SMOOTH",
"483 5 OFFCURVE",
"502 6 OFFCURVE",
"521 6 CURVE SMOOTH",
"541 6 OFFCURVE",
"625 1 OFFCURVE",
"774 -10 CURVE SMOOTH",
"779 -11 OFFCURVE",
"783 -11 OFFCURVE",
"787 -11 CURVE SMOOTH",
"806 -11 OFFCURVE",
"818 -7 OFFCURVE",
"828 2 CURVE SMOOTH",
"835 9 OFFCURVE",
"840 22 OFFCURVE",
"845 42 CURVE SMOOTH",
"853 79 OFFCURVE",
"865 111 OFFCURVE",
"880 140 CURVE"
);
},
{
closed = 1;
nodes = (
"286 277 LINE SMOOTH",
"272 277 OFFCURVE",
"280 269 OFFCURVE",
"287 279 CURVE SMOOTH",
"476 579 LINE",
"478 553 OFFCURVE",
"476 520 OFFCURVE",
"475 489 CURVE SMOOTH",
"474 479 OFFCURVE",
"474 470 OFFCURVE",
"473 462 CURVE SMOOTH",
"472 450 OFFCURVE",
"469 405 OFFCURVE",
"461 292 CURVE SMOOTH",
"460 277 LINE",
"460 277 OFFCURVE",
"460 277 OFFCURVE",
"460 277 CURVE"
);
}
);
width = 902;
}
);
note = AE;
unicode = 00C6;
},
{
glyphname = B;
lastChange = "2021-09-09 12:54:47 +0000";
layers = (
{
hints = (
{
horizontal = 1;
place = "{-35, -8}";
type = Stem;
},
{
horizontal = 1;
place = "{332, -11}";
type = Stem;
},
{
horizontal = 1;
place = "{601, 0}";
type = Stem;
},
{
place = "{111, 40}";
type = Stem;
},
{
place = "{418, 31}";
type = Stem;
},
{
place = "{492, 44}";
type = Stem;
},
{
horizontal = 1;
place = "{635, -20}";
target = down;
type = TopGhost;
}
);
layerId = "24D0D9E8-BA2F-4B13-8DB9-88CA40D3CAFC";
paths = (
{
closed = 1;
nodes = (
"590 258 OFFCURVE",
"582 295 OFFCURVE",
"564 320 CURVE SMOOTH",
"535 361 OFFCURVE",
"482 384 OFFCURVE",
"403 389 CURVE",
"404 381 LINE",
"439 395 OFFCURVE",
"466 415 OFFCURVE",
"486 442 CURVE SMOOTH",
"508 469 OFFCURVE",
"520 499 OFFCURVE",
"522 534 CURVE SMOOTH",
"525 578 OFFCURVE",
"512 611 OFFCURVE",
"481 633 CURVE SMOOTH",
"447 657 OFFCURVE",
"397 669 OFFCURVE",
"330 669 CURVE SMOOTH",
"314 669 OFFCURVE",
"296 668 OFFCURVE",
"277 667 CURVE SMOOTH",
"207 661 OFFCURVE",
"135 663 OFFCURVE",
"59 671 CURVE",
"43 641 LINE",
"83 651 OFFCURVE",
"112 648 OFFCURVE",
"131 632 CURVE",
"143 618 OFFCURVE",
"142 499 OFFCURVE",
"127 283 CURVE SMOOTH",
"119 164 OFFCURVE",
"109 91 OFFCURVE",
"100 64 CURVE SMOOTH",
"89 36 OFFCURVE",
"58 22 OFFCURVE",
"0 22 CURVE",
"-16 -8 LINE",
"50 -2 OFFCURVE",
"96 0 OFFCURVE",
"126 1 CURVE SMOOTH",
"179 1 OFFCURVE",
"212 1 OFFCURVE",
"216 1 CURVE SMOOTH",
"265 -3 OFFCURVE",
"302 -5 OFFCURVE",
"328 -4 CURVE SMOOTH",
"398 -2 OFFCURVE",
"456 16 OFFCURVE",
"502 49 CURVE SMOOTH",
"553 87 OFFCURVE",
"582 140 OFFCURVE",
"587 209 CURVE SMOOTH"
);
},
{
closed = 1;
nodes = (
"501 152 OFFCURVE",
"481 106 OFFCURVE",
"444 73 CURVE SMOOTH",
"409 41 OFFCURVE",
"365 25 OFFCURVE",
"312 25 CURVE SMOOTH",
"271 25 OFFCURVE",
"244 26 OFFCURVE",
"235 28 CURVE SMOOTH",
"212 34 OFFCURVE",
"201 45 OFFCURVE",
"200 64 CURVE SMOOTH",
"198 110 OFFCURVE",
"199 175 OFFCURVE",
"205 259 CURVE SMOOTH",
"215 403 LINE SMOOTH",
"221 492 OFFCURVE",
"228 559 OFFCURVE",
"236 602 CURVE SMOOTH",
"239 615 OFFCURVE",
"248 622 OFFCURVE",
"267 626 CURVE SMOOTH",
"275 628 OFFCURVE",
"297 629 OFFCURVE",
"328 629 CURVE SMOOTH",
"367 629 OFFCURVE",
"398 618 OFFCURVE",
"422 594 CURVE SMOOTH",
"443 572 OFFCURVE",
"452 545 OFFCURVE",
"450 514 CURVE SMOOTH",
"448 492 OFFCURVE",
"441 471 OFFCURVE",
"426 448 CURVE",
"415 434 OFFCURVE",
"399 420 OFFCURVE",
"376 409 CURVE SMOOTH",
"351 396 OFFCURVE",
"329 390 OFFCURVE",
"306 390 CURVE SMOOTH",
"286 390 LINE",
"265 360 LINE",
"355 360 LINE SMOOTH",
"403 360 OFFCURVE",
"439 347 OFFCURVE",
"465 320 CURVE SMOOTH",
"492 294 OFFCURVE",
"505 256 OFFCURVE",
"503 209 CURVE SMOOTH"
);
}
);
width = 653;
}
);
note = B;
unicode = 0042;
},
{
glyphname = C;
lastChange = "2021-09-09 12:54:47 +0000";
layers = (
{
hints = (
{
horizontal = 1;
place = "{-44, 11}";
type = Stem;
},
{
horizontal = 1;
place = "{600, 8}";
type = Stem;
},
{
place = "{1, 57}";
type = Stem;
}
);
layerId = "24D0D9E8-BA2F-4B13-8DB9-88CA40D3CAFC";
paths = (
{
closed = 1;
nodes = (
"713 628 LINE",
"631 660 OFFCURVE",
"541 676 OFFCURVE",
"442 676 CURVE SMOOTH",
"432 676 OFFCURVE",
"422 676 OFFCURVE",
"412 675 CURVE SMOOTH",
"306 672 OFFCURVE",
"217 643 OFFCURVE",
"147 588 CURVE SMOOTH",
"71 528 OFFCURVE",
"28 447 OFFCURVE",
"21 346 CURVE SMOOTH",
"20 327 OFFCURVE",
"21 309 OFFCURVE",
"21 290 CURVE SMOOTH",
"29 175 OFFCURVE",
"75 92 OFFCURVE",
"160 41 CURVE SMOOTH",
"223 3 OFFCURVE",
"300 -16 OFFCURVE",
"390 -16 CURVE SMOOTH",
"446 -16 OFFCURVE",
"502 -4 OFFCURVE",
"556 18 CURVE SMOOTH",
"568 23 OFFCURVE",
"601 42 OFFCURVE",
"658 74 CURVE",
"660 101 LINE",
"566 59 OFFCURVE",
"481 38 OFFCURVE",
"405 36 CURVE SMOOTH",
"311 32 OFFCURVE",
"237 64 OFFCURVE",
"184 132 CURVE SMOOTH",
"135 196 OFFCURVE",
"114 278 OFFCURVE",
"121 376 CURVE SMOOTH",
"127 460 OFFCURVE",
"155 524 OFFCURVE",
"205 566 CURVE SMOOTH",
"254 607 OFFCURVE",
"321 628 OFFCURVE",
"404 628 CURVE SMOOTH",
"465 628 OFFCURVE",
"516 619 OFFCURVE",
"556 602 CURVE SMOOTH",
"590 588 OFFCURVE",
"611 573 OFFCURVE",
"622 557 CURVE SMOOTH",
"633 541 OFFCURVE",
"637 520 OFFCURVE",
"636 493 CURVE SMOOTH",
"635 485 OFFCURVE",
"634 476 OFFCURVE",
"632 466 CURVE",
"654 461 LINE",
"655 469 OFFCURVE",
"655 468 OFFCURVE",
"655 473 CURVE SMOOTH",
"657 495 OFFCURVE",
"663 524 OFFCURVE",
"673 558 CURVE SMOOTH",
"686 600 OFFCURVE",
"698 618 OFFCURVE",
"706 614 CURVE"
);
}
);
width = 719;
}
);
leftKerningGroup = C;
note = C;
rightKerningGroup = C;
unicode = 0043;
},
{
glyphname = D;
lastChange = "2021-09-09 12:54:47 +0000";
layers = (
{
hints = (
{
horizontal = 1;
place = "{-35, 21}";
target = up;
type = BottomGhost;
},
{
horizontal = 1;
place = "{606, -5}";
type = Stem;
},
{
place = "{109, 41}";
type = Stem;
},
{
place = "{593, 60}";
type = Stem;
},
{
horizontal = 1;
place = "{-33, -7}";
type = Stem;
}
);
layerId = "24D0D9E8-BA2F-4B13-8DB9-88CA40D3CAFC";
paths = (
{
closed = 1;
nodes = (
"623 619 OFFCURVE",
"515 669 OFFCURVE",
"355 669 CURVE SMOOTH",
"319 669 OFFCURVE",
"278 667 OFFCURVE",
"234 662 CURVE SMOOTH",
"191 658 OFFCURVE",
"133 660 OFFCURVE",
"59 668 CURVE",
"44 637 LINE",
"84 647 OFFCURVE",
"113 644 OFFCURVE",
"129 628 CURVE SMOOTH",
"141 614 OFFCURVE",
"140 494 OFFCURVE",
"124 276 CURVE SMOOTH",
"116 161 OFFCURVE",
"108 91 OFFCURVE",
"101 65 CURVE SMOOTH",
"96 50 OFFCURVE",
"83 38 OFFCURVE",
"62 30 CURVE SMOOTH",
"46 23 OFFCURVE",
"28 20 OFFCURVE",
"7 20 CURVE SMOOTH",
"0 20 OFFCURVE",
"-6 20 OFFCURVE",
"-9 22 CURVE",
"-26 -8 LINE",
"91 2 OFFCURVE",
"179 4 OFFCURVE",
"238 -1 CURVE SMOOTH",
"262 -4 OFFCURVE",
"287 -5 OFFCURVE",
"310 -5 CURVE SMOOTH",
"418 -5 OFFCURVE",
"509 22 OFFCURVE",
"586 77 CURVE SMOOTH",
"618 100 OFFCURVE",
"645 135 OFFCURVE",
"669 181 CURVE SMOOTH",
"694 232 OFFCURVE",
"709 285 OFFCURVE",
"713 340 CURVE SMOOTH",
"717 407 OFFCURVE",
"706 466 OFFCURVE",
"678 517 CURVE SMOOTH"
);
},
{
closed = 1;
nodes = (
"608 231 OFFCURVE",
"577 147 OFFCURVE",
"520 96 CURVE SMOOTH",
"483 62 OFFCURVE",
"430 41 OFFCURVE",
"363 31 CURVE SMOOTH",
"350 29 OFFCURVE",
"337 28 OFFCURVE",
"322 28 CURVE SMOOTH",
"251 28 OFFCURVE",
"211 44 OFFCURVE",
"198 77 CURVE",
"201 174 OFFCURVE",
"204 256 OFFCURVE",
"209 324 CURVE SMOOTH",
"218 496 OFFCURVE",
"230 597 OFFCURVE",
"243 621 CURVE",
"250 629 OFFCURVE",
"280 634 OFFCURVE",
"330 634 CURVE SMOOTH",
"350 634 OFFCURVE",
"371 632 OFFCURVE",
"392 629 CURVE SMOOTH",
"456 620 OFFCURVE",
"509 591 OFFCURVE",
"551 541 CURVE SMOOTH",
"597 486 OFFCURVE",
"617 421 OFFCURVE",
"613 344 CURVE SMOOTH"
);
}
);
width = 761;
}
);
leftKerningGroup = D;
note = D;
rightKerningGroup = D;
unicode = 0044;
},
{
glyphname = Eth;
lastChange = "2021-09-09 12:51:32 +0000";
layers = (
{
hints = (
{
horizontal = 1;
place = "{-1, 25}";
type = Stem;
},
{
horizontal = 1;
place = "{301, 35}";
type = Stem;
},
{
horizontal = 1;
place = "{625, 28}";
type = Stem;
},
{
place = "{141, 73}";
type = Stem;
},
{
place = "{625, 92}";
type = Stem;
},
{
horizontal = 1;
place = "{-3, 21}";
target = up;
type = BottomGhost;
},
{
horizontal = 1;
place = "{638, 27}";
type = Stem;
}
);
layerId = "24D0D9E8-BA2F-4B13-8DB9-88CA40D3CAFC";
paths = (
{
closed = 1;
nodes = (
"611 619 OFFCURVE",
"500 669 OFFCURVE",
"340 669 CURVE SMOOTH",
"304 669 OFFCURVE",
"263 667 OFFCURVE",
"220 662 CURVE SMOOTH",
"177 658 OFFCURVE",
"119 660 OFFCURVE",
"44 668 CURVE",
"31 637 LINE",
"70 647 OFFCURVE",
"100 644 OFFCURVE",
"117 628 CURVE SMOOTH",
"130 614 OFFCURVE",
"137 494 OFFCURVE",
"137 276 CURVE SMOOTH",
"137 161 OFFCURVE",
"134 91 OFFCURVE",
"128 65 CURVE SMOOTH",
"124 50 OFFCURVE",
"112 38 OFFCURVE",
"91 30 CURVE SMOOTH",
"76 23 OFFCURVE",
"59 20 OFFCURVE",
"38 20 CURVE SMOOTH",
"30 20 OFFCURVE",
"25 20 OFFCURVE",
"21 22 CURVE",
"6 -8 LINE",
"123 2 OFFCURVE",
"211 4 OFFCURVE",
"270 -1 CURVE SMOOTH",
"295 -4 OFFCURVE",
"319 -5 OFFCURVE",
"342 -5 CURVE SMOOTH",
"450 -5 OFFCURVE",
"540 22 OFFCURVE",
"612 77 CURVE SMOOTH",
"643 100 OFFCURVE",
"668 135 OFFCURVE",
"689 181 CURVE SMOOTH",
"710 232 OFFCURVE",
"721 285 OFFCURVE",
"721 340 CURVE SMOOTH",
"721 407 OFFCURVE",
"705 466 OFFCURVE",
"673 517 CURVE SMOOTH"
);
},
{
closed = 1;
nodes = (
"624 231 OFFCURVE",
"599 147 OFFCURVE",
"545 96 CURVE SMOOTH",
"511 62 OFFCURVE",
"459 41 OFFCURVE",
"392 31 CURVE SMOOTH",
"380 29 OFFCURVE",
"367 28 OFFCURVE",
"352 28 CURVE SMOOTH",
"281 28 OFFCURVE",
"239 44 OFFCURVE",
"225 77 CURVE",
"221 174 OFFCURVE",
"218 256 OFFCURVE",
"218 324 CURVE SMOOTH",
"215 496 OFFCURVE",
"220 597 OFFCURVE",
"231 621 CURVE",
"238 629 OFFCURVE",
"267 634 OFFCURVE",
"318 634 CURVE SMOOTH",
"338 634 OFFCURVE",
"359 632 OFFCURVE",
"380 629 CURVE SMOOTH",
"445 620 OFFCURVE",
"499 591 OFFCURVE",
"545 541 CURVE SMOOTH",
"595 486 OFFCURVE",
"620 421 OFFCURVE",
"621 344 CURVE SMOOTH"
);
},
{
closed = 1;
nodes = (
"336 349 LINE",
"334 348 OFFCURVE",
"329 348 OFFCURVE",
"310 347 CURVE SMOOTH",
"300 346 OFFCURVE",
"288 345 OFFCURVE",
"273 344 CURVE SMOOTH",
"239 341 OFFCURVE",
"212 339 OFFCURVE",
"190 340 CURVE SMOOTH",
"139 340 OFFCURVE",
"102 344 OFFCURVE",
"78 350 CURVE SMOOTH",
"70 353 OFFCURVE",
"63 343 OFFCURVE",
"55 327 CURVE SMOOTH",
"49 313 OFFCURVE",
"45 301 OFFCURVE",
"45 294 CURVE SMOOTH",
"45 290 OFFCURVE",
"47 288 OFFCURVE",
"50 288 CURVE SMOOTH",
"106 294 OFFCURVE",
"154 297 OFFCURVE",
"192 297 CURVE SMOOTH",
"246 297 OFFCURVE",
"284 293 OFFCURVE",
"309 286 CURVE SMOOTH",
"316 284 OFFCURVE",
"324 294 OFFCURVE",
"332 310 CURVE SMOOTH",
"340 329 OFFCURVE",
"342 336 OFFCURVE",
"342 342 CURVE",
"338 342 LINE",
"338 344 OFFCURVE",
"338 344 OFFCURVE",
"337 345 CURVE"
);
}
);
width = 761;
}
);
note = Eth;
rightKerningGroup = D;
unicode = 00D0;
},
{
glyphname = E;
lastChange = "2021-09-09 12:54:47 +0000";
layers = (
{
hints = (
{
horizontal = 1;
place = "{-39, 21}";
target = up;
type = BottomGhost;
},
{
horizontal = 1;
place = "{299, 2}";
type = Stem;
},
{
horizontal = 1;
place = "{594, 5}";
type = Stem;
},
{
horizontal = 1;
place = "{637, -20}";
target = down;
type = TopGhost;
},
{
place = "{108, 40}";
type = Stem;
},
{
horizontal = 1;
place = "{-38, 1}";
type = Stem;
}
);
layerId = "24D0D9E8-BA2F-4B13-8DB9-88CA40D3CAFC";
paths = (
{
closed = 1;
nodes = (
"519 149 LINE",
"520 139 OFFCURVE",
"511 119 OFFCURVE",
"496 97 CURVE SMOOTH",
"481 75 OFFCURVE",
"468 62 OFFCURVE",
"458 54 CURVE SMOOTH",
"436 39 OFFCURVE",
"392 31 OFFCURVE",
"325 31 CURVE SMOOTH",
"307 31 OFFCURVE",
"291 32 OFFCURVE",
"277 34 CURVE SMOOTH",
"247 38 OFFCURVE",
"224 42 OFFCURVE",
"216 45 CURVE SMOOTH",
"207 48 OFFCURVE",
"202 55 OFFCURVE",
"201 67 CURVE SMOOTH",
"196 103 OFFCURVE",
"199 194 OFFCURVE",
"208 329 CURVE",
"237 331 OFFCURVE",
"282 330 OFFCURVE",
"341 327 CURVE SMOOTH",
"378 326 OFFCURVE",
"397 312 OFFCURVE",
"395 287 CURVE",
"393 281 OFFCURVE",
"392 276 OFFCURVE",
"391 273 CURVE SMOOTH",
"390 269 OFFCURVE",
"389 267 OFFCURVE",
"389 266 CURVE",
"393 261 LINE",
"417 267 LINE",
"417 282 OFFCURVE",
"417 291 OFFCURVE",
"418 294 CURVE SMOOTH",
"418 301 OFFCURVE",
"420 311 OFFCURVE",
"424 325 CURVE SMOOTH",
"429 340 OFFCURVE",
"431 349 OFFCURVE",
"432 354 CURVE SMOOTH",
"432 364 OFFCURVE",
"428 370 OFFCURVE",
"419 370 CURVE SMOOTH",
"211 368 LINE",
"220 495 OFFCURVE",
"230 582 OFFCURVE",
"242 619 CURVE",
"259 622 OFFCURVE",
"284 623 OFFCURVE",
"319 623 CURVE SMOOTH",
"354 624 OFFCURVE",
"380 623 OFFCURVE",
"396 621 CURVE SMOOTH",
"433 616 OFFCURVE",
"450 604 OFFCURVE",
"449 586 CURVE SMOOTH",
"448 577 OFFCURVE",
"440 555 OFFCURVE",
"428 527 CURVE",
"456 520 LINE",
"472 584 LINE",
"472 587 OFFCURVE",
"474 594 OFFCURVE",
"482 616 CURVE SMOOTH",
"488 633 OFFCURVE",
"490 642 OFFCURVE",
"490 649 CURVE SMOOTH",
"491 660 OFFCURVE",
"487 667 OFFCURVE",
"477 668 CURVE",
"378 667 OFFCURVE",
"283 666 OFFCURVE",
"193 665 CURVE SMOOTH",
"135 666 OFFCURVE",
"90 669 OFFCURVE",
"56 674 CURVE",
"41 646 LINE",
"87 651 OFFCURVE",
"114 645 OFFCURVE",
"127 630 CURVE SMOOTH",
"137 620 OFFCURVE",
"140 565 OFFCURVE",
"136 462 CURVE SMOOTH",
"135 450 OFFCURVE",
"131 387 OFFCURVE",
"123 276 CURVE SMOOTH",
"115 163 OFFCURVE",
"108 94 OFFCURVE",
"100 67 CURVE SMOOTH",
"94 51 OFFCURVE",
"81 39 OFFCURVE",
"60 31 CURVE SMOOTH",
"40 23 OFFCURVE",
"22 20 OFFCURVE",
"3 20 CURVE SMOOTH",
"-4 20 OFFCURVE",
"-9 22 OFFCURVE",
"-14 23 CURVE",
"-29 -8 LINE",
"60 0 OFFCURVE",
"111 3 OFFCURVE",
"129 4 CURVE SMOOTH",
"145 5 OFFCURVE",
"164 6 OFFCURVE",
"184 6 CURVE SMOOTH",
"203 6 OFFCURVE",
"287 1 OFFCURVE",
"436 -10 CURVE SMOOTH",
"441 -11 OFFCURVE",
"446 -11 OFFCURVE",
"450 -11 CURVE SMOOTH",
"469 -11 OFFCURVE",
"482 -6 OFFCURVE",
"490 2 CURVE SMOOTH",
"498 9 OFFCURVE",
"504 24 OFFCURVE",
"508 42 CURVE SMOOTH",
"516 78 OFFCURVE",
"526 111 OFFCURVE",
"542 140 CURVE"
);
}
);
width = 593;
}
);
leftKerningGroup = E;
note = E;
rightKerningGroup = E;
unicode = 0045;
},
{
glyphname = F;
lastChange = "2021-09-09 12:54:47 +0000";
layers = (
{
hints = (
{
horizontal = 1;
place = "{-35, 21}";
target = up;
type = BottomGhost;
},
{
horizontal = 1;
place = "{299, 2}";
type = Stem;
},
{
horizontal = 1;
place = "{595, 5}";
type = Stem;
},
{
horizontal = 1;
place = "{637, -20}";
target = down;
type = TopGhost;
},
{
place = "{109, 41}";
type = Stem;
}
);
layerId = "24D0D9E8-BA2F-4B13-8DB9-88CA40D3CAFC";
paths = (
{
closed = 1;
nodes = (
"413 667 OFFCURVE",
"300 666 OFFCURVE",
"192 664 CURVE SMOOTH",
"150 665 OFFCURVE",
"104 668 OFFCURVE",
"56 673 CURVE",
"40 643 LINE",
"49 646 OFFCURVE",
"64 648 OFFCURVE",
"87 645 CURVE SMOOTH",
"108 642 OFFCURVE",
"120 637 OFFCURVE",
"128 629 CURVE SMOOTH",
"142 613 OFFCURVE",
"143 523 OFFCURVE",
"130 355 CURVE SMOOTH",
"121 241 LINE SMOOTH",
"115 158 OFFCURVE",
"107 97 OFFCURVE",
"98 67 CURVE SMOOTH",
"92 50 OFFCURVE",
"79 39 OFFCURVE",
"59 31 CURVE SMOOTH",
"40 23 OFFCURVE",
"22 20 OFFCURVE",
"4 20 CURVE SMOOTH",
"-3 20 OFFCURVE",
"-8 21 OFFCURVE",
"-14 23 CURVE",
"-30 -8 LINE",
"57 0 OFFCURVE",
"115 3 OFFCURVE",
"142 3 CURVE SMOOTH",
"224 4 OFFCURVE",
"275 1 OFFCURVE",
"297 -8 CURVE",
"315 25 LINE",
"295 21 OFFCURVE",
"271 22 OFFCURVE",
"243 30 CURVE SMOOTH",
"216 39 OFFCURVE",
"203 51 OFFCURVE",
"202 67 CURVE SMOOTH",
"199 97 OFFCURVE",
"197 132 OFFCURVE",
"199 175 CURVE SMOOTH",
"205 284 LINE",
"207 329 LINE",
"237 330 OFFCURVE",
"282 330 OFFCURVE",
"341 327 CURVE SMOOTH",
"383 324 OFFCURVE",
"402 312 OFFCURVE",
"399 291 CURVE SMOOTH",
"399 286 OFFCURVE",
"396 279 OFFCURVE",
"391 269 CURVE",
"420 264 LINE",
"422 277 OFFCURVE",
"422 286 OFFCURVE",
"422 290 CURVE SMOOTH",
"422 292 OFFCURVE",
"422 293 OFFCURVE",
"422 293 CURVE",
"422 300 OFFCURVE",
"425 310 OFFCURVE",
"429 324 CURVE SMOOTH",
"433 335 OFFCURVE",
"435 347 OFFCURVE",
"436 353 CURVE SMOOTH",
"436 363 OFFCURVE",
"432 369 OFFCURVE",
"423 369 CURVE SMOOTH",
"210 367 LINE",
"220 497 OFFCURVE",
"231 582 OFFCURVE",
"241 618 CURVE",
"259 620 OFFCURVE",
"294 622 OFFCURVE",
"347 623 CURVE SMOOTH",
"401 623 OFFCURVE",
"435 622 OFFCURVE",
"451 620 CURVE SMOOTH",
"483 616 OFFCURVE",
"499 605 OFFCURVE",
"498 586 CURVE SMOOTH",
"498 585 OFFCURVE",
"498 584 OFFCURVE",
"498 583 CURVE SMOOTH",
"495 570 OFFCURVE",
"488 551 OFFCURVE",
"478 527 CURVE",
"506 520 LINE",
"521 583 LINE SMOOTH",
"522 588 OFFCURVE",
"526 599 OFFCURVE",
"533 617 CURVE SMOOTH",
"538 632 OFFCURVE",
"542 643 OFFCURVE",
"542 650 CURVE SMOOTH",
"543 660 OFFCURVE",
"539 666 OFFCURVE",
"530 668 CURVE"
);
}
);
width = 559;
}
);
leftKerningGroup = D;
note = F;
unicode = 0046;
},
{
glyphname = G;
lastChange = "2021-09-09 12:54:47 +0000";
layers = (
{
hints = (
{
horizontal = 1;
place = "{-34, 0}";
type = Stem;
},
{
horizontal = 1;
place = "{597, 8}";
type = Stem;
},
{
place = "{26, 54}";
type = Stem;
},
{
place = "{591, 41}";
type = Stem;
}
);
layerId = "24D0D9E8-BA2F-4B13-8DB9-88CA40D3CAFC";
paths = (
{
closed = 1;
nodes = (
"758 327 LINE",
"728 316 OFFCURVE",
"686 309 OFFCURVE",
"631 307 CURVE SMOOTH",
"578 306 OFFCURVE",
"533 309 OFFCURVE",
"496 317 CURVE",
"489 287 LINE",
"522 290 OFFCURVE",
"553 287 OFFCURVE",
"585 277 CURVE SMOOTH",
"598 273 OFFCURVE",
"604 235 OFFCURVE",
"599 168 CURVE SMOOTH",
"595 116 OFFCURVE",
"590 75 OFFCURVE",
"582 47 CURVE",
"538 38 OFFCURVE",
"496 34 OFFCURVE",
"457 34 CURVE SMOOTH",
"390 34 OFFCURVE",
"334 46 OFFCURVE",
"288 70 CURVE SMOOTH",
"233 97 OFFCURVE",
"194 139 OFFCURVE",
"168 195 CURVE SMOOTH",
"146 245 OFFCURVE",
"137 300 OFFCURVE",
"141 361 CURVE SMOOTH",
"148 452 OFFCURVE",
"176 519 OFFCURVE",
"228 563 CURVE SMOOTH",
"277 604 OFFCURVE",
"343 625 OFFCURVE",
"425 625 CURVE SMOOTH",
"486 625 OFFCURVE",
"536 616 OFFCURVE",
"575 599 CURVE SMOOTH",
"607 587 OFFCURVE",
"629 571 OFFCURVE",
"641 555 CURVE SMOOTH",
"652 539 OFFCURVE",
"656 518 OFFCURVE",
"654 491 CURVE SMOOTH",
"654 483 OFFCURVE",
"653 474 OFFCURVE",
"651 465 CURVE",
"668 461 LINE",
"673 467 LINE",
"673 468 OFFCURVE",
"673 469 OFFCURVE",
"673 471 CURVE SMOOTH",
"675 494 OFFCURVE",
"681 521 OFFCURVE",
"692 556 CURVE SMOOTH",
"705 598 OFFCURVE",
"717 616 OFFCURVE",
"726 611 CURVE",
"731 625 LINE",
"649 657 OFFCURVE",
"560 672 OFFCURVE",
"463 672 CURVE SMOOTH",
"453 672 OFFCURVE",
"443 672 OFFCURVE",
"433 672 CURVE SMOOTH",
"328 669 OFFCURVE",
"241 640 OFFCURVE",
"170 585 CURVE SMOOTH",
"95 526 OFFCURVE",
"53 446 OFFCURVE",
"46 345 CURVE SMOOTH",
"45 327 OFFCURVE",
"46 309 OFFCURVE",
"46 290 CURVE SMOOTH",
"53 177 OFFCURVE",
"98 96 OFFCURVE",
"180 47 CURVE SMOOTH",
"241 11 OFFCURVE",
"316 -6 OFFCURVE",
"405 -6 CURVE SMOOTH",
"447 -6 OFFCURVE",
"495 -2 OFFCURVE",
"548 5 CURVE SMOOTH",
"599 12 OFFCURVE",
"633 16 OFFCURVE",
"647 16 CURVE SMOOTH",
"658 16 OFFCURVE",
"666 15 OFFCURVE",
"677 14 CURVE",
"681 24 LINE",
"675 43 OFFCURVE",
"674 82 OFFCURVE",
"677 138 CURVE SMOOTH",
"679 189 OFFCURVE",
"683 228 OFFCURVE",
"689 253 CURVE SMOOTH",
"696 285 OFFCURVE",
"716 300 OFFCURVE",
"751 298 CURVE"
);
}
);
width = 821;
}
);
note = G;
unicode = 0047;
},
{
glyphname = H;
lastChange = "2021-09-09 12:54:47 +0000";
layers = (
{
hints = (
{
horizontal = 1;
place = "{-35, 21}";
target = up;
type = BottomGhost;
},
{
horizontal = 1;
place = "{298, -1}";
type = Stem;
},
{
horizontal = 1;
place = "{638, -20}";
target = down;
type = TopGhost;
},
{
place = "{128, 40}";
type = Stem;
},
{
place = "{634, 41}";
type = Stem;
}
);
layerId = "24D0D9E8-BA2F-4B13-8DB9-88CA40D3CAFC";
paths = (
{
closed = 1;
nodes = (
"839 25 LINE",
"813 21 OFFCURVE",
"790 22 OFFCURVE",
"767 29 CURVE SMOOTH",
"740 37 OFFCURVE",
"728 48 OFFCURVE",
"727 65 CURVE SMOOTH",
"723 94 OFFCURVE",
"725 165 OFFCURVE",
"729 278 CURVE SMOOTH",
"734 361 OFFCURVE",
"741 438 OFFCURVE",
"749 508 CURVE SMOOTH",
"756 571 OFFCURVE",
"763 613 OFFCURVE",
"770 627 CURVE",
"787 645 OFFCURVE",
"813 652 OFFCURVE",
"847 648 CURVE",
"870 675 LINE",
"824 671 OFFCURVE",
"773 666 OFFCURVE",
"717 664 CURVE",
"647 667 OFFCURVE",
"601 670 OFFCURVE",
"582 673 CURVE",
"565 643 LINE",
"606 653 OFFCURVE",
"635 650 OFFCURVE",
"654 634 CURVE",
"665 619 OFFCURVE",
"667 527 OFFCURVE",
"656 370 CURVE",
"640 370 OFFCURVE",
"609 369 OFFCURVE",
"561 367 CURVE SMOOTH",
"549 366 OFFCURVE",
"535 366 OFFCURVE",
"520 365 CURVE SMOOTH",
"498 364 OFFCURVE",
"478 364 OFFCURVE",
"460 363 CURVE SMOOTH",
"423 362 OFFCURVE",
"396 361 OFFCURVE",
"376 361 CURVE SMOOTH",
"360 361 OFFCURVE",
"335 363 OFFCURVE",
"299 366 CURVE SMOOTH",
"286 367 OFFCURVE",
"275 368 OFFCURVE",
"266 368 CURVE SMOOTH",
"248 370 OFFCURVE",
"237 371 OFFCURVE",
"230 371 CURVE",
"240 514 OFFCURVE",
"252 602 OFFCURVE",
"264 627 CURVE",
"282 645 OFFCURVE",
"307 652 OFFCURVE",
"341 648 CURVE",
"364 675 LINE",
"318 671 OFFCURVE",
"267 666 OFFCURVE",
"211 664 CURVE",
"141 667 OFFCURVE",
"96 670 OFFCURVE",
"76 673 CURVE",
"60 643 LINE",
"100 653 OFFCURVE",
"129 650 OFFCURVE",
"148 634 CURVE SMOOTH",
"160 620 OFFCURVE",
"159 501 OFFCURVE",
"144 279 CURVE SMOOTH",
"136 170 OFFCURVE",
"127 97 OFFCURVE",
"118 67 CURVE SMOOTH",
"113 51 OFFCURVE",
"100 39 OFFCURVE",
"78 31 CURVE SMOOTH",
"60 24 OFFCURVE",
"42 20 OFFCURVE",
"21 20 CURVE SMOOTH",
"14 20 OFFCURVE",
"9 22 OFFCURVE",
"4 23 CURVE",
"-11 -7 LINE",
"90 0 OFFCURVE",
"147 4 OFFCURVE",
"160 5 CURVE",
"248 2 OFFCURVE",
"301 -2 OFFCURVE",
"315 -8 CURVE",
"333 25 LINE",
"307 21 OFFCURVE",
"284 22 OFFCURVE",
"261 29 CURVE SMOOTH",
"234 37 OFFCURVE",
"222 48 OFFCURVE",
"221 65 CURVE SMOOTH",
"218 94 OFFCURVE",
"219 165 OFFCURVE",
"224 278 CURVE SMOOTH",
"227 321 LINE",
"302 324 OFFCURVE",
"350 326 OFFCURVE",
"374 326 CURVE SMOOTH",
"653 326 LINE",
"652 321 OFFCURVE",
"652 312 OFFCURVE",
"650 299 CURVE SMOOTH",
"649 279 LINE SMOOTH",
"641 169 OFFCURVE",
"632 98 OFFCURVE",
"622 65 CURVE SMOOTH",
"613 35 OFFCURVE",
"583 20 OFFCURVE",
"530 20 CURVE SMOOTH",
"522 20 OFFCURVE",
"516 21 OFFCURVE",
"510 23 CURVE",
"495 -7 LINE",
"596 0 OFFCURVE",
"652 4 OFFCURVE",
"666 5 CURVE",
"755 2 OFFCURVE",
"807 -3 OFFCURVE",
"819 -8 CURVE"
);
}
);
width = 873;
}
);
leftKerningGroup = H;
note = H;
unicode = 0048;
},
{
glyphname = I;
lastChange = "2021-09-09 12:54:47 +0000";
layers = (
{
hints = (
{
horizontal = 1;
place = "{-35, 21}";
target = up;
type = BottomGhost;
},
{
horizontal = 1;
place = "{638, -20}";
target = down;
type = TopGhost;
},
{
place = "{148, 41}";
type = Stem;
}
);
layerId = "24D0D9E8-BA2F-4B13-8DB9-88CA40D3CAFC";
paths = (
{
closed = 1;
nodes = (
"353 25 LINE",
"330 21 OFFCURVE",
"306 22 OFFCURVE",
"282 29 CURVE SMOOTH",
"255 37 OFFCURVE",
"243 48 OFFCURVE",
"242 65 CURVE SMOOTH",
"238 93 OFFCURVE",
"240 166 OFFCURVE",
"245 283 CURVE SMOOTH",
"256 486 OFFCURVE",
"269 596 OFFCURVE",
"285 624 CURVE",
"301 642 OFFCURVE",
"327 650 OFFCURVE",
"361 646 CURVE",
"385 675 LINE",
"339 671 OFFCURVE",
"288 666 OFFCURVE",
"232 664 CURVE",
"161 667 OFFCURVE",
"116 670 OFFCURVE",
"97 673 CURVE",
"80 641 LINE",
"121 651 OFFCURVE",
"150 648 OFFCURVE",
"168 632 CURVE",
"180 618 OFFCURVE",
"179 499 OFFCURVE",
"164 284 CURVE SMOOTH",
"156 171 OFFCURVE",
"147 98 OFFCURVE",
"137 65 CURVE SMOOTH",
"128 35 OFFCURVE",
"98 20 OFFCURVE",
"45 20 CURVE SMOOTH",
"37 20 OFFCURVE",
"31 21 OFFCURVE",
"25 23 CURVE",
"10 -7 LINE",
"111 0 OFFCURVE",
"167 4 OFFCURVE",
"181 5 CURVE",
"270 2 OFFCURVE",
"323 -3 OFFCURVE",
"335 -8 CURVE"
);
}
);
width = 426;
}
);
leftKerningGroup = D;
note = I;
rightKerningGroup = I;
unicode = 0049;
},
{
glyphname = J;
lastChange = "2021-09-09 12:54:47 +0000";
layers = (
{
hints = (
{
horizontal = 1;
place = "{-48, -6}";
type = Stem;
},
{
horizontal = 1;
place = "{638, -20}";
target = down;
type = TopGhost;
},
{
place = "{198, 47}";
type = Stem;
}
);
layerId = "24D0D9E8-BA2F-4B13-8DB9-88CA40D3CAFC";
paths = (
{
closed = 1;
nodes = (
"435 675 LINE",
"390 671 OFFCURVE",
"338 666 OFFCURVE",
"282 664 CURVE",
"212 667 OFFCURVE",
"166 670 OFFCURVE",
"147 673 CURVE",
"130 643 LINE",
"170 653 OFFCURVE",
"200 650 OFFCURVE",
"219 634 CURVE",
"230 620 OFFCURVE",
"229 501 OFFCURVE",
"214 284 CURVE SMOOTH",
"209 213 OFFCURVE",
"206 167 OFFCURVE",
"203 147 CURVE SMOOTH",
"193 57 OFFCURVE",
"158 13 OFFCURVE",
"98 14 CURVE SMOOTH",
"65 15 OFFCURVE",
"47 32 OFFCURVE",
"42 68 CURVE SMOOTH",
"37 94 OFFCURVE",
"39 122 OFFCURVE",
"46 152 CURVE",
"25 158 LINE",
"11 68 OFFCURVE",
"-4 20 OFFCURVE",
"-12 21 CURVE",
"-17 18 LINE",
"-19 9 LINE",
"15 -4 OFFCURVE",
"46 -13 OFFCURVE",
"72 -16 CURVE SMOOTH",
"94 -19 OFFCURVE",
"115 -20 OFFCURVE",
"132 -20 CURVE SMOOTH",
"184 -20 OFFCURVE",
"222 -5 OFFCURVE",
"247 24 CURVE SMOOTH",
"270 51 OFFCURVE",
"286 98 OFFCURVE",
"294 164 CURVE SMOOTH",
"294 170 OFFCURVE",
"294 176 OFFCURVE",
"295 182 CURVE SMOOTH",
"296 199 OFFCURVE",
"298 241 OFFCURVE",
"301 309 CURVE SMOOTH",
"302 377 OFFCURVE",
"305 429 OFFCURVE",
"308 466 CURVE SMOOTH",
"314 555 OFFCURVE",
"324 610 OFFCURVE",
"335 627 CURVE",
"351 645 OFFCURVE",
"377 652 OFFCURVE",
"411 648 CURVE"
);
}
);
width = 404;
}
);
note = J;
unicode = 004A;
},
{
glyphname = K;
lastChange = "2021-09-09 12:54:47 +0000";
layers = (
{
hints = (
{
horizontal = 1;
place = "{-37, 1}";
type = Stem;
},
{
horizontal = 1;
place = "{638, -20}";
target = down;
type = TopGhost;
},
{
place = "{148, 41}";
type = Stem;
}
);
layerId = "24D0D9E8-BA2F-4B13-8DB9-88CA40D3CAFC";
paths = (
{
closed = 1;
nodes = (
"775 35 LINE",
"765 32 OFFCURVE",
"761 32 OFFCURVE",
"753 32 CURVE SMOOTH",
"714 32 OFFCURVE",
"671 49 OFFCURVE",
"625 82 CURVE SMOOTH",
"571 120 OFFCURVE",
"520 168 OFFCURVE",
"473 227 CURVE SMOOTH",
"406 311 OFFCURVE",
"368 359 OFFCURVE",
"357 372 CURVE",
"509 517 OFFCURVE",
"608 601 OFFCURVE",
"657 627 CURVE SMOOTH",
"682 640 OFFCURVE",
"704 646 OFFCURVE",
"724 646 CURVE",
"740 669 LINE",
"725 667 OFFCURVE",
"710 666 OFFCURVE",
"696 665 CURVE SMOOTH",
"657 662 OFFCURVE",
"622 660 OFFCURVE",
"591 658 CURVE",
"514 663 OFFCURVE",
"473 667 OFFCURVE",
"467 668 CURVE",
"443 642 LINE",
"454 643 OFFCURVE",
"466 645 OFFCURVE",
"479 645 CURVE SMOOTH",
"516 645 OFFCURVE",
"536 634 OFFCURVE",
"536 612 CURVE SMOOTH",
"536 590 OFFCURVE",
"453 505 OFFCURVE",
"282 351 CURVE",
"281 345 LINE",
"319 296 OFFCURVE",
"352 253 OFFCURVE",
"380 215 CURVE SMOOTH",
"486 70 LINE SMOOTH",
"525 17 OFFCURVE",
"579 -9 OFFCURVE",
"645 -9 CURVE SMOOTH",
"675 -9 OFFCURVE",
"713 -4 OFFCURVE",
"759 5 CURVE"
);
},
{
closed = 1;
nodes = (
"353 25 LINE",
"330 21 OFFCURVE",
"306 22 OFFCURVE",
"282 29 CURVE SMOOTH",
"255 37 OFFCURVE",
"243 48 OFFCURVE",
"242 65 CURVE SMOOTH",
"237 101 OFFCURVE",
"238 168 OFFCURVE",
"243 263 CURVE SMOOTH",
"251 378 LINE SMOOTH",
"261 523 OFFCURVE",
"271 603 OFFCURVE",
"285 627 CURVE",
"301 645 OFFCURVE",
"327 652 OFFCURVE",
"361 648 CURVE",
"385 675 LINE",
"340 671 OFFCURVE",
"288 666 OFFCURVE",
"232 664 CURVE",
"162 667 OFFCURVE",
"116 670 OFFCURVE",
"97 673 CURVE",
"80 643 LINE",
"121 653 OFFCURVE",
"150 650 OFFCURVE",
"169 634 CURVE",
"180 620 OFFCURVE",
"182 539 OFFCURVE",
"172 393 CURVE SMOOTH",
"164 284 LINE SMOOTH",
"156 176 OFFCURVE",
"147 101 OFFCURVE",
"138 67 CURVE",
"132 51 OFFCURVE",
"119 39 OFFCURVE",
"98 31 CURVE SMOOTH",
"81 24 OFFCURVE",
"62 20 OFFCURVE",
"42 20 CURVE SMOOTH",
"35 20 OFFCURVE",
"30 21 OFFCURVE",
"24 23 CURVE",
"11 -7 LINE",
"111 0 OFFCURVE",
"167 4 OFFCURVE",
"181 5 CURVE",
"270 2 OFFCURVE",
"323 -3 OFFCURVE",
"335 -8 CURVE"
);
}
);
width = 796;
}
);
leftKerningGroup = H;
note = K;
unicode = 004B;
},
{
glyphname = L;
lastChange = "2021-09-09 12:54:47 +0000";
layers = (
{
hints = (
{
horizontal = 1;
place = "{-38, 2}";
type = Stem;
},
{
horizontal = 1;
place = "{638, -20}";
target = down;
type = TopGhost;
},
{
place = "{108, 41}";
type = Stem;
},
{
horizontal = 1;
place = "{-39, 21}";
target = up;
type = BottomGhost;
}
);
layerId = "24D0D9E8-BA2F-4B13-8DB9-88CA40D3CAFC";
paths = (
{
closed = 1;
nodes = (
"520 147 LINE",
"519 136 OFFCURVE",
"510 118 OFFCURVE",
"494 96 CURVE SMOOTH",
"479 74 OFFCURVE",
"467 60 OFFCURVE",
"456 53 CURVE SMOOTH",
"435 39 OFFCURVE",
"392 31 OFFCURVE",
"327 31 CURVE SMOOTH",
"309 31 OFFCURVE",
"292 32 OFFCURVE",
"277 34 CURVE SMOOTH",
"247 38 OFFCURVE",
"227 43 OFFCURVE",
"217 49 CURVE",
"209 53 OFFCURVE",
"204 62 OFFCURVE",
"202 75 CURVE SMOOTH",
"199 107 OFFCURVE",
"198 142 OFFCURVE",
"200 178 CURVE SMOOTH",
"200 196 OFFCURVE",
"201 213 OFFCURVE",
"202 231 CURVE SMOOTH",
"203 248 OFFCURVE",
"204 266 OFFCURVE",
"205 283 CURVE SMOOTH",
"215 480 OFFCURVE",
"229 597 OFFCURVE",
"245 627 CURVE",
"261 645 OFFCURVE",
"287 652 OFFCURVE",
"321 648 CURVE",
"344 675 LINE",
"300 671 OFFCURVE",
"248 666 OFFCURVE",
"192 664 CURVE",
"122 667 OFFCURVE",
"76 670 OFFCURVE",
"56 673 CURVE",
"40 643 LINE",
"80 653 OFFCURVE",
"109 650 OFFCURVE",
"129 634 CURVE",
"140 620 OFFCURVE",
"139 501 OFFCURVE",
"124 284 CURVE SMOOTH",
"116 166 OFFCURVE",
"108 93 OFFCURVE",
"100 67 CURVE SMOOTH",
"94 51 OFFCURVE",
"81 39 OFFCURVE",
"60 31 CURVE SMOOTH",
"43 24 OFFCURVE",
"24 20 OFFCURVE",
"4 20 CURVE SMOOTH",
"-3 20 OFFCURVE",
"-8 22 OFFCURVE",
"-13 23 CURVE",
"-28 -8 LINE",
"60 0 OFFCURVE",
"112 3 OFFCURVE",
"129 4 CURVE SMOOTH",
"140 5 OFFCURVE",
"154 5 OFFCURVE",
"171 5 CURVE SMOOTH",
"203 5 OFFCURVE",
"292 0 OFFCURVE",
"436 -10 CURVE SMOOTH",
"443 -11 OFFCURVE",
"449 -11 OFFCURVE",
"454 -11 CURVE SMOOTH",
"471 -11 OFFCURVE",
"483 -7 OFFCURVE",
"490 -1 CURVE SMOOTH",
"497 6 OFFCURVE",
"502 18 OFFCURVE",
"507 36 CURVE SMOOTH",
"516 78 OFFCURVE",
"528 112 OFFCURVE",
"542 139 CURVE"
);
}
);
width = 575;
}
);
leftKerningGroup = D;
note = L;
rightKerningGroup = L;
unicode = 004C;
},
{
glyphname = M;
lastChange = "2021-09-09 12:54:47 +0000";
layers = (
{
hints = (
{
horizontal = 1;
place = "{-64, 21}";
target = up;
type = BottomGhost;
},
{
horizontal = 1;
place = "{619, -20}";
target = down;
type = TopGhost;
},
{
place = "{135, 3}";
type = Stem;
}
);
layerId = "24D0D9E8-BA2F-4B13-8DB9-88CA40D3CAFC";
paths = (
{
closed = 1;
nodes = (
"913 25 LINE",
"886 21 OFFCURVE",
"864 23 OFFCURVE",
"845 29 CURVE SMOOTH",
"820 36 OFFCURVE",
"807 47 OFFCURVE",
"804 63 CURVE SMOOTH",
"799 92 OFFCURVE",
"795 161 OFFCURVE",
"792 275 CURVE SMOOTH",
"790 376 OFFCURVE",
"791 463 OFFCURVE",
"796 535 CURVE SMOOTH",
"799 575 OFFCURVE",
"803 600 OFFCURVE",
"807 608 CURVE",
"821 626 OFFCURVE",
"846 633 OFFCURVE",
"879 629 CURVE",
"900 656 LINE",
"837 648 OFFCURVE",
"788 644 OFFCURVE",
"756 643 CURVE SMOOTH",
"754 643 OFFCURVE",
"746 643 OFFCURVE",
"732 644 CURVE SMOOTH",
"718 645 OFFCURVE",
"707 645 OFFCURVE",
"700 644 CURVE SMOOTH",
"690 644 OFFCURVE",
"679 642 OFFCURVE",
"678 636 CURVE SMOOTH",
"677 611 OFFCURVE",
"642 522 OFFCURVE",
"576 373 CURVE SMOOTH",
"516 236 OFFCURVE",
"473 147 OFFCURVE",
"449 103 CURVE SMOOTH",
"446 99 OFFCURVE",
"443 96 OFFCURVE",
"444 96 CURVE",
"444 96 OFFCURVE",
"442 98 OFFCURVE",
"440 105 CURVE",
"418 172 OFFCURVE",
"403 224 OFFCURVE",
"393 259 CURVE SMOOTH",
"357 373 OFFCURVE",
"332 471 OFFCURVE",
"316 552 CURVE SMOOTH",
"307 600 OFFCURVE",
"303 629 OFFCURVE",
"305 644 CURVE",
"263 648 OFFCURVE",
"232 649 OFFCURVE",
"209 648 CURVE",
"167 650 OFFCURVE",
"140 652 OFFCURVE",
"131 653 CURVE",
"116 625 LINE",
"124 626 OFFCURVE",
"132 628 OFFCURVE",
"145 628 CURVE SMOOTH",
"176 628 OFFCURVE",
"193 616 OFFCURVE",
"195 594 CURVE",
"155 337 LINE SMOOTH",
"141 240 OFFCURVE",
"121 146 OFFCURVE",
"93 56 CURVE SMOOTH",
"86 32 OFFCURVE",
"62 20 OFFCURVE",
"21 20 CURVE",
"3 -11 LINE",
"16 -5 OFFCURVE",
"58 0 OFFCURVE",
"129 5 CURVE",
"207 -1 OFFCURVE",
"248 -4 OFFCURVE",
"254 -6 CURVE",
"270 24 LINE",
"264 24 OFFCURVE",
"259 24 OFFCURVE",
"253 24 CURVE",
"249 23 OFFCURVE",
"246 23 OFFCURVE",
"242 23 CURVE SMOOTH",
"201 23 OFFCURVE",
"179 36 OFFCURVE",
"174 60 CURVE SMOOTH",
"171 75 OFFCURVE",
"171 100 OFFCURVE",
"173 134 CURVE SMOOTH",
"176 176 OFFCURVE",
"184 244 OFFCURVE",
"198 339 CURVE SMOOTH",
"209 412 OFFCURVE",
"221 485 OFFCURVE",
"234 558 CURVE",
"226 557 LINE",
"266 427 OFFCURVE",
"295 327 OFFCURVE",
"314 258 CURVE SMOOTH",
"320 237 OFFCURVE",
"326 217 OFFCURVE",
"331 199 CURVE SMOOTH",
"340 167 OFFCURVE",
"347 139 OFFCURVE",
"353 116 CURVE SMOOTH",
"361 86 OFFCURVE",
"367 64 OFFCURVE",
"370 49 CURVE",
"373 37 OFFCURVE",
"383 22 OFFCURVE",
"397 5 CURVE SMOOTH",
"419 -21 OFFCURVE",
"428 -33 OFFCURVE",
"428 -38 CURVE",
"444 -30 LINE",
"456 17 OFFCURVE",
"491 104 OFFCURVE",
"551 233 CURVE SMOOTH",
"616 370 OFFCURVE",
"670 473 OFFCURVE",
"714 543 CURVE",
"707 545 LINE",
"712 424 OFFCURVE",
"714 335 OFFCURVE",
"713 276 CURVE SMOOTH",
"714 163 OFFCURVE",
"711 90 OFFCURVE",
"706 65 CURVE SMOOTH",
"702 50 OFFCURVE",
"690 38 OFFCURVE",
"669 30 CURVE SMOOTH",
"653 23 OFFCURVE",
"635 20 OFFCURVE",
"613 20 CURVE SMOOTH",
"604 20 OFFCURVE",
"599 20 OFFCURVE",
"595 22 CURVE",
"580 -7 LINE",
"678 0 OFFCURVE",
"733 4 OFFCURVE",
"745 4 CURVE SMOOTH",
"829 2 OFFCURVE",
"883 -2 OFFCURVE",
"896 -8 CURVE"
);
}
);
width = 957;
}
);
note = M;
unicode = 004D;
},
{
glyphname = N;
lastChange = "2021-09-09 12:54:47 +0000";
layers = (
{
hints = (
{
horizontal = 1;
place = "{-92, 21}";
target = up;
type = BottomGhost;
},
{
horizontal = 1;
place = "{641, -20}";
target = down;
type = TopGhost;
},
{
place = "{77, 12}";
type = Stem;
},
{
place = "{610, 14}";
type = Stem;
},
{
place = "{61, 27}";
type = Stem;
}
);
layerId = "24D0D9E8-BA2F-4B13-8DB9-88CA40D3CAFC";
paths = (
{
closed = 1;
nodes = (
"809 680 LINE",
"797 674 OFFCURVE",
"754 669 OFFCURVE",
"679 664 CURVE",
"603 668 OFFCURVE",
"562 673 OFFCURVE",
"554 674 CURVE",
"540 648 LINE",
"557 651 OFFCURVE",
"571 652 OFFCURVE",
"583 652 CURVE SMOOTH",
"616 652 OFFCURVE",
"634 640 OFFCURVE",
"637 617 CURVE SMOOTH",
"643 588 OFFCURVE",
"641 507 OFFCURVE",
"632 374 CURVE SMOOTH",
"625 276 OFFCURVE",
"617 198 OFFCURVE",
"607 140 CURVE",
"562 186 OFFCURVE",
"522 228 OFFCURVE",
"485 266 CURVE SMOOTH",
"458 294 OFFCURVE",
"433 320 OFFCURVE",
"410 344 CURVE SMOOTH",
"375 383 OFFCURVE",
"330 436 OFFCURVE",
"277 504 CURVE SMOOTH",
"223 573 OFFCURVE",
"182 629 OFFCURVE",
"154 671 CURVE",
"151 673 LINE",
"97 670 OFFCURVE",
"54 669 OFFCURVE",
"24 673 CURVE",
"8 643 LINE",
"48 653 OFFCURVE",
"78 650 OFFCURVE",
"97 634 CURVE SMOOTH",
"109 620 OFFCURVE",
"110 526 OFFCURVE",
"98 354 CURVE SMOOTH",
"96 328 OFFCURVE",
"84 229 OFFCURVE",
"61 57 CURVE SMOOTH",
"60 49 OFFCURVE",
"54 41 OFFCURVE",
"43 33 CURVE",
"29 25 OFFCURVE",
"11 21 OFFCURVE",
"-13 21 CURVE",
"-30 -9 LINE",
"-4 -2 OFFCURVE",
"34 2 OFFCURVE",
"83 2 CURVE SMOOTH",
"134 2 OFFCURVE",
"182 -1 OFFCURVE",
"228 -7 CURVE",
"248 27 LINE",
"240 24 OFFCURVE",
"228 21 OFFCURVE",
"214 21 CURVE SMOOTH",
"176 21 OFFCURVE",
"154 34 OFFCURVE",
"146 60 CURVE SMOOTH",
"137 92 OFFCURVE",
"138 184 OFFCURVE",
"149 349 CURVE SMOOTH",
"154 410 OFFCURVE",
"160 460 OFFCURVE",
"167 501 CURVE",
"245 410 OFFCURVE",
"306 339 OFFCURVE",
"351 290 CURVE SMOOTH",
"513 110 LINE SMOOTH",
"598 16 OFFCURVE",
"645 -44 OFFCURVE",
"654 -66 CURVE",
"670 -56 LINE",
"663 -11 OFFCURVE",
"666 82 OFFCURVE",
"676 225 CURVE SMOOTH",
"691 448 OFFCURVE",
"706 574 OFFCURVE",
"720 619 CURVE SMOOTH",
"727 644 OFFCURVE",
"751 656 OFFCURVE",
"794 656 CURVE"
);
}
);
width = 807;
}
);
note = N;
rightKerningGroup = N;
unicode = 004E;
},
{
color = 3;
glyphname = Eng;
lastChange = "2021-09-09 13:01:24 +0000";
layers = (
{
layerId = "24D0D9E8-BA2F-4B13-8DB9-88CA40D3CAFC";
paths = (
{
closed = 1;
nodes = (
"805 679 LINE",
"795 673 OFFCURVE",
"751 666 OFFCURVE",
"675 662 CURVE",
"600 666 OFFCURVE",
"560 671 OFFCURVE",
"551 672 CURVE",
"535 646 LINE",
"542 647 OFFCURVE",
"548 648 OFFCURVE",
"553 649 CURVE SMOOTH",
"563 650 OFFCURVE",
"571 651 OFFCURVE",
"578 651 CURVE SMOOTH",
"612 651 OFFCURVE",
"631 637 OFFCURVE",
"635 610 CURVE SMOOTH",
"638 579 OFFCURVE",
"620 265 OFFCURVE",
"602 144 CURVE",
"577 169 OFFCURVE",
"554 192 OFFCURVE",
"532 214 CURVE SMOOTH",
"404 343 OFFCURVE",
"310 438 OFFCURVE",
"155 669 CURVE",
"151 671 LINE",
"125 668 OFFCURVE",
"103 668 OFFCURVE",
"82 668 CURVE SMOOTH",
"60 668 OFFCURVE",
"40 668 OFFCURVE",
"26 672 CURVE",
"11 641 LINE",
"26 646 OFFCURVE",
"39 647 OFFCURVE",
"51 647 CURVE SMOOTH",
"86 647 OFFCURVE",
"101 638 OFFCURVE",
"104 613 CURVE SMOOTH",
"110 573 OFFCURVE",
"109 488 OFFCURVE",
"98 355 CURVE SMOOTH",
"97 342 OFFCURVE",
"93 312 OFFCURVE",
"86 263 CURVE SMOOTH",
"80 214 OFFCURVE",
"71 147 OFFCURVE",
"60 62 CURVE SMOOTH",
"58 40 OFFCURVE",
"29 25 OFFCURVE",
"-13 26 CURVE",
"-29 -3 LINE",
"-1 2 OFFCURVE",
"36 7 OFFCURVE",
"84 7 CURVE SMOOTH",
"132 7 OFFCURVE",
"181 3 OFFCURVE",
"226 -2 CURVE",
"247 28 LINE",
"236 26 OFFCURVE",
"223 26 OFFCURVE",
"211 26 CURVE SMOOTH",
"168 26 OFFCURVE",
"147 43 OFFCURVE",
"141 79 CURVE SMOOTH",
"137 114 OFFCURVE",
"137 345 OFFCURVE",
"167 501 CURVE",
"244 410 OFFCURVE",
"305 340 OFFCURVE",
"350 291 CURVE SMOOTH",
"509 113 LINE SMOOTH",
"532 88 OFFCURVE",
"552 65 OFFCURVE",
"569 45 CURVE SMOOTH",
"572 41 OFFCURVE",
"575 38 OFFCURVE",
"578 34 CURVE",
"580 3 OFFCURVE",
"574 -131 OFFCURVE",
"563 -226 CURVE SMOOTH",
"553 -317 OFFCURVE",
"513 -368 OFFCURVE",
"452 -368 CURVE SMOOTH",
"420 -368 OFFCURVE",
"401 -351 OFFCURVE",
"396 -315 CURVE SMOOTH",
"393 -288 OFFCURVE",
"400 -237 OFFCURVE",
"407 -209 CURVE",
"377 -204 LINE",
"364 -294 OFFCURVE",
"344 -362 OFFCURVE",
"335 -362 CURVE",
"331 -367 LINE",
"332 -372 LINE",
"394 -399 OFFCURVE",
"447 -402 OFFCURVE",
"504 -402 CURVE SMOOTH",
"584 -402 OFFCURVE",
"633 -327 OFFCURVE",
"642 -194 CURVE SMOOTH",
"644 -153 OFFCURVE",
"647 -104 OFFCURVE",
"650 -51 CURVE SMOOTH",
"659 169 OFFCURVE",
"672 466 OFFCURVE",
"714 618 CURVE SMOOTH",
"721 642 OFFCURVE",
"746 654 OFFCURVE",
"788 654 CURVE"
);
}
);
width = 807;
}
);
unicode = 014A;
},
{
glyphname = O;
lastChange = "2021-09-09 12:54:47 +0000";
layers = (
{
hints = (
{
horizontal = 1;
place = "{-52, -2}";
type = Stem;
},
{
horizontal = 1;
place = "{613, -1}";
type = Stem;
},
{
place = "{9, 54}";
type = Stem;
},
{
place = "{640, 54}";
type = Stem;
}
);
layerId = "24D0D9E8-BA2F-4B13-8DB9-88CA40D3CAFC";
paths = (
{
closed = 1;
nodes = (
"762 456 OFFCURVE",
"735 541 OFFCURVE",
"673 598 CURVE SMOOTH",
"615 652 OFFCURVE",
"528 680 OFFCURVE",
"414 680 CURVE SMOOTH",
"298 680 OFFCURVE",
"209 653 OFFCURVE",
"143 598 CURVE SMOOTH",
"75 540 OFFCURVE",
"37 455 OFFCURVE",
"29 343 CURVE SMOOTH",
"12 99 OFFCURVE",
"125 -24 OFFCURVE",
"366 -24 CURVE SMOOTH",
"608 -24 OFFCURVE",
"737 99 OFFCURVE",
"754 343 CURVE SMOOTH"
);
},
{
closed = 1;
nodes = (
"397 15 OFFCURVE",
"386 15 OFFCURVE",
"375 15 CURVE SMOOTH",
"292 15 OFFCURVE",
"228 51 OFFCURVE",
"181 121 CURVE SMOOTH",
"136 189 OFFCURVE",
"118 265 OFFCURVE",
"124 353 CURVE SMOOTH",
"129 426 OFFCURVE",
"152 489 OFFCURVE",
"192 540 CURVE SMOOTH",
"237 597 OFFCURVE",
"297 630 OFFCURVE",
"372 639 CURVE SMOOTH",
"385 641 OFFCURVE",
"397 641 OFFCURVE",
"410 641 CURVE SMOOTH",
"494 641 OFFCURVE",
"558 607 OFFCURVE",
"605 540 CURVE SMOOTH",
"647 478 OFFCURVE",
"664 404 OFFCURVE",
"658 317 CURVE SMOOTH",
"653 241 OFFCURVE",
"629 175 OFFCURVE",
"588 120 CURVE SMOOTH",
"543 60 OFFCURVE",
"482 26 OFFCURVE",
"408 17 CURVE SMOOTH"
);
}
);
width = 795;
}
);
leftKerningGroup = O;
note = O;
rightKerningGroup = O;
unicode = 004F;
},
{
glyphname = Oslash;
lastChange = "2021-09-09 12:54:47 +0000";
layers = (
{
hints = (
{
horizontal = 1;
place = "{-51, -3}";
type = Stem;
},
{
horizontal = 1;
place = "{594, -2}";
type = Stem;
},
{
horizontal = 1;
place = "{631, -20}";
target = down;
type = TopGhost;
},
{
place = "{8, 52}";
type = Stem;
},
{
place = "{620, 52}";
type = Stem;
}
);
layerId = "24D0D9E8-BA2F-4B13-8DB9-88CA40D3CAFC";
paths = (
{
closed = 1;
nodes = (
"740 460 OFFCURVE",
"703 552 OFFCURVE",
"620 606 CURVE",
"671 667 LINE",
"601 667 LINE",
"572 631 LINE",
"524 651 OFFCURVE",
"466 660 OFFCURVE",
"400 660 CURVE SMOOTH",
"289 660 OFFCURVE",
"202 633 OFFCURVE",
"138 580 CURVE SMOOTH",
"72 524 OFFCURVE",
"35 442 OFFCURVE",
"27 333 CURVE SMOOTH",
"19 210 OFFCURVE",
"46 118 OFFCURVE",
"108 57 CURVE",
"57 -5 LINE",
"116 -4 LINE",
"143 30 LINE",
"197 -5 OFFCURVE",
"267 -23 OFFCURVE",
"354 -23 CURVE SMOOTH",
"589 -23 OFFCURVE",
"715 96 OFFCURVE",
"731 333 CURVE SMOOTH"
);
},
{
closed = 1;
nodes = (
"569 545 LINE",
"622 484 OFFCURVE",
"644 406 OFFCURVE",
"638 308 CURVE SMOOTH",
"632 233 OFFCURVE",
"610 169 OFFCURVE",
"570 117 CURVE SMOOTH",
"526 58 OFFCURVE",
"467 25 OFFCURVE",
"395 16 CURVE SMOOTH",
"384 15 OFFCURVE",
"373 14 OFFCURVE",
"363 14 CURVE SMOOTH",
"295 14 OFFCURVE",
"239 40 OFFCURVE",
"195 91 CURVE"
);
},
{
closed = 1;
nodes = (
"166 131 LINE",
"129 192 OFFCURVE",
"113 263 OFFCURVE",
"119 342 CURVE SMOOTH",
"124 414 OFFCURVE",
"146 474 OFFCURVE",
"185 524 CURVE SMOOTH",
"229 579 OFFCURVE",
"287 611 OFFCURVE",
"360 620 CURVE SMOOTH",
"373 622 OFFCURVE",
"385 622 OFFCURVE",
"397 622 CURVE SMOOTH",
"449 622 OFFCURVE",
"494 608 OFFCURVE",
"531 581 CURVE"
);
}
);
width = 772;
}
);
note = Oslash;
unicode = 00D8;
},
{
glyphname = OE;
lastChange = "2021-09-09 12:51:32 +0000";
layers = (
{
hints = (
{
horizontal = 1;
place = "{-6, 32}";
type = Stem;
},
{
horizontal = 1;
place = "{321, 31}";
type = Stem;
},
{
horizontal = 1;
place = "{608, 36}";
type = Stem;
},
{
place = "{40, 84}";
type = Stem;
},
{
place = "{534, 70}";
type = Stem;
},
{
horizontal = 1;
place = "{-19, 29}";
type = Stem;
},
{
horizontal = 1;
place = "{626, 30}";
type = Stem;
}
);
layerId = "24D0D9E8-BA2F-4B13-8DB9-88CA40D3CAFC";
paths = (
{
closed = 1;
nodes = (
"924 143 LINE",
"923 132 OFFCURVE",
"916 115 OFFCURVE",
"904 94 CURVE SMOOTH",
"891 74 OFFCURVE",
"880 60 OFFCURVE",
"870 52 CURVE SMOOTH",
"849 38 OFFCURVE",
"806 30 OFFCURVE",
"742 30 CURVE SMOOTH",
"725 30 OFFCURVE",
"710 31 OFFCURVE",
"696 33 CURVE SMOOTH",
"658 37 OFFCURVE",
"642 40 OFFCURVE",
"635 44 CURVE",
"627 46 OFFCURVE",
"622 53 OFFCURVE",
"620 65 CURVE SMOOTH",
"613 98 OFFCURVE",
"609 184 OFFCURVE",
"608 319 CURVE",
"637 321 OFFCURVE",
"680 320 OFFCURVE",
"738 317 CURVE SMOOTH",
"775 315 OFFCURVE",
"793 302 OFFCURVE",
"792 277 CURVE SMOOTH",
"792 276 OFFCURVE",
"791 274 OFFCURVE",
"791 272 CURVE",
"789 264 OFFCURVE",
"789 261 OFFCURVE",
"788 259 CURVE",
"792 253 LINE",
"815 258 LINE",
"814 274 OFFCURVE",
"814 282 OFFCURVE",
"814 285 CURVE SMOOTH",
"814 292 OFFCURVE",
"815 301 OFFCURVE",
"819 315 CURVE SMOOTH",
"822 328 OFFCURVE",
"824 338 OFFCURVE",
"824 343 CURVE SMOOTH",
"824 352 OFFCURVE",
"820 358 OFFCURVE",
"811 359 CURVE",
"810 351 LINE",
"725 362 OFFCURVE",
"702 357 OFFCURVE",
"608 356 CURVE",
"608 482 OFFCURVE",
"613 564 OFFCURVE",
"622 600 CURVE",
"637 602 OFFCURVE",
"662 604 OFFCURVE",
"696 604 CURVE SMOOTH",
"730 604 OFFCURVE",
"756 603 OFFCURVE",
"770 601 CURVE SMOOTH",
"808 596 OFFCURVE",
"825 585 OFFCURVE",
"825 568 CURVE SMOOTH",
"825 560 OFFCURVE",
"819 539 OFFCURVE",
"808 510 CURVE",
"835 504 LINE",
"847 566 LINE",
"847 568 OFFCURVE",
"849 575 OFFCURVE",
"855 597 CURVE SMOOTH",
"859 611 OFFCURVE",
"861 622 OFFCURVE",
"861 629 CURVE SMOOTH",
"861 640 OFFCURVE",
"855 647 OFFCURVE",
"846 647 CURVE SMOOTH",
"750 647 OFFCURVE",
"658 646 OFFCURVE",
"571 645 CURVE SMOOTH",
"550 645 OFFCURVE",
"529 646 OFFCURVE",
"508 647 CURVE",
"471 656 OFFCURVE",
"431 660 OFFCURVE",
"386 660 CURVE SMOOTH",
"274 660 OFFCURVE",
"190 633 OFFCURVE",
"129 580 CURVE SMOOTH",
"67 524 OFFCURVE",
"36 442 OFFCURVE",
"36 333 CURVE SMOOTH",
"36 96 OFFCURVE",
"154 -23 OFFCURVE",
"388 -23 CURVE SMOOTH",
"443 -23 OFFCURVE",
"493 -16 OFFCURVE",
"536 -2 CURVE",
"551 -1 LINE SMOOTH",
"570 0 OFFCURVE",
"593 1 OFFCURVE",
"618 1 CURVE SMOOTH",
"675 1 OFFCURVE",
"753 -3 OFFCURVE",
"853 -10 CURVE SMOOTH",
"856 -10 OFFCURVE",
"858 -10 OFFCURVE",
"861 -11 CURVE",
"863 -11 OFFCURVE",
"864 -11 OFFCURVE",
"866 -11 CURVE SMOOTH",
"884 -11 OFFCURVE",
"897 -7 OFFCURVE",
"904 1 CURVE SMOOTH",
"911 10 OFFCURVE",
"916 23 OFFCURVE",
"918 40 CURVE SMOOTH",
"923 77 OFFCURVE",
"933 108 OFFCURVE",
"947 137 CURVE"
);
},
{
closed = 1;
nodes = (
"530 163 OFFCURVE",
"526 91 OFFCURVE",
"519 58 CURVE SMOOTH",
"517 52 OFFCURVE",
"516 48 OFFCURVE",
"512 43 CURVE SMOOTH",
"509 39 OFFCURVE",
"499 35 OFFCURVE",
"472 27 CURVE SMOOTH",
"453 21 OFFCURVE",
"437 18 OFFCURVE",
"425 16 CURVE SMOOTH",
"415 15 OFFCURVE",
"404 14 OFFCURVE",
"394 14 CURVE SMOOTH",
"314 14 OFFCURVE",
"248 49 OFFCURVE",
"198 118 CURVE SMOOTH",
"151 182 OFFCURVE",
"127 257 OFFCURVE",
"127 342 CURVE SMOOTH",
"127 414 OFFCURVE",
"145 474 OFFCURVE",
"180 524 CURVE SMOOTH",
"220 579 OFFCURVE",
"276 611 OFFCURVE",
"349 620 CURVE SMOOTH",
"361 622 OFFCURVE",
"373 622 OFFCURVE",
"385 622 CURVE SMOOTH",
"436 622 OFFCURVE",
"481 609 OFFCURVE",
"520 583 CURVE",
"527 540 OFFCURVE",
"530 438 OFFCURVE",
"530 267 CURVE SMOOTH"
);
}
);
width = 959;
}
);
note = OE;
unicode = 0152;
},
{
glyphname = P;
lastChange = "2021-09-09 12:54:47 +0000";
layers = (
{
hints = (
{
horizontal = 1;
place = "{-34, -12}";
type = Stem;
},
{
horizontal = 1;
place = "{601, 1}";
type = Stem;
},
{
place = "{111, 40}";
type = Stem;
},
{
place = "{431, 37}";
type = Stem;
},
{
horizontal = 1;
place = "{635, -20}";
target = down;
type = TopGhost;
}
);
layerId = "24D0D9E8-BA2F-4B13-8DB9-88CA40D3CAFC";
paths = (
{
closed = 1;
nodes = (
"523 428 OFFCURVE",
"537 466 OFFCURVE",
"540 509 CURVE SMOOTH",
"543 564 OFFCURVE",
"528 605 OFFCURVE",
"495 633 CURVE SMOOTH",
"465 658 OFFCURVE",
"417 670 OFFCURVE",
"350 670 CURVE SMOOTH",
"330 670 OFFCURVE",
"306 669 OFFCURVE",
"277 667 CURVE SMOOTH",
"227 663 OFFCURVE",
"200 662 OFFCURVE",
"194 662 CURVE SMOOTH",
"125 665 OFFCURVE",
"79 668 OFFCURVE",
"59 671 CURVE",
"43 641 LINE",
"83 651 OFFCURVE",
"112 648 OFFCURVE",
"131 632 CURVE",
"143 618 OFFCURVE",
"142 499 OFFCURVE",
"127 283 CURVE SMOOTH",
"119 164 OFFCURVE",
"109 91 OFFCURVE",
"100 64 CURVE SMOOTH",
"89 35 OFFCURVE",
"56 22 OFFCURVE",
"-3 23 CURVE",
"-16 -6 LINE",
"73 -1 OFFCURVE",
"124 2 OFFCURVE",
"138 3 CURVE SMOOTH",
"145 4 OFFCURVE",
"153 4 OFFCURVE",
"162 4 CURVE SMOOTH",
"186 4 OFFCURVE",
"216 3 OFFCURVE",
"252 0 CURVE SMOOTH",
"270 -2 OFFCURVE",
"290 -4 OFFCURVE",
"309 -5 CURVE",
"321 18 LINE",
"317 24 LINE",
"307 22 OFFCURVE",
"286 23 OFFCURVE",
"258 28 CURVE SMOOTH",
"226 33 OFFCURVE",
"206 40 OFFCURVE",
"202 48 CURVE",
"196 71 OFFCURVE",
"197 142 OFFCURVE",
"205 259 CURVE SMOOTH",
"215 403 LINE SMOOTH",
"221 492 OFFCURVE",
"228 559 OFFCURVE",
"236 602 CURVE SMOOTH",
"239 615 OFFCURVE",
"248 623 OFFCURVE",
"265 626 CURVE SMOOTH",
"273 628 OFFCURVE",
"296 629 OFFCURVE",
"328 629 CURVE SMOOTH",
"371 629 OFFCURVE",
"405 615 OFFCURVE",
"430 585 CURVE SMOOTH",
"453 558 OFFCURVE",
"464 524 OFFCURVE",
"461 484 CURVE SMOOTH",
"459 456 OFFCURVE",
"450 429 OFFCURVE",
"434 402 CURVE SMOOTH",
"414 372 OFFCURVE",
"386 350 OFFCURVE",
"347 335 CURVE SMOOTH",
"316 323 OFFCURVE",
"286 318 OFFCURVE",
"255 319 CURVE",
"239 294 LINE",
"283 289 OFFCURVE",
"327 292 OFFCURVE",
"370 304 CURVE SMOOTH",
"424 319 OFFCURVE",
"467 350 OFFCURVE",
"499 394 CURVE SMOOTH"
);
}
);
width = 579;
}
);
note = P;
unicode = 0050;
},
{
glyphname = Thorn;
lastChange = "2021-09-09 12:51:32 +0000";
layers = (
{
hints = (
{
horizontal = 1;
place = "{-189, 21}";
target = up;
type = BottomGhost;
},
{
horizontal = 1;
place = "{495, 33}";
type = Stem;
},
{
horizontal = 1;
place = "{670, -20}";
target = down;
type = TopGhost;
},
{
place = "{132, 68}";
type = Stem;
},
{
place = "{463, 69}";
type = Stem;
}
);
layerId = "24D0D9E8-BA2F-4B13-8DB9-88CA40D3CAFC";
paths = (
{
closed = 1;
nodes = (
"525 290 OFFCURVE",
"536 328 OFFCURVE",
"536 371 CURVE SMOOTH",
"536 425 OFFCURVE",
"518 466 OFFCURVE",
"482 494 CURVE SMOOTH",
"450 519 OFFCURVE",
"401 532 OFFCURVE",
"335 532 CURVE SMOOTH",
"315 532 OFFCURVE",
"291 531 OFFCURVE",
"263 528 CURVE SMOOTH",
"248 527 OFFCURVE",
"235 526 OFFCURVE",
"224 525 CURVE SMOOTH",
"219 525 OFFCURVE",
"215 525 OFFCURVE",
"211 524 CURVE",
"213 586 OFFCURVE",
"214 620 OFFCURVE",
"215 627 CURVE SMOOTH",
"216 637 OFFCURVE",
"217 645 OFFCURVE",
"219 655 CURVE SMOOTH",
"219 656 OFFCURVE",
"219 659 OFFCURVE",
"219 660 CURVE SMOOTH",
"219 669 OFFCURVE",
"214 674 OFFCURVE",
"204 674 CURVE SMOOTH",
"200 674 OFFCURVE",
"190 673 OFFCURVE",
"178 670 CURVE SMOOTH",
"164 667 OFFCURVE",
"154 666 OFFCURVE",
"145 666 CURVE SMOOTH",
"92 668 OFFCURVE",
"58 670 OFFCURVE",
"44 671 CURVE",
"30 642 LINE",
"69 652 OFFCURVE",
"98 650 OFFCURVE",
"116 634 CURVE SMOOTH",
"120 631 OFFCURVE",
"124 587 OFFCURVE",
"128 505 CURVE SMOOTH",
"133 411 OFFCURVE",
"136 321 OFFCURVE",
"136 235 CURVE SMOOTH",
"136 89 LINE SMOOTH",
"135 -32 OFFCURVE",
"132 -100 OFFCURVE",
"126 -124 CURVE SMOOTH",
"123 -139 OFFCURVE",
"111 -152 OFFCURVE",
"91 -159 CURVE SMOOTH",
"75 -166 OFFCURVE",
"57 -169 OFFCURVE",
"36 -169 CURVE SMOOTH",
"28 -169 OFFCURVE",
"23 -169 OFFCURVE",
"19 -167 CURVE",
"8 -193 LINE",
"47 -191 OFFCURVE",
"79 -189 OFFCURVE",
"104 -187 CURVE SMOOTH",
"143 -185 OFFCURVE",
"165 -183 OFFCURVE",
"172 -183 CURVE SMOOTH",
"251 -185 OFFCURVE",
"294 -189 OFFCURVE",
"309 -194 CURVE",
"326 -168 LINE",
"305 -171 OFFCURVE",
"282 -170 OFFCURVE",
"254 -161 CURVE SMOOTH",
"229 -152 OFFCURVE",
"216 -140 OFFCURVE",
"213 -124 CURVE SMOOTH",
"207 -96 OFFCURVE",
"205 -12 OFFCURVE",
"205 155 CURVE SMOOTH",
"205 183 LINE",
"206 187 OFFCURVE",
"207 193 OFFCURVE",
"207 198 CURVE SMOOTH",
"205 260 LINE SMOOTH",
"204 284 OFFCURVE",
"205 319 OFFCURVE",
"207 366 CURVE SMOOTH",
"208 408 OFFCURVE",
"210 442 OFFCURVE",
"213 467 CURVE SMOOTH",
"215 479 OFFCURVE",
"225 487 OFFCURVE",
"245 490 CURVE SMOOTH",
"247 490 OFFCURVE",
"250 490 OFFCURVE",
"254 490 CURVE SMOOTH",
"266 490 OFFCURVE",
"286 491 OFFCURVE",
"316 491 CURVE SMOOTH",
"359 491 OFFCURVE",
"394 476 OFFCURVE",
"421 446 CURVE SMOOTH",
"446 419 OFFCURVE",
"459 385 OFFCURVE",
"459 345 CURVE SMOOTH",
"459 318 OFFCURVE",
"452 291 OFFCURVE",
"437 263 CURVE SMOOTH",
"420 233 OFFCURVE",
"392 210 OFFCURVE",
"356 196 CURVE SMOOTH",
"324 184 OFFCURVE",
"294 180 OFFCURVE",
"265 181 CURVE",
"251 154 LINE",
"295 151 OFFCURVE",
"339 154 OFFCURVE",
"381 166 CURVE SMOOTH",
"435 182 OFFCURVE",
"475 212 OFFCURVE",
"503 256 CURVE SMOOTH"
);
}
);
width = 628;
}
);
note = Thorn;
unicode = 00DE;
},
{
glyphname = Q;
lastChange = "2021-09-09 12:54:47 +0000";
layers = (
{
hints = (
{
horizontal = 1;
place = "{-244, 10}";
type = Stem;
},
{
horizontal = 1;
place = "{-49, -2}";
type = Stem;
},
{
horizontal = 1;
place = "{616, -1}";
type = Stem;
},
{
place = "{6, 54}";
type = Stem;
},
{
place = "{637, 54}";
type = Stem;
}
);
layerId = "24D0D9E8-BA2F-4B13-8DB9-88CA40D3CAFC";
paths = (
{
closed = 1;
nodes = (
"923 -158 LINE",
"901 -164 OFFCURVE",
"881 -166 OFFCURVE",
"861 -166 CURVE SMOOTH",
"793 -166 OFFCURVE",
"714 -131 OFFCURVE",
"624 -62 CURVE SMOOTH",
"595 -39 OFFCURVE",
"561 -18 OFFCURVE",
"523 3 CURVE",
"663 50 OFFCURVE",
"739 165 OFFCURVE",
"751 346 CURVE SMOOTH",
"759 459 OFFCURVE",
"732 544 OFFCURVE",
"670 601 CURVE SMOOTH",
"612 655 OFFCURVE",
"525 683 OFFCURVE",
"411 683 CURVE SMOOTH",
"295 683 OFFCURVE",
"206 655 OFFCURVE",
"140 600 CURVE SMOOTH",
"72 544 OFFCURVE",
"34 460 OFFCURVE",
"26 346 CURVE SMOOTH",
"9 102 OFFCURVE",
"122 -21 OFFCURVE",
"364 -21 CURVE SMOOTH",
"397 -21 OFFCURVE",
"429 -18 OFFCURVE",
"458 -13 CURVE",
"485 -33 OFFCURVE",
"505 -49 OFFCURVE",
"517 -61 CURVE",
"634 -169 LINE SMOOTH",
"668 -201 OFFCURVE",
"709 -216 OFFCURVE",
"756 -216 CURVE SMOOTH",
"793 -216 OFFCURVE",
"844 -206 OFFCURVE",
"909 -185 CURVE"
);
},
{
closed = 1;
nodes = (
"394 18 OFFCURVE",
"383 18 OFFCURVE",
"371 18 CURVE SMOOTH",
"289 18 OFFCURVE",
"225 54 OFFCURVE",
"177 124 CURVE SMOOTH",
"133 191 OFFCURVE",
"115 267 OFFCURVE",
"121 355 CURVE SMOOTH",
"126 430 OFFCURVE",
"149 492 OFFCURVE",
"189 543 CURVE SMOOTH",
"233 599 OFFCURVE",
"293 632 OFFCURVE",
"369 642 CURVE SMOOTH",
"382 643 OFFCURVE",
"394 644 OFFCURVE",
"407 644 CURVE SMOOTH",
"491 644 OFFCURVE",
"556 610 OFFCURVE",
"602 543 CURVE SMOOTH",
"644 481 OFFCURVE",
"661 406 OFFCURVE",
"655 320 CURVE SMOOTH",
"650 244 OFFCURVE",
"627 178 OFFCURVE",
"585 123 CURVE SMOOTH",
"538 63 OFFCURVE",
"479 29 OFFCURVE",
"405 20 CURVE SMOOTH"
);
}
);
width = 786;
}
);
leftKerningGroup = O;
note = Q;
rightKerningGroup = O;
unicode = 0051;
},
{
glyphname = R;
lastChange = "2021-09-09 12:54:47 +0000";
layers = (
{
hints = (
{
horizontal = 1;
place = "{-41, 21}";
target = up;
type = BottomGhost;
},
{
horizontal = 1;
place = "{601, 1}";
type = Stem;
},
{
place = "{113, 40}";
type = Stem;
},
{
place = "{428, 43}";
type = Stem;
},
{
horizontal = 1;
place = "{635, -20}";
target = down;
type = TopGhost;
}
);
layerId = "24D0D9E8-BA2F-4B13-8DB9-88CA40D3CAFC";
paths = (
{
closed = 1;
nodes = (
"730 18 LINE",
"669 15 OFFCURVE",
"602 56 OFFCURVE",
"533 140 CURVE SMOOTH",
"483 199 OFFCURVE",
"440 265 OFFCURVE",
"404 339 CURVE",
"432 347 OFFCURVE",
"460 365 OFFCURVE",
"488 395 CURVE SMOOTH",
"522 431 OFFCURVE",
"540 471 OFFCURVE",
"543 514 CURVE SMOOTH",
"547 575 OFFCURVE",
"530 618 OFFCURVE",
"491 642 CURVE SMOOTH",
"462 661 OFFCURVE",
"418 670 OFFCURVE",
"359 670 CURVE SMOOTH",
"342 670 OFFCURVE",
"315 669 OFFCURVE",
"279 667 CURVE SMOOTH",
"241 664 OFFCURVE",
"212 663 OFFCURVE",
"197 662 CURVE",
"126 665 OFFCURVE",
"81 668 OFFCURVE",
"62 671 CURVE",
"44 641 LINE",
"86 651 OFFCURVE",
"115 648 OFFCURVE",
"133 632 CURVE",
"145 618 OFFCURVE",
"144 499 OFFCURVE",
"129 283 CURVE SMOOTH",
"121 173 OFFCURVE",
"112 98 OFFCURVE",
"103 66 CURVE SMOOTH",
"98 50 OFFCURVE",
"84 38 OFFCURVE",
"63 30 CURVE SMOOTH",
"47 23 OFFCURVE",
"29 20 OFFCURVE",
"6 20 CURVE SMOOTH",
"-2 20 OFFCURVE",
"-7 20 OFFCURVE",
"-11 22 CURVE",
"-25 -7 LINE",
"68 0 OFFCURVE",
"133 3 OFFCURVE",
"168 3 CURVE SMOOTH",
"216 3 OFFCURVE",
"260 0 OFFCURVE",
"299 -7 CURVE",
"317 23 LINE",
"250 23 OFFCURVE",
"211 35 OFFCURVE",
"204 54 CURVE SMOOTH",
"198 75 OFFCURVE",
"199 147 OFFCURVE",
"207 259 CURVE SMOOTH",
"217 403 LINE SMOOTH",
"223 492 OFFCURVE",
"231 559 OFFCURVE",
"238 603 CURVE SMOOTH",
"241 615 OFFCURVE",
"250 623 OFFCURVE",
"267 626 CURVE SMOOTH",
"277 628 OFFCURVE",
"298 629 OFFCURVE",
"330 629 CURVE SMOOTH",
"371 629 OFFCURVE",
"405 616 OFFCURVE",
"429 589 CURVE SMOOTH",
"452 564 OFFCURVE",
"461 534 OFFCURVE",
"459 496 CURVE SMOOTH",
"455 445 OFFCURVE",
"435 403 OFFCURVE",
"398 373 CURVE SMOOTH",
"361 346 OFFCURVE",
"317 333 OFFCURVE",
"265 333 CURVE",
"249 306 LINE",
"267 306 OFFCURVE",
"287 307 OFFCURVE",
"308 310 CURVE",
"320 299 OFFCURVE",
"330 287 OFFCURVE",
"338 275 CURVE SMOOTH",
"344 266 OFFCURVE",
"354 251 OFFCURVE",
"367 230 CURVE SMOOTH",
"458 80 LINE SMOOTH",
"495 18 OFFCURVE",
"556 -13 OFFCURVE",
"638 -13 CURVE SMOOTH",
"659 -13 OFFCURVE",
"685 -11 OFFCURVE",
"714 -8 CURVE"
);
}
);
width = 757;
}
);
leftKerningGroup = D;
note = R;
unicode = 0052;
},
{
glyphname = S;
lastChange = "2021-09-09 12:54:47 +0000";
layers = (
{
hints = (
{
horizontal = 1;
place = "{-51, -3}";
type = Stem;
},
{
horizontal = 1;
place = "{612, -4}";
type = Stem;
},
{
place = "{20, 35}";
type = Stem;
},
{
place = "{289, 51}";
type = Stem;
}
);
layerId = "24D0D9E8-BA2F-4B13-8DB9-88CA40D3CAFC";
paths = (
{
closed = 1;
nodes = (
"399 629 LINE SMOOTH",
"399 631 OFFCURVE",
"399 633 OFFCURVE",
"399 633 CURVE",
"400 642 OFFCURVE",
"392 650 OFFCURVE",
"376 659 CURVE SMOOTH",
"351 670 OFFCURVE",
"319 676 OFFCURVE",
"281 676 CURVE SMOOTH",
"280 676 LINE SMOOTH",
"218 676 OFFCURVE",
"165 657 OFFCURVE",
"123 620 CURVE SMOOTH",
"77 582 OFFCURVE",
"53 535 OFFCURVE",
"50 481 CURVE SMOOTH",
"46 435 OFFCURVE",
"62 396 OFFCURVE",
"96 366 CURVE SMOOTH",
"98 363 OFFCURVE",
"117 352 OFFCURVE",
"201 300 CURVE SMOOTH",
"244 273 OFFCURVE",
"273 243 OFFCURVE",
"285 209 CURVE SMOOTH",
"293 187 OFFCURVE",
"297 164 OFFCURVE",
"295 137 CURVE SMOOTH",
"291 84 OFFCURVE",
"271 49 OFFCURVE",
"234 30 CURVE SMOOTH",
"215 20 OFFCURVE",
"192 14 OFFCURVE",
"167 14 CURVE SMOOTH",
"139 14 OFFCURVE",
"112 20 OFFCURVE",
"86 34 CURVE SMOOTH",
"63 46 OFFCURVE",
"48 62 OFFCURVE",
"45 79 CURVE SMOOTH",
"44 87 OFFCURVE",
"45 116 OFFCURVE",
"48 163 CURVE",
"18 152 LINE",
"16 116 OFFCURVE",
"12 71 OFFCURVE",
"5 14 CURVE SMOOTH",
"5 7 OFFCURVE",
"7 1 OFFCURVE",
"13 -2 CURVE SMOOTH",
"39 -16 OFFCURVE",
"78 -23 OFFCURVE",
"128 -23 CURVE SMOOTH",
"185 -23 OFFCURVE",
"235 -13 OFFCURVE",
"276 7 CURVE SMOOTH",
"308 22 OFFCURVE",
"335 45 OFFCURVE",
"356 77 CURVE SMOOTH",
"375 106 OFFCURVE",
"386 137 OFFCURVE",
"388 173 CURVE SMOOTH",
"391 207 OFFCURVE",
"384 238 OFFCURVE",
"368 269 CURVE SMOOTH",
"354 296 OFFCURVE",
"323 323 OFFCURVE",
"278 351 CURVE SMOOTH",
"219 388 OFFCURVE",
"184 411 OFFCURVE",
"173 422 CURVE",
"140 451 OFFCURVE",
"125 486 OFFCURVE",
"129 524 CURVE SMOOTH",
"131 562 OFFCURVE",
"145 591 OFFCURVE",
"170 612 CURVE SMOOTH",
"193 631 OFFCURVE",
"219 640 OFFCURVE",
"252 640 CURVE SMOOTH",
"284 640 OFFCURVE",
"310 631 OFFCURVE",
"333 613 CURVE SMOOTH",
"347 602 OFFCURVE",
"352 584 OFFCURVE",
"350 559 CURVE SMOOTH",
"349 539 OFFCURVE",
"345 525 OFFCURVE",
"340 516 CURVE",
"369 503 LINE",
"372 549 OFFCURVE",
"382 590 OFFCURVE",
"399 628 CURVE"
);
}
);
width = 436;
}
);
leftKerningGroup = S;
note = S;
rightKerningGroup = S;
unicode = 0053;
},
{
color = 3;
glyphname = Germandbls;
lastChange = "2021-09-09 13:03:42 +0000";
layers = (
{
background = {
hints = (
{
horizontal = 1;
place = "{-10, 94}";
type = Stem;
},
{
horizontal = 1;
place = "{1456, 82}";
type = Stem;
},
{
horizontal = 1;
place = "{2532, 127}";
type = Stem;
},
{
place = "{572, 288}";
type = Stem;
},
{
place = "{1800, 251}";
type = Stem;
},
{
place = "{2096, 304}";
type = Stem;
},
{
horizontal = 1;
place = "{2666, -20}";
target = down;
type = TopGhost;
}
);
paths = (
{
closed = 1;
nodes = (
"2400 1025 OFFCURVE",
"2360 1171 OFFCURVE",
"2280 1272 CURVE SMOOTH",
"2155 1431 OFFCURVE",
"1938 1519 OFFCURVE",
"1631 1538 CURVE",
"1760 1593 OFFCURVE",
"1862 1672 OFFCURVE",
"1936 1774 CURVE SMOOTH",
"2013 1880 OFFCURVE",
"2051 2001 OFFCURVE",
"2051 2136 CURVE SMOOTH",
"2051 2307 OFFCURVE",
"1989 2436 OFFCURVE",
"1864 2521 CURVE SMOOTH",
"1729 2613 OFFCURVE",
"1528 2659 OFFCURVE",
"1261 2659 CURVE SMOOTH",
"1195 2659 OFFCURVE",
"1125 2656 OFFCURVE",
"1050 2650 CURVE SMOOTH",
"761 2629 OFFCURVE",
"473 2634 OFFCURVE",
"185 2666 CURVE",
"148 2587 LINE",
"297 2620 OFFCURVE",
"409 2605 OFFCURVE",
"486 2540 CURVE",
"543 2475 OFFCURVE",
"572 2005 OFFCURVE",
"572 1130 CURVE SMOOTH",
"572 652 OFFCURVE",
"556 359 OFFCURVE",
"524 251 CURVE SMOOTH",
"487 129 OFFCURVE",
"357 70 OFFCURVE",
"132 73 CURVE",
"92 -10 LINE",
"338 7 OFFCURVE",
"517 17 OFFCURVE",
"630 18 CURVE SMOOTH",
"849 19 OFFCURVE",
"970 19 OFFCURVE",
"991 18 CURVE SMOOTH",
"1186 4 OFFCURVE",
"1335 -2 OFFCURVE",
"1440 1 CURVE SMOOTH",
"1719 9 OFFCURVE",
"1942 78 OFFCURVE",
"2111 207 CURVE SMOOTH",
"2304 354 OFFCURVE",
"2400 563 OFFCURVE",
"2400 836 CURVE SMOOTH"
);
},
{
closed = 1;
nodes = (
"2102 602 OFFCURVE",
"2035 417 OFFCURVE",
"1894 280 CURVE SMOOTH",
"1761 149 OFFCURVE",
"1585 84 OFFCURVE",
"1368 84 CURVE SMOOTH",
"1200 84 OFFCURVE",
"1096 88 OFFCURVE",
"1055 97 CURVE SMOOTH",
"956 118 OFFCURVE",
"902 171 OFFCURVE",
"892 256 CURVE SMOOTH",
"871 440 OFFCURVE",
"860 700 OFFCURVE",
"860 1036 CURVE SMOOTH",
"860 1612 LINE SMOOTH",
"860 1969 OFFCURVE",
"869 2235 OFFCURVE",
"888 2411 CURVE SMOOTH",
"894 2468 OFFCURVE",
"936 2505 OFFCURVE",
"1014 2521 CURVE SMOOTH",
"1053 2528 OFFCURVE",
"1136 2532 OFFCURVE",
"1263 2532 CURVE SMOOTH",
"1426 2532 OFFCURVE",
"1557 2484 OFFCURVE",
"1658 2387 CURVE SMOOTH",
"1753 2296 OFFCURVE",
"1800 2186 OFFCURVE",
"1800 2055 CURVE SMOOTH",
"1800 1960 OFFCURVE",
"1773 1870 OFFCURVE",
"1719 1785 CURVE SMOOTH",
"1680 1722 OFFCURVE",
"1615 1667 OFFCURVE",
"1524 1619 CURVE SMOOTH",
"1429 1569 OFFCURVE",
"1335 1544 OFFCURVE",
"1244 1544 CURVE SMOOTH",
"1172 1544 LINE",
"1116 1456 LINE",
"1448 1456 LINE SMOOTH",
"1638 1456 OFFCURVE",
"1791 1402 OFFCURVE",
"1908 1293 CURVE SMOOTH",
"2029 1182 OFFCURVE",
"2091 1029 OFFCURVE",
"2096 835 CURVE SMOOTH"
);
}
);
};
hints = (
{
horizontal = 1;
place = "{-51, -3}";
type = Stem;
},
{
horizontal = 1;
place = "{612, -4}";
type = Stem;
},
{
place = "{20, 35}";
type = Stem;
},
{
place = "{289, 51}";
type = Stem;
},
{
horizontal = 1;
place = "{-51, -3}";
type = Stem;
},
{
horizontal = 1;
place = "{612, -4}";
type = Stem;
},
{
place = "{423, 35}";
type = Stem;
},
{
place = "{692, 51}";
type = Stem;
},
{
horizontal = 1;
place = "{-46, 6}";
type = Stem;
},
{
horizontal = 1;
place = "{633, -20}";
target = down;
type = TopGhost;
},
{
place = "{100, 36}";
type = Stem;
},
{
place = "{368, 40}";
type = Stem;
},
{
place = "{458, 47}";
type = Stem;
}
);
layerId = "24D0D9E8-BA2F-4B13-8DB9-88CA40D3CAFC";
paths = (
{
closed = 1;
nodes = (
"514 96 LINE SMOOTH",
"539 116 OFFCURVE",
"552 143 OFFCURVE",
"555 178 CURVE SMOOTH",
"561 268 OFFCURVE",
"492 332 OFFCURVE",
"342 378 CURVE",
"327 384 OFFCURVE",
"320 390 OFFCURVE",
"321 396 CURVE SMOOTH",
"321 400 OFFCURVE",
"334 412 OFFCURVE",
"380 447 CURVE SMOOTH",
"439 493 OFFCURVE",
"521 557 OFFCURVE",
"524 600 CURVE SMOOTH",
"528 653 OFFCURVE",
"457 679 OFFCURVE",
"331 679 CURVE SMOOTH",
"314 679 OFFCURVE",
"300 678 OFFCURVE",
"284 677 CURVE SMOOTH",
"218 673 OFFCURVE",
"174 656 OFFCURVE",
"153 624 CURVE SMOOTH",
"132 593 OFFCURVE",
"132 585 OFFCURVE",
"129 511 CURVE SMOOTH",
"128 473 OFFCURVE",
"125 419 OFFCURVE",
"120 336 CURVE SMOOTH",
"102 81 OFFCURVE",
"79 22 OFFCURVE",
"3 22 CURVE SMOOTH",
"-3 22 OFFCURVE",
"-6 18 OFFCURVE",
"-9 9 CURVE",
"-10 5 OFFCURVE",
"-12 -1 OFFCURVE",
"-16 -8 CURVE",
"0 -5 OFFCURVE",
"30 -5 OFFCURVE",
"58 -5 CURVE SMOOTH",
"70 -4 OFFCURVE",
"82 -4 OFFCURVE",
"92 -4 CURVE SMOOTH",
"98 -4 OFFCURVE",
"104 -4 OFFCURVE",
"110 -4 CURVE SMOOTH",
"130 -3 OFFCURVE",
"151 -3 OFFCURVE",
"160 4 CURVE SMOOTH",
"173 15 OFFCURVE",
"174 36 OFFCURVE",
"174 55 CURVE SMOOTH",
"175 60 OFFCURVE",
"175 65 OFFCURVE",
"175 70 CURVE SMOOTH",
"190 236 LINE SMOOTH",
"200 365 OFFCURVE",
"211 481 OFFCURVE",
"223 565 CURVE SMOOTH",
"226 594 OFFCURVE",
"238 616 OFFCURVE",
"257 631 CURVE SMOOTH",
"274 645 OFFCURVE",
"294 652 OFFCURVE",
"317 652 CURVE SMOOTH",
"347 652 OFFCURVE",
"373 644 OFFCURVE",
"395 629 CURVE SMOOTH",
"417 611 OFFCURVE",
"427 589 OFFCURVE",
"425 560 CURVE SMOOTH",
"423 524 OFFCURVE",
"359 474 OFFCURVE",
"311 435 CURVE SMOOTH",
"299 425 OFFCURVE",
"288 417 OFFCURVE",
"279 409 CURVE SMOOTH",
"265 397 OFFCURVE",
"258 385 OFFCURVE",
"257 371 CURVE SMOOTH",
"256 356 OFFCURVE",
"265 343 OFFCURVE",
"281 332 CURVE",
"303 321 OFFCURVE",
"325 311 OFFCURVE",
"345 302 CURVE SMOOTH",
"389 281 OFFCURVE",
"426 264 OFFCURVE",
"444 240 CURVE SMOOTH",
"459 217 OFFCURVE",
"466 189 OFFCURVE",
"465 154 CURVE SMOOTH",
"463 106 OFFCURVE",
"443 70 OFFCURVE",
"404 44 CURVE SMOOTH",
"388 34 OFFCURVE",
"370 28 OFFCURVE",
"351 28 CURVE SMOOTH",
"309 28 OFFCURVE",
"269 50 OFFCURVE",
"231 94 CURVE SMOOTH",
"229 96 OFFCURVE",
"226 98 OFFCURVE",
"224 98 CURVE SMOOTH",
"216 98 OFFCURVE",
"212 89 OFFCURVE",
"211 74 CURVE SMOOTH",
"209 43 OFFCURVE",
"215 22 OFFCURVE",
"229 11 CURVE SMOOTH",
"249 -5 OFFCURVE",
"277 -15 OFFCURVE",
"312 -18 CURVE SMOOTH",
"317 -18 OFFCURVE",
"322 -18 OFFCURVE",
"327 -18 CURVE SMOOTH",
"355 -18 OFFCURVE",
"379 -11 OFFCURVE",
"399 2 CURVE SMOOTH",
"404 5 OFFCURVE",
"418 16 OFFCURVE",
"441 36 CURVE SMOOTH"
);
}
);
width = 592;
}
);
unicode = 1E9E;
},
{
glyphname = Schwa;
lastChange = "2021-09-09 12:51:32 +0000";
layers = (
{
hints = (
{
horizontal = 1;
place = "{678, -43}";
type = Stem;
},
{
horizontal = 1;
place = "{303, -45}";
type = Stem;
},
{
horizontal = 1;
place = "{41, -41}";
type = Stem;
},
{
place = "{582, -103}";
type = Stem;
},
{
place = "{108, -81}";
type = Stem;
}
);
layerId = "24D0D9E8-BA2F-4B13-8DB9-88CA40D3CAFC";
paths = (
{
closed = 1;
nodes = (
"21 559 OFFCURVE",
"22 540 OFFCURVE",
"24 525 CURVE",
"22 490 OFFCURVE",
"21 464 OFFCURVE",
"20 445 CURVE SMOOTH",
"19 437 OFFCURVE",
"19 430 OFFCURVE",
"19 424 CURVE",
"56 443 LINE",
"56 448 OFFCURVE",
"57 454 OFFCURVE",
"58 462 CURVE SMOOTH",
"81 582 OFFCURVE",
"159 643 OFFCURVE",
"287 640 CURVE SMOOTH",
"378 638 OFFCURVE",
"445 599 OFFCURVE",
"472 534 CURVE SMOOTH",
"490 489 OFFCURVE",
"492 417 OFFCURVE",
"491 314 CURVE",
"443 310 OFFCURVE",
"383 308 OFFCURVE",
"297 307 CURVE",
"290 308 OFFCURVE",
"272 307 OFFCURVE",
"243 306 CURVE SMOOTH",
"229 305 OFFCURVE",
"213 305 OFFCURVE",
"194 304 CURVE SMOOTH",
"161 303 OFFCURVE",
"130 304 OFFCURVE",
"102 308 CURVE",
"93 308 OFFCURVE",
"78 291 OFFCURVE",
"56 260 CURVE SMOOTH",
"36 235 OFFCURVE",
"23 217 OFFCURVE",
"16 207 CURVE",
"15 142 OFFCURVE",
"35 91 OFFCURVE",
"74 55 CURVE SMOOTH",
"116 16 OFFCURVE",
"177 -4 OFFCURVE",
"260 -4 CURVE SMOOTH",
"401 -4 OFFCURVE",
"497 42 OFFCURVE",
"544 134 CURVE SMOOTH",
"573 194 OFFCURVE",
"587 271 OFFCURVE",
"586 363 CURVE SMOOTH",
"585 469 OFFCURVE",
"567 546 OFFCURVE",
"532 595 CURVE SMOOTH",
"492 653 OFFCURVE",
"421 682 OFFCURVE",
"320 682 CURVE SMOOTH",
"174 682 OFFCURVE",
"79 663 OFFCURVE",
"39 624 CURVE SMOOTH",
"24 610 OFFCURVE",
"16 592 OFFCURVE",
"20 581 CURVE"
);
},
{
closed = 1;
nodes = (
"110 174 OFFCURVE",
"108 189 OFFCURVE",
"108 202 CURVE SMOOTH",
"108 228 OFFCURVE",
"121 248 OFFCURVE",
"137 251 CURVE SMOOTH",
"172 256 OFFCURVE",
"228 260 OFFCURVE",
"305 262 CURVE SMOOTH",
"400 264 OFFCURVE",
"458 262 OFFCURVE",
"487 257 CURVE",
"486 237 OFFCURVE",
"485 218 OFFCURVE",
"484 213 CURVE SMOOTH",
"468 101 OFFCURVE",
"389 35 OFFCURVE",
"275 36 CURVE SMOOTH",
"196 37 OFFCURVE",
"138 82 OFFCURVE",
"115 158 CURVE SMOOTH"
);
}
);
width = 602;
}
);
unicode = 018F;
},
{
glyphname = T;
lastChange = "2021-09-09 12:54:47 +0000";
layers = (
{
hints = (
{
horizontal = 1;
place = "{-35, 21}";
target = up;
type = BottomGhost;
},
{
horizontal = 1;
place = "{600, -3}";
type = Stem;
},
{
horizontal = 1;
place = "{638, -20}";
target = down;
type = TopGhost;
},
{
place = "{233, 49}";
type = Stem;
}
);
layerId = "24D0D9E8-BA2F-4B13-8DB9-88CA40D3CAFC";
paths = (
{
closed = 1;
nodes = (
"346 407 LINE SMOOTH",
"355 528 OFFCURVE",
"363 597 OFFCURVE",
"370 613 CURVE SMOOTH",
"374 623 OFFCURVE",
"382 628 OFFCURVE",
"399 628 CURVE SMOOTH",
"499 628 OFFCURVE",
"554 619 OFFCURVE",
"561 602 CURVE",
"569 585 OFFCURVE",
"566 555 OFFCURVE",
"552 510 CURVE",
"579 499 LINE",
"576 501 OFFCURVE",
"581 527 OFFCURVE",
"594 576 CURVE SMOOTH",
"606 616 OFFCURVE",
"616 647 OFFCURVE",
"625 669 CURVE",
"621 674 LINE",
"532 668 OFFCURVE",
"431 665 OFFCURVE",
"321 665 CURVE SMOOTH",
"234 665 OFFCURVE",
"146 668 OFFCURVE",
"58 674 CURVE",
"54 670 LINE",
"45 624 OFFCURVE",
"37 583 OFFCURVE",
"29 547 CURVE SMOOTH",
"26 534 OFFCURVE",
"24 523 OFFCURVE",
"21 512 CURVE",
"47 500 LINE",
"54 543 OFFCURVE",
"67 577 OFFCURVE",
"85 603 CURVE SMOOTH",
"96 619 OFFCURVE",
"147 628 OFFCURVE",
"238 628 CURVE SMOOTH",
"256 628 OFFCURVE",
"265 623 OFFCURVE",
"266 615 CURVE SMOOTH",
"268 609 OFFCURVE",
"267 578 OFFCURVE",
"266 525 CURVE SMOOTH",
"265 472 OFFCURVE",
"263 433 OFFCURVE",
"261 407 CURVE SMOOTH",
"252 267 LINE SMOOTH",
"246 181 OFFCURVE",
"238 113 OFFCURVE",
"230 66 CURVE",
"220 35 OFFCURVE",
"190 20 OFFCURVE",
"136 20 CURVE SMOOTH",
"129 20 OFFCURVE",
"122 21 OFFCURVE",
"118 23 CURVE",
"101 -8 LINE",
"188 0 OFFCURVE",
"245 3 OFFCURVE",
"273 3 CURVE SMOOTH",
"354 4 OFFCURVE",
"403 1 OFFCURVE",
"427 -8 CURVE",
"445 25 LINE",
"421 21 OFFCURVE",
"398 22 OFFCURVE",
"372 29 CURVE SMOOTH",
"345 37 OFFCURVE",
"332 48 OFFCURVE",
"331 65 CURVE SMOOTH",
"328 105 OFFCURVE",
"330 175 OFFCURVE",
"337 274 CURVE SMOOTH"
);
}
);
width = 629;
}
);
leftKerningGroup = T;
note = T;
rightKerningGroup = T;
unicode = 0054;
},
{
glyphname = U;
lastChange = "2021-09-09 12:56:30 +0000";
layers = (
{
hints = (
{
horizontal = 1;
place = "{-52, -1}";
type = Stem;
},
{
horizontal = 1;
place = "{638, -20}";
target = down;
type = TopGhost;
},
{
place = "{93, 41}";
type = Stem;
},
{
place = "{624, 16}";
type = Stem;
}
);
layerId = "24D0D9E8-BA2F-4B13-8DB9-88CA40D3CAFC";
paths = (
{
closed = 1;
nodes = (
"835 675 LINE",
"789 671 OFFCURVE",
"738 666 OFFCURVE",
"682 664 CURVE",
"618 667 OFFCURVE",
"575 670 OFFCURVE",
"552 673 CURVE",
"535 643 LINE",
"551 648 OFFCURVE",
"569 649 OFFCURVE",
"591 647 CURVE SMOOTH",
"615 645 OFFCURVE",
"628 640 OFFCURVE",
"633 634 CURVE SMOOTH",
"652 612 OFFCURVE",
"658 541 OFFCURVE",
"649 414 CURVE SMOOTH",
"638 253 LINE SMOOTH",
"633 180 OFFCURVE",
"609 121 OFFCURVE",
"568 80 CURVE SMOOTH",
"523 37 OFFCURVE",
"461 16 OFFCURVE",
"383 16 CURVE SMOOTH",
"241 16 OFFCURVE",
"176 92 OFFCURVE",
"186 247 CURVE SMOOTH",
"193 348 OFFCURVE",
"198 414 OFFCURVE",
"197 395 CURVE SMOOTH",
"206 529 OFFCURVE",
"216 603 OFFCURVE",
"229 627 CURVE",
"247 645 OFFCURVE",
"272 652 OFFCURVE",
"306 648 CURVE",
"329 675 LINE",
"283 671 OFFCURVE",
"232 666 OFFCURVE",
"176 664 CURVE",
"106 667 OFFCURVE",
"61 670 OFFCURVE",
"41 673 CURVE",
"25 643 LINE",
"65 653 OFFCURVE",
"94 650 OFFCURVE",
"113 634 CURVE SMOOTH",
"125 620 OFFCURVE",
"126 539 OFFCURVE",
"116 389 CURVE SMOOTH",
"105 222 LINE SMOOTH",
"99 134 OFFCURVE",
"120 70 OFFCURVE",
"170 30 CURVE SMOOTH",
"214 -6 OFFCURVE",
"285 -24 OFFCURVE",
"381 -24 CURVE SMOOTH",
"461 -24 OFFCURVE",
"527 -4 OFFCURVE",
"581 36 CURVE SMOOTH",
"649 85 OFFCURVE",
"688 163 OFFCURVE",
"695 269 CURVE SMOOTH",
"709 476 LINE SMOOTH",
"714 556 OFFCURVE",
"723 606 OFFCURVE",
"735 627 CURVE",
"751 645 OFFCURVE",
"777 652 OFFCURVE",
"812 648 CURVE"
);
}
);
width = 824;
}
);
note = U;
rightKerningGroup = U;
unicode = 0055;
},
{
glyphname = V;
lastChange = "2021-09-09 12:54:47 +0000";
layers = (
{
hints = (
{
horizontal = 1;
place = "{-65, 21}";
target = up;
type = BottomGhost;
},
{
horizontal = 1;
place = "{638, -20}";
target = down;
type = TopGhost;
}
);
layerId = "24D0D9E8-BA2F-4B13-8DB9-88CA40D3CAFC";
paths = (
{
closed = 1;
nodes = (
"784 674 LINE",
"741 669 OFFCURVE",
"710 667 OFFCURVE",
"689 667 CURVE SMOOTH",
"602 665 OFFCURVE",
"548 657 OFFCURVE",
"638 657 CURVE SMOOTH",
"642 657 OFFCURVE",
"626 666 OFFCURVE",
"589 668 CURVE SMOOTH",
"545 669 OFFCURVE",
"521 671 OFFCURVE",
"515 674 CURVE",
"492 642 LINE",
"503 643 OFFCURVE",
"513 645 OFFCURVE",
"526 645 CURVE SMOOTH",
"565 645 OFFCURVE",
"583 634 OFFCURVE",
"582 612 CURVE SMOOTH",
"580 585 OFFCURVE",
"546 495 OFFCURVE",
"488 363 CURVE SMOOTH",
"432 235 OFFCURVE",
"392 150 OFFCURVE",
"368 106 CURVE",
"363 99 OFFCURVE",
"362 99 OFFCURVE",
"362 99 CURVE",
"363 99 OFFCURVE",
"360 103 OFFCURVE",
"358 107 CURVE SMOOTH",
"336 178 OFFCURVE",
"320 231 OFFCURVE",
"309 266 CURVE SMOOTH",
"252 451 OFFCURVE",
"225 568 OFFCURVE",
"228 614 CURVE SMOOTH",
"229 624 OFFCURVE",
"236 632 OFFCURVE",
"253 638 CURVE SMOOTH",
"266 642 OFFCURVE",
"280 645 OFFCURVE",
"294 645 CURVE SMOOTH",
"296 645 OFFCURVE",
"297 645 OFFCURVE",
"299 644 CURVE",
"301 644 OFFCURVE",
"304 644 OFFCURVE",
"306 644 CURVE",
"328 675 LINE",
"269 668 OFFCURVE",
"218 665 OFFCURVE",
"177 665 CURVE",
"176 657 LINE",
"177 657 OFFCURVE",
"168 665 OFFCURVE",
"150 666 CURVE SMOOTH",
"142 667 OFFCURVE",
"133 667 OFFCURVE",
"122 668 CURVE SMOOTH",
"77 670 OFFCURVE",
"51 671 OFFCURVE",
"41 674 CURVE",
"25 644 LINE",
"33 645 OFFCURVE",
"42 647 OFFCURVE",
"54 647 CURVE SMOOTH",
"81 647 OFFCURVE",
"102 642 OFFCURVE",
"115 631 CURVE SMOOTH",
"121 625 OFFCURVE",
"142 564 OFFCURVE",
"173 462 CURVE SMOOTH",
"229 265 LINE SMOOTH",
"232 252 OFFCURVE",
"236 239 OFFCURVE",
"240 227 CURVE SMOOTH",
"252 185 OFFCURVE",
"262 148 OFFCURVE",
"270 119 CURVE SMOOTH",
"274 101 OFFCURVE",
"278 86 OFFCURVE",
"281 73 CURVE SMOOTH",
"283 65 OFFCURVE",
"285 57 OFFCURVE",
"287 51 CURVE SMOOTH",
"291 38 OFFCURVE",
"301 22 OFFCURVE",
"315 5 CURVE SMOOTH",
"333 -16 OFFCURVE",
"346 -34 OFFCURVE",
"346 -38 CURVE",
"362 -31 LINE",
"380 36 OFFCURVE",
"430 153 OFFCURVE",
"512 322 CURVE SMOOTH",
"601 504 OFFCURVE",
"665 607 OFFCURVE",
"699 628 CURVE SMOOTH",
"721 640 OFFCURVE",
"743 646 OFFCURVE",
"765 646 CURVE"
);
}
);
width = 765;
}
);
leftKerningGroup = V;
note = V;
unicode = 0056;
},
{
glyphname = W;
lastChange = "2021-09-09 12:54:47 +0000";
layers = (
{
hints = (
{
horizontal = 1;
place = "{-65, 21}";
target = up;
type = BottomGhost;
},
{
horizontal = 1;
place = "{638, -20}";
target = down;
type = TopGhost;
}
);
layerId = "24D0D9E8-BA2F-4B13-8DB9-88CA40D3CAFC";
paths = (
{
closed = 1;
nodes = (
"1066 674 LINE",
"1022 669 OFFCURVE",
"991 667 OFFCURVE",
"970 667 CURVE SMOOTH",
"864 664 OFFCURVE",
"808 657 OFFCURVE",
"920 657 CURVE SMOOTH",
"924 657 OFFCURVE",
"908 666 OFFCURVE",
"870 668 CURVE SMOOTH",
"826 669 OFFCURVE",
"802 671 OFFCURVE",
"796 674 CURVE",
"774 642 LINE",
"785 644 OFFCURVE",
"797 645 OFFCURVE",
"807 645 CURVE SMOOTH",
"847 645 OFFCURVE",
"865 634 OFFCURVE",
"864 612 CURVE SMOOTH",
"862 587 OFFCURVE",
"830 503 OFFCURVE",
"770 363 CURVE SMOOTH",
"713 235 OFFCURVE",
"673 150 OFFCURVE",
"649 106 CURVE SMOOTH",
"647 102 OFFCURVE",
"644 99 OFFCURVE",
"644 99 CURVE",
"643 99 OFFCURVE",
"641 102 OFFCURVE",
"639 107 CURVE SMOOTH",
"617 178 OFFCURVE",
"601 231 OFFCURVE",
"591 266 CURVE SMOOTH",
"582 296 OFFCURVE",
"569 344 OFFCURVE",
"553 412 CURVE",
"619 545 OFFCURVE",
"661 618 OFFCURVE",
"677 628 CURVE SMOOTH",
"692 636 OFFCURVE",
"705 641 OFFCURVE",
"710 640 CURVE",
"728 668 LINE",
"707 665 OFFCURVE",
"684 665 OFFCURVE",
"662 666 CURVE SMOOTH",
"630 670 OFFCURVE",
"606 670 OFFCURVE",
"605 658 CURVE SMOOTH",
"604 637 OFFCURVE",
"578 568 OFFCURVE",
"533 463 CURVE",
"540 463 LINE",
"517 561 OFFCURVE",
"505 626 OFFCURVE",
"503 654 CURVE",
"503 664 OFFCURVE",
"486 667 OFFCURVE",
"458 668 CURVE SMOOTH",
"403 668 LINE SMOOTH",
"388 668 OFFCURVE",
"377 668 OFFCURVE",
"371 667 CURVE SMOOTH",
"368 667 OFFCURVE",
"366 667 OFFCURVE",
"365 667 CURVE",
"361 665 LINE",
"346 637 LINE",
"367 643 OFFCURVE",
"383 642 OFFCURVE",
"396 631 CURVE SMOOTH",
"405 623 OFFCURVE",
"436 528 OFFCURVE",
"486 354 CURVE",
"428 227 OFFCURVE",
"388 144 OFFCURVE",
"368 106 CURVE",
"363 99 OFFCURVE",
"362 99 OFFCURVE",
"362 99 CURVE",
"363 99 OFFCURVE",
"360 103 OFFCURVE",
"358 107 CURVE SMOOTH",
"336 178 OFFCURVE",
"320 231 OFFCURVE",
"309 266 CURVE SMOOTH",
"252 451 OFFCURVE",
"225 568 OFFCURVE",
"228 614 CURVE SMOOTH",
"229 624 OFFCURVE",
"236 632 OFFCURVE",
"253 638 CURVE SMOOTH",
"266 642 OFFCURVE",
"280 645 OFFCURVE",
"294 645 CURVE SMOOTH",
"296 645 OFFCURVE",
"297 645 OFFCURVE",
"299 644 CURVE",
"301 644 OFFCURVE",
"304 644 OFFCURVE",
"306 644 CURVE",
"328 675 LINE",
"269 668 OFFCURVE",
"218 665 OFFCURVE",
"177 665 CURVE",
"176 657 LINE",
"177 657 OFFCURVE",
"168 665 OFFCURVE",
"150 666 CURVE SMOOTH",
"142 667 OFFCURVE",
"133 667 OFFCURVE",
"122 668 CURVE SMOOTH",
"77 670 OFFCURVE",
"51 671 OFFCURVE",
"41 674 CURVE",
"25 644 LINE",
"33 645 OFFCURVE",
"42 647 OFFCURVE",
"54 647 CURVE SMOOTH",
"81 647 OFFCURVE",
"102 642 OFFCURVE",
"115 631 CURVE SMOOTH",
"121 625 OFFCURVE",
"142 564 OFFCURVE",
"173 462 CURVE SMOOTH",
"229 265 LINE SMOOTH",
"232 252 OFFCURVE",
"236 239 OFFCURVE",
"240 227 CURVE SMOOTH",
"252 185 OFFCURVE",
"262 148 OFFCURVE",
"270 119 CURVE SMOOTH",
"274 101 OFFCURVE",
"278 86 OFFCURVE",
"281 73 CURVE SMOOTH",
"283 65 OFFCURVE",
"285 57 OFFCURVE",
"287 51 CURVE SMOOTH",
"291 38 OFFCURVE",
"301 22 OFFCURVE",
"315 5 CURVE SMOOTH",
"333 -16 OFFCURVE",
"346 -34 OFFCURVE",
"346 -38 CURVE",
"362 -31 LINE",
"376 22 OFFCURVE",
"422 133 OFFCURVE",
"500 301 CURVE",
"510 265 LINE SMOOTH",
"528 206 OFFCURVE",
"541 157 OFFCURVE",
"552 119 CURVE SMOOTH",
"555 105 OFFCURVE",
"558 93 OFFCURVE",
"560 82 CURVE SMOOTH",
"564 69 OFFCURVE",
"566 59 OFFCURVE",
"568 51 CURVE SMOOTH",
"571 40 OFFCURVE",
"580 25 OFFCURVE",
"596 5 CURVE SMOOTH",
"614 -16 OFFCURVE",
"627 -34 OFFCURVE",
"627 -38 CURVE",
"643 -31 LINE",
"661 36 OFFCURVE",
"711 153 OFFCURVE",
"794 322 CURVE SMOOTH",
"881 503 OFFCURVE",
"945 607 OFFCURVE",
"980 628 CURVE SMOOTH",
"1002 640 OFFCURVE",
"1025 646 OFFCURVE",
"1047 646 CURVE"
);
}
);
width = 1062;
}
);
leftKerningGroup = V;
note = W;
unicode = 0057;
},
{
glyphname = X;
lastChange = "2021-09-09 12:54:47 +0000";
layers = (
{
hints = (
{
horizontal = 1;
place = "{-36, 21}";
target = up;
type = BottomGhost;
},
{
horizontal = 1;
place = "{617, -12}";
type = Stem;
},
{
horizontal = 1;
place = "{638, -20}";
target = down;
type = TopGhost;
}
);
layerId = "24D0D9E8-BA2F-4B13-8DB9-88CA40D3CAFC";
paths = (
{
closed = 1;
nodes = (
"732 23 LINE",
"661 25 OFFCURVE",
"616 38 OFFCURVE",
"600 58 CURVE SMOOTH",
"557 113 OFFCURVE",
"494 212 OFFCURVE",
"409 358 CURVE",
"500 481 OFFCURVE",
"565 565 OFFCURVE",
"605 611 CURVE SMOOTH",
"616 624 OFFCURVE",
"637 633 OFFCURVE",
"665 639 CURVE",
"725 646 LINE",
"744 673 LINE",
"644 669 OFFCURVE",
"594 667 OFFCURVE",
"590 667 CURVE SMOOTH",
"579 667 OFFCURVE",
"555 668 OFFCURVE",
"516 670 CURVE SMOOTH",
"478 672 OFFCURVE",
"455 673 OFFCURVE",
"451 673 CURVE",
"447 671 LINE",
"431 646 LINE",
"501 647 OFFCURVE",
"536 636 OFFCURVE",
"536 617 CURVE",
"519 585 OFFCURVE",
"470 510 OFFCURVE",
"388 394 CURVE",
"322 510 OFFCURVE",
"284 585 OFFCURVE",
"278 615 CURVE SMOOTH",
"278 616 OFFCURVE",
"278 617 OFFCURVE",
"278 618 CURVE",
"277 619 OFFCURVE",
"277 619 OFFCURVE",
"277 620 CURVE SMOOTH",
"279 636 OFFCURVE",
"298 645 OFFCURVE",
"335 645 CURVE SMOOTH",
"337 645 OFFCURVE",
"339 645 OFFCURVE",
"341 644 CURVE",
"344 644 OFFCURVE",
"347 644 OFFCURVE",
"349 644 CURVE",
"362 675 LINE",
"304 668 OFFCURVE",
"254 665 OFFCURVE",
"210 665 CURVE SMOOTH",
"207 665 OFFCURVE",
"188 666 OFFCURVE",
"149 668 CURVE SMOOTH",
"142 668 OFFCURVE",
"136 669 OFFCURVE",
"130 669 CURVE SMOOTH",
"95 671 OFFCURVE",
"73 672 OFFCURVE",
"66 674 CURVE",
"60 652 LINE",
"46 644 OFFCURVE",
"67 644 OFFCURVE",
"87 644 CURVE SMOOTH",
"119 644 OFFCURVE",
"138 639 OFFCURVE",
"149 631 CURVE SMOOTH",
"163 621 OFFCURVE",
"228 520 OFFCURVE",
"341 328 CURVE",
"255 207 OFFCURVE",
"191 122 OFFCURVE",
"151 73 CURVE SMOOTH",
"123 38 OFFCURVE",
"71 21 OFFCURVE",
"-7 21 CURVE",
"-21 -8 LINE",
"28 -2 OFFCURVE",
"71 1 OFFCURVE",
"107 1 CURVE SMOOTH",
"179 1 OFFCURVE",
"233 -1 OFFCURVE",
"270 -6 CURVE",
"285 19 LINE",
"281 25 LINE",
"279 24 OFFCURVE",
"274 24 OFFCURVE",
"259 24 CURVE SMOOTH",
"223 24 OFFCURVE",
"205 33 OFFCURVE",
"206 49 CURVE SMOOTH",
"207 50 OFFCURVE",
"207 50 OFFCURVE",
"207 51 CURVE",
"207 52 OFFCURVE",
"208 53 OFFCURVE",
"208 54 CURVE SMOOTH",
"218 84 OFFCURVE",
"267 160 OFFCURVE",
"362 293 CURVE",
"426 183 OFFCURVE",
"468 108 OFFCURVE",
"486 67 CURVE SMOOTH",
"490 59 OFFCURVE",
"491 53 OFFCURVE",
"490 49 CURVE SMOOTH",
"489 31 OFFCURVE",
"468 23 OFFCURVE",
"426 23 CURVE",
"411 -7 LINE",
"442 -2 OFFCURVE",
"493 1 OFFCURVE",
"566 2 CURVE SMOOTH",
"610 3 OFFCURVE",
"660 0 OFFCURVE",
"715 -8 CURVE"
);
}
);
width = 765;
}
);
note = X;
unicode = 0058;
},
{
glyphname = Y;
lastChange = "2021-09-09 12:54:47 +0000";
layers = (
{
hints = (
{
horizontal = 1;
place = "{-35, 21}";
target = up;
type = BottomGhost;
},
{
horizontal = 1;
place = "{612, -10}";
type = Stem;
},
{
place = "{272, 39}";
type = Stem;
},
{
horizontal = 1;
place = "{637, -20}";
target = down;
type = TopGhost;
}
);
layerId = "24D0D9E8-BA2F-4B13-8DB9-88CA40D3CAFC";
paths = (
{
closed = 1;
nodes = (
"481 478 OFFCURVE",
"539 560 OFFCURVE",
"586 608 CURVE SMOOTH",
"610 634 OFFCURVE",
"647 644 OFFCURVE",
"696 640 CURVE",
"714 670 LINE",
"623 666 OFFCURVE",
"574 664 OFFCURVE",
"571 664 CURVE SMOOTH",
"556 664 OFFCURVE",
"546 663 OFFCURVE",
"543 658 CURVE",
"528 642 OFFCURVE",
"499 600 OFFCURVE",
"455 530 CURVE SMOOTH",
"413 462 OFFCURVE",
"377 400 OFFCURVE",
"349 346 CURVE",
"331 403 OFFCURVE",
"305 468 OFFCURVE",
"273 543 CURVE SMOOTH",
"238 626 OFFCURVE",
"218 666 OFFCURVE",
"208 666 CURVE SMOOTH",
"176 666 OFFCURVE",
"146 666 OFFCURVE",
"120 668 CURVE SMOOTH",
"68 670 OFFCURVE",
"40 672 OFFCURVE",
"35 673 CURVE",
"30 670 LINE",
"26 652 LINE",
"13 644 OFFCURVE",
"33 644 OFFCURVE",
"52 644 CURVE SMOOTH",
"89 644 OFFCURVE",
"110 639 OFFCURVE",
"120 631 CURVE SMOOTH",
"129 624 OFFCURVE",
"146 601 OFFCURVE",
"174 553 CURVE SMOOTH",
"211 491 OFFCURVE",
"239 431 OFFCURVE",
"259 371 CURVE SMOOTH",
"278 316 OFFCURVE",
"286 250 OFFCURVE",
"280 175 CURVE SMOOTH",
"278 136 OFFCURVE",
"271 100 OFFCURVE",
"262 65 CURVE SMOOTH",
"253 35 OFFCURVE",
"223 20 OFFCURVE",
"168 20 CURVE SMOOTH",
"161 20 OFFCURVE",
"155 21 OFFCURVE",
"147 23 CURVE",
"131 -8 LINE",
"218 0 OFFCURVE",
"275 3 OFFCURVE",
"303 3 CURVE SMOOTH",
"384 4 OFFCURVE",
"435 1 OFFCURVE",
"457 -8 CURVE",
"475 25 LINE",
"451 21 OFFCURVE",
"427 22 OFFCURVE",
"400 29 CURVE SMOOTH",
"372 36 OFFCURVE",
"359 48 OFFCURVE",
"359 64 CURVE SMOOTH",
"356 102 OFFCURVE",
"357 137 OFFCURVE",
"359 173 CURVE SMOOTH",
"365 254 OFFCURVE",
"382 318 OFFCURVE",
"411 365 CURVE SMOOTH"
);
}
);
width = 704;
}
);
note = Y;
unicode = 0059;
},
{
glyphname = Z;
lastChange = "2021-09-09 12:54:47 +0000";
layers = (
{
hints = (
{
horizontal = 1;
place = "{-41, 21}";
target = up;
type = BottomGhost;
},
{
horizontal = 1;
place = "{-29, -5}";
type = Stem;
},
{
horizontal = 1;
place = "{597, 1}";
type = Stem;
},
{
place = "{21, -8}";
type = Stem;
},
{
horizontal = 1;
place = "{630, -20}";
target = down;
type = TopGhost;
}
);
layerId = "24D0D9E8-BA2F-4B13-8DB9-88CA40D3CAFC";
paths = (
{
closed = 1;
nodes = (
"525 157 LINE",
"522 144 OFFCURVE",
"514 125 OFFCURVE",
"498 100 CURVE SMOOTH",
"483 76 OFFCURVE",
"470 61 OFFCURVE",
"460 54 CURVE SMOOTH",
"441 41 OFFCURVE",
"389 34 OFFCURVE",
"304 34 CURVE SMOOTH",
"200 34 OFFCURVE",
"63 36 OFFCURVE",
"136 25 CURVE",
"138 33 LINE",
"134 34 OFFCURVE",
"133 34 OFFCURVE",
"136 40 CURVE SMOOTH",
"165 89 OFFCURVE",
"190 131 OFFCURVE",
"211 167 CURVE SMOOTH",
"224 190 OFFCURVE",
"236 210 OFFCURVE",
"246 227 CURVE SMOOTH",
"386 446 LINE",
"449 539 OFFCURVE",
"495 606 OFFCURVE",
"525 645 CURVE",
"519 666 LINE",
"426 662 OFFCURVE",
"374 660 OFFCURVE",
"363 660 CURVE SMOOTH",
"295 660 LINE SMOOTH",
"235 660 OFFCURVE",
"161 662 OFFCURVE",
"77 666 CURVE",
"62 648 LINE",
"62 577 OFFCURVE",
"58 527 OFFCURVE",
"53 495 CURVE",
"83 512 LINE",
"85 515 LINE",
"85 521 OFFCURVE",
"87 538 OFFCURVE",
"89 570 CURVE SMOOTH",
"90 591 OFFCURVE",
"101 606 OFFCURVE",
"122 613 CURVE SMOOTH",
"140 619 OFFCURVE",
"173 623 OFFCURVE",
"220 625 CURVE SMOOTH",
"278 627 OFFCURVE",
"335 628 OFFCURVE",
"392 627 CURVE SMOOTH",
"398 627 OFFCURVE",
"399 626 OFFCURVE",
"397 622 CURVE SMOOTH",
"364 558 OFFCURVE",
"321 484 OFFCURVE",
"269 402 CURVE SMOOTH",
"176 257 LINE",
"145 214 OFFCURVE",
"114 172 OFFCURVE",
"83 128 CURVE SMOOTH",
"31 55 OFFCURVE",
"5 12 OFFCURVE",
"6 -3 CURVE",
"14 -13 LINE",
"19 -13 LINE",
"50 -4 OFFCURVE",
"85 0 OFFCURVE",
"125 -1 CURVE SMOOTH",
"291 -4 OFFCURVE",
"394 -7 OFFCURVE",
"436 -10 CURVE SMOOTH",
"443 -11 OFFCURVE",
"449 -11 OFFCURVE",
"454 -11 CURVE SMOOTH",
"471 -11 OFFCURVE",
"483 -7 OFFCURVE",
"490 -1 CURVE SMOOTH",
"497 6 OFFCURVE",
"502 18 OFFCURVE",
"507 36 CURVE SMOOTH",
"523 86 OFFCURVE",
"536 125 OFFCURVE",
"547 149 CURVE"
);
}
);
width = 593;
}
);
note = Z;
unicode = 005A;
},
{
glyphname = a;
lastChange = "2021-09-09 12:54:47 +0000";
layers = (
{
hints = (
{
horizontal = 1;
place = "{-35, 30}";
type = Stem;
},
{
horizontal = 1;
place = "{414, -2}";
type = Stem;
},
{
place = "{-3, 27}";
type = Stem;
},
{
place = "{291, 38}";
type = Stem;
},
{
horizontal = 1;
place = "{-39, 21}";
target = up;
type = BottomGhost;
},
{
horizontal = 1;
place = "{211, 201}";
type = Stem;
}
);
layerId = "24D0D9E8-BA2F-4B13-8DB9-88CA40D3CAFC";
paths = (
{
closed = 1;
nodes = (
"472 20 LINE",
"467 26 LINE",
"460 22 OFFCURVE",
"447 22 OFFCURVE",
"425 24 CURVE SMOOTH",
"395 27 OFFCURVE",
"380 38 OFFCURVE",
"378 57 CURVE SMOOTH",
"373 85 OFFCURVE",
"374 137 OFFCURVE",
"379 219 CURVE SMOOTH",
"380 230 OFFCURVE",
"382 244 OFFCURVE",
"384 263 CURVE SMOOTH",
"384 270 OFFCURVE",
"385 278 OFFCURVE",
"386 286 CURVE SMOOTH",
"387 294 OFFCURVE",
"388 301 OFFCURVE",
"388 308 CURVE SMOOTH",
"390 327 OFFCURVE",
"392 343 OFFCURVE",
"393 354 CURVE SMOOTH",
"399 438 OFFCURVE",
"357 480 OFFCURVE",
"268 480 CURVE SMOOTH",
"228 480 OFFCURVE",
"190 476 OFFCURVE",
"155 467 CURVE SMOOTH",
"107 454 OFFCURVE",
"75 437 OFFCURVE",
"55 413 CURVE SMOOTH",
"47 404 OFFCURVE",
"44 397 OFFCURVE",
"43 390 CURVE SMOOTH",
"43 388 OFFCURVE",
"45 378 OFFCURVE",
"49 356 CURVE SMOOTH",
"56 323 OFFCURVE",
"59 299 OFFCURVE",
"57 282 CURVE SMOOTH",
"56 269 LINE",
"83 288 LINE",
"80 288 OFFCURVE",
"81 294 OFFCURVE",
"81 302 CURVE SMOOTH",
"84 346 OFFCURVE",
"100 380 OFFCURVE",
"130 406 CURVE SMOOTH",
"159 430 OFFCURVE",
"196 442 OFFCURVE",
"240 442 CURVE SMOOTH",
"276 442 OFFCURVE",
"297 426 OFFCURVE",
"306 393 CURVE SMOOTH",
"311 372 OFFCURVE",
"313 339 OFFCURVE",
"310 295 CURVE SMOOTH",
"309 286 LINE",
"263 285 OFFCURVE",
"180 280 OFFCURVE",
"151 269 CURVE SMOOTH",
"129 259 OFFCURVE",
"109 243 OFFCURVE",
"72 215 CURVE",
"67 212 OFFCURVE",
"63 209 OFFCURVE",
"58 206 CURVE SMOOTH",
"35 191 OFFCURVE",
"8 174 OFFCURVE",
"5 133 CURVE SMOOTH",
"0 53 OFFCURVE",
"44 -7 OFFCURVE",
"110 -7 CURVE SMOOTH",
"158 -7 OFFCURVE",
"212 15 OFFCURVE",
"271 58 CURVE SMOOTH",
"278 63 OFFCURVE",
"285 69 OFFCURVE",
"292 73 CURVE",
"292 71 OFFCURVE",
"292 69 OFFCURVE",
"292 67 CURVE SMOOTH",
"288 15 OFFCURVE",
"303 -11 OFFCURVE",
"336 -11 CURVE SMOOTH",
"347 -11 OFFCURVE",
"368 -10 OFFCURVE",
"395 -8 CURVE SMOOTH",
"422 -7 OFFCURVE",
"442 -6 OFFCURVE",
"456 -7 CURVE"
);
},
{
closed = 1;
nodes = (
"301 202 OFFCURVE",
"298 168 OFFCURVE",
"295 147 CURVE",
"290 122 OFFCURVE",
"274 101 OFFCURVE",
"250 85 CURVE SMOOTH",
"226 71 OFFCURVE",
"189 58 OFFCURVE",
"160 58 CURVE SMOOTH",
"63 58 OFFCURVE",
"49 187 OFFCURVE",
"145 221 CURVE SMOOTH",
"175 232 OFFCURVE",
"225 239 OFFCURVE",
"305 242 CURVE"
);
}
);
width = 504;
}
);
leftKerningGroup = a;
note = a;
rightKerningGroup = a;
unicode = 0061;
},
{
glyphname = ae;
lastChange = "2021-09-09 12:51:32 +0000";
layers = (
{
hints = (
{
horizontal = 1;
place = "{0, 31}";
type = Stem;
},
{
horizontal = 1;
place = "{266, 32}";
type = Stem;
},
{
horizontal = 1;
place = "{446, 35}";
type = Stem;
},
{
place = "{29, 59}";
type = Stem;
},
{
place = "{325, 68}";
type = Stem;
},
{
place = "{654, 63}";
type = Stem;
},
{
horizontal = 1;
place = "{-3, 21}";
target = up;
type = BottomGhost;
},
{
horizontal = 1;
place = "{0, 60}";
type = Stem;
},
{
horizontal = 1;
place = "{243, 238}";
type = Stem;
}
);
layerId = "24D0D9E8-BA2F-4B13-8DB9-88CA40D3CAFC";
paths = (
{
closed = 1;
nodes = (
"722 63 OFFCURVE",
"722 71 OFFCURVE",
"721 84 CURVE SMOOTH",
"719 96 OFFCURVE",
"718 107 OFFCURVE",
"718 109 CURVE SMOOTH",
"718 121 OFFCURVE",
"719 145 OFFCURVE",
"721 182 CURVE",
"690 167 LINE",
"693 164 OFFCURVE",
"693 164 OFFCURVE",
"692 155 CURVE",
"691 155 OFFCURVE",
"691 154 OFFCURVE",
"691 153 CURVE SMOOTH",
"676 72 OFFCURVE",
"624 32 OFFCURVE",
"533 34 CURVE SMOOTH",
"473 36 OFFCURVE",
"435 59 OFFCURVE",
"415 105 CURVE SMOOTH",
"404 130 OFFCURVE",
"398 173 OFFCURVE",
"396 237 CURVE SMOOTH",
"396 236 OFFCURVE",
"396 237 OFFCURVE",
"396 238 CURVE SMOOTH",
"396 241 OFFCURVE",
"397 248 OFFCURVE",
"397 257 CURVE",
"433 260 OFFCURVE",
"475 262 OFFCURVE",
"521 262 CURVE SMOOTH",
"524 262 OFFCURVE",
"532 262 OFFCURVE",
"543 263 CURVE SMOOTH",
"556 263 OFFCURVE",
"573 263 OFFCURVE",
"594 264 CURVE SMOOTH",
"616 265 OFFCURVE",
"638 264 OFFCURVE",
"659 262 CURVE",
"666 260 OFFCURVE",
"678 274 OFFCURVE",
"693 296 CURVE SMOOTH",
"699 303 OFFCURVE",
"703 309 OFFCURVE",
"707 315 CURVE SMOOTH",
"716 327 OFFCURVE",
"713 336 OFFCURVE",
"713 335 CURVE",
"721 335 LINE",
"721 381 OFFCURVE",
"706 417 OFFCURVE",
"678 443 CURVE SMOOTH",
"647 471 OFFCURVE",
"604 485 OFFCURVE",
"544 485 CURVE SMOOTH",
"473 485 OFFCURVE",
"418 468 OFFCURVE",
"380 433 CURVE",
"358 465 OFFCURVE",
"320 480 OFFCURVE",
"266 480 CURVE SMOOTH",
"226 480 OFFCURVE",
"189 476 OFFCURVE",
"154 467 CURVE SMOOTH",
"107 454 OFFCURVE",
"76 437 OFFCURVE",
"58 413 CURVE SMOOTH",
"51 404 OFFCURVE",
"48 397 OFFCURVE",
"48 390 CURVE SMOOTH",
"48 388 OFFCURVE",
"51 378 OFFCURVE",
"56 356 CURVE SMOOTH",
"65 323 OFFCURVE",
"70 299 OFFCURVE",
"69 282 CURVE SMOOTH",
"69 269 LINE",
"95 288 LINE",
"92 288 OFFCURVE",
"92 294 OFFCURVE",
"92 302 CURVE SMOOTH",
"92 346 OFFCURVE",
"105 380 OFFCURVE",
"134 406 CURVE SMOOTH",
"161 430 OFFCURVE",
"197 442 OFFCURVE",
"241 442 CURVE SMOOTH",
"277 442 OFFCURVE",
"299 426 OFFCURVE",
"310 393 CURVE SMOOTH",
"317 372 OFFCURVE",
"321 339 OFFCURVE",
"321 295 CURVE SMOOTH",
"321 291 LINE",
"309 289 OFFCURVE",
"298 288 OFFCURVE",
"289 287 CURVE SMOOTH",
"281 286 OFFCURVE",
"275 285 OFFCURVE",
"269 284 CURVE SMOOTH",
"225 279 OFFCURVE",
"192 272 OFFCURVE",
"171 264 CURVE SMOOTH",
"148 254 OFFCURVE",
"119 235 OFFCURVE",
"86 208 CURVE SMOOTH",
"66 192 OFFCURVE",
"51 181 OFFCURVE",
"39 173 CURVE",
"30 165 OFFCURVE",
"25 150 OFFCURVE",
"25 129 CURVE SMOOTH",
"25 95 OFFCURVE",
"35 64 OFFCURVE",
"57 37 CURVE SMOOTH",
"80 7 OFFCURVE",
"108 -7 OFFCURVE",
"142 -7 CURVE SMOOTH",
"182 -7 OFFCURVE",
"233 18 OFFCURVE",
"297 67 CURVE",
"302 72 OFFCURVE",
"311 78 OFFCURVE",
"323 86 CURVE SMOOTH",
"331 91 OFFCURVE",
"337 95 OFFCURVE",
"342 97 CURVE",
"364 30 OFFCURVE",
"420 -4 OFFCURVE",
"508 -4 CURVE SMOOTH",
"613 -4 OFFCURVE",
"679 9 OFFCURVE",
"708 37 CURVE SMOOTH",
"715 45 OFFCURVE",
"720 52 OFFCURVE",
"721 59 CURVE SMOOTH"
);
},
{
closed = 1;
nodes = (
"648 356 OFFCURVE",
"650 346 OFFCURVE",
"650 337 CURVE SMOOTH",
"650 319 OFFCURVE",
"645 312 OFFCURVE",
"634 310 CURVE SMOOTH",
"610 306 OFFCURVE",
"570 303 OFFCURVE",
"516 302 CURVE SMOOTH",
"459 300 OFFCURVE",
"421 302 OFFCURVE",
"399 305 CURVE",
"400 328 LINE",
"400 331 LINE SMOOTH",
"410 410 OFFCURVE",
"455 449 OFFCURVE",
"535 448 CURVE SMOOTH",
"592 447 OFFCURVE",
"628 421 OFFCURVE",
"644 369 CURVE SMOOTH"
);
},
{
closed = 1;
nodes = (
"319 199 OFFCURVE",
"318 168 OFFCURVE",
"317 147 CURVE",
"313 122 OFFCURVE",
"299 101 OFFCURVE",
"276 85 CURVE SMOOTH",
"253 71 OFFCURVE",
"227 63 OFFCURVE",
"199 63 CURVE SMOOTH",
"154 63 OFFCURVE",
"123 81 OFFCURVE",
"105 117 CURVE SMOOTH",
"96 133 OFFCURVE",
"93 146 OFFCURVE",
"93 156 CURVE SMOOTH",
"93 179 OFFCURVE",
"114 199 OFFCURVE",
"158 216 CURVE SMOOTH",
"190 228 OFFCURVE",
"245 236 OFFCURVE",
"320 239 CURVE"
);
}
);
width = 741;
}
);
note = ae;
unicode = 00E6;
},
{
glyphname = b;
lastChange = "2021-09-09 12:51:32 +0000";
layers = (
{
hints = (
{
horizontal = 1;
place = "{-9, 21}";
target = up;
type = BottomGhost;
},
{
horizontal = 1;
place = "{434, 37}";
type = Stem;
},
{
horizontal = 1;
place = "{666, -20}";
target = down;
type = TopGhost;
},
{
place = "{112, 57}";
type = Stem;
},
{
place = "{439, 70}";
type = Stem;
},
{
horizontal = 1;
place = "{-8, 29}";
type = Stem;
}
);
layerId = "24D0D9E8-BA2F-4B13-8DB9-88CA40D3CAFC";
paths = (
{
closed = 1;
nodes = (
"513 326 OFFCURVE",
"503 378 OFFCURVE",
"482 412 CURVE SMOOTH",
"458 454 OFFCURVE",
"415 475 OFFCURVE",
"356 475 CURVE SMOOTH",
"344 475 OFFCURVE",
"333 475 OFFCURVE",
"319 473 CURVE SMOOTH",
"244 465 OFFCURVE",
"192 434 OFFCURVE",
"165 379 CURVE",
"173 377 LINE",
"178 522 OFFCURVE",
"184 618 OFFCURVE",
"190 651 CURVE SMOOTH",
"190 653 OFFCURVE",
"190 655 OFFCURVE",
"190 657 CURVE SMOOTH",
"190 666 OFFCURVE",
"185 670 OFFCURVE",
"175 670 CURVE SMOOTH",
"171 670 OFFCURVE",
"161 669 OFFCURVE",
"149 666 CURVE SMOOTH",
"136 664 OFFCURVE",
"125 663 OFFCURVE",
"116 663 CURVE SMOOTH",
"63 664 OFFCURVE",
"29 666 OFFCURVE",
"15 668 CURVE",
"1 639 LINE",
"40 649 OFFCURVE",
"69 646 OFFCURVE",
"88 630 CURVE",
"101 616 OFFCURVE",
"108 495 OFFCURVE",
"108 276 CURVE SMOOTH",
"108 248 OFFCURVE",
"106 201 OFFCURVE",
"100 134 CURVE SMOOTH",
"94 57 OFFCURVE",
"87 13 OFFCURVE",
"83 -1 CURVE",
"102 -15 LINE",
"122 16 OFFCURVE",
"144 37 OFFCURVE",
"169 47 CURVE",
"197 8 OFFCURVE",
"241 -12 OFFCURVE",
"302 -12 CURVE SMOOTH",
"442 -12 OFFCURVE",
"513 78 OFFCURVE",
"513 256 CURVE SMOOTH"
);
},
{
closed = 1;
nodes = (
"427 322 OFFCURVE",
"435 275 OFFCURVE",
"435 219 CURVE SMOOTH",
"435 166 OFFCURVE",
"426 124 OFFCURVE",
"411 95 CURVE SMOOTH",
"384 48 OFFCURVE",
"345 25 OFFCURVE",
"294 25 CURVE SMOOTH",
"246 25 OFFCURVE",
"212 49 OFFCURVE",
"193 98 CURVE SMOOTH",
"178 132 OFFCURVE",
"171 177 OFFCURVE",
"171 236 CURVE SMOOTH",
"171 292 OFFCURVE",
"179 332 OFFCURVE",
"195 360 CURVE SMOOTH",
"222 407 OFFCURVE",
"261 430 OFFCURVE",
"312 430 CURVE SMOOTH",
"360 430 OFFCURVE",
"394 406 OFFCURVE",
"413 358 CURVE SMOOTH"
);
}
);
width = 549;
}
);
leftKerningGroup = bracketleft;
note = b;
rightKerningGroup = b;
unicode = 0062;
},
{
glyphname = c;
lastChange = "2021-09-09 12:54:47 +0000";
layers = (
{
hints = (
{
horizontal = 1;
place = "{-42, 1}";
type = Stem;
},
{
horizontal = 1;
place = "{426, -7}";
type = Stem;
},
{
place = "{3, 40}";
type = Stem;
}
);
layerId = "24D0D9E8-BA2F-4B13-8DB9-88CA40D3CAFC";
paths = (
{
closed = 1;
nodes = (
"397 97 LINE",
"343 50 OFFCURVE",
"288 27 OFFCURVE",
"233 27 CURVE SMOOTH",
"166 27 OFFCURVE",
"126 51 OFFCURVE",
"108 100 CURVE SMOOTH",
"95 134 OFFCURVE",
"91 182 OFFCURVE",
"95 243 CURVE SMOOTH",
"97 265 OFFCURVE",
"99 286 OFFCURVE",
"103 306 CURVE SMOOTH",
"110 347 OFFCURVE",
"127 382 OFFCURVE",
"154 408 CURVE SMOOTH",
"184 437 OFFCURVE",
"222 452 OFFCURVE",
"266 454 CURVE SMOOTH",
"301 455 OFFCURVE",
"328 448 OFFCURVE",
"346 434 CURVE SMOOTH",
"365 419 OFFCURVE",
"375 398 OFFCURVE",
"375 373 CURVE SMOOTH",
"375 345 OFFCURVE",
"374 329 OFFCURVE",
"372 324 CURVE",
"377 319 LINE",
"404 332 LINE",
"402 379 OFFCURVE",
"404 413 OFFCURVE",
"409 435 CURVE",
"410 437 OFFCURVE",
"411 439 OFFCURVE",
"411 441 CURVE SMOOTH",
"412 451 OFFCURVE",
"404 460 OFFCURVE",
"391 467 CURVE SMOOTH",
"353 485 OFFCURVE",
"301 492 OFFCURVE",
"237 487 CURVE SMOOTH",
"150 480 OFFCURVE",
"89 447 OFFCURVE",
"56 387 CURVE SMOOTH",
"33 348 OFFCURVE",
"20 293 OFFCURVE",
"14 220 CURVE SMOOTH",
"7 117 OFFCURVE",
"22 51 OFFCURVE",
"60 20 CURVE SMOOTH",
"88 -3 OFFCURVE",
"136 -14 OFFCURVE",
"206 -14 CURVE SMOOTH",
"298 -14 OFFCURVE",
"356 -3 OFFCURVE",
"378 21 CURVE"
);
}
);
width = 439;
}
);
leftKerningGroup = c;
note = c;
rightKerningGroup = c;
unicode = 0063;
},
{
glyphname = d;
lastChange = "2021-09-09 12:54:47 +0000";
layers = (
{
hints = (
{
horizontal = 1;
place = "{-40, 21}";
target = up;
type = BottomGhost;
},
{
horizontal = 1;
place = "{-33, 1}";
type = Stem;
},
{
horizontal = 1;
place = "{414, 181}";
type = Stem;
},
{
horizontal = 1;
place = "{634, -20}";
target = down;
type = TopGhost;
},
{
place = "{7, 37}";
type = Stem;
},
{
place = "{350, 28}";
type = Stem;
},
{
horizontal = 1;
place = "{414, 0}";
type = Stem;
}
);
layerId = "24D0D9E8-BA2F-4B13-8DB9-88CA40D3CAFC";
paths = (
{
closed = 1;
nodes = (
"544 20 LINE",
"540 26 LINE",
"534 25 OFFCURVE",
"524 25 OFFCURVE",
"514 25 CURVE SMOOTH",
"461 25 OFFCURVE",
"434 37 OFFCURVE",
"430 62 CURVE SMOOTH",
"425 94 OFFCURVE",
"426 165 OFFCURVE",
"433 274 CURVE SMOOTH",
"436 311 OFFCURVE",
"437 331 OFFCURVE",
"438 342 CURVE SMOOTH",
"447 489 OFFCURVE",
"459 592 OFFCURVE",
"473 650 CURVE",
"474 652 OFFCURVE",
"475 654 OFFCURVE",
"475 657 CURVE SMOOTH",
"476 665 OFFCURVE",
"470 670 OFFCURVE",
"461 670 CURVE SMOOTH",
"456 670 OFFCURVE",
"446 668 OFFCURVE",
"434 666 CURVE SMOOTH",
"421 664 OFFCURVE",
"410 663 OFFCURVE",
"401 663 CURVE SMOOTH",
"348 664 OFFCURVE",
"315 666 OFFCURVE",
"300 668 CURVE",
"285 639 LINE",
"324 649 OFFCURVE",
"352 646 OFFCURVE",
"370 630 CURVE SMOOTH",
"380 619 OFFCURVE",
"382 552 OFFCURVE",
"376 432 CURVE",
"364 445 OFFCURVE",
"348 456 OFFCURVE",
"327 466 CURVE SMOOTH",
"303 477 OFFCURVE",
"276 482 OFFCURVE",
"248 482 CURVE SMOOTH",
"167 482 OFFCURVE",
"107 456 OFFCURVE",
"71 402 CURVE SMOOTH",
"41 360 OFFCURVE",
"24 297 OFFCURVE",
"18 214 CURVE SMOOTH",
"13 147 OFFCURVE",
"23 95 OFFCURVE",
"47 58 CURVE SMOOTH",
"72 16 OFFCURVE",
"112 -5 OFFCURVE",
"169 -5 CURVE SMOOTH",
"177 -5 OFFCURVE",
"186 -4 OFFCURVE",
"196 -3 CURVE SMOOTH",
"268 5 OFFCURVE",
"320 34 OFFCURVE",
"351 81 CURVE",
"344 83 LINE",
"343 42 OFFCURVE",
"343 17 OFFCURVE",
"344 8 CURVE SMOOTH",
"345 -5 OFFCURVE",
"351 -12 OFFCURVE",
"362 -12 CURVE SMOOTH",
"366 -12 OFFCURVE",
"372 -11 OFFCURVE",
"378 -9 CURVE SMOOTH",
"382 -7 OFFCURVE",
"388 -6 OFFCURVE",
"390 -6 CURVE SMOOTH",
"440 -1 OFFCURVE",
"486 -1 OFFCURVE",
"527 -5 CURVE"
);
},
{
closed = 1;
nodes = (
"359 334 OFFCURVE",
"363 289 OFFCURVE",
"359 231 CURVE SMOOTH",
"355 175 OFFCURVE",
"344 135 OFFCURVE",
"326 107 CURVE SMOOTH",
"296 60 OFFCURVE",
"256 37 OFFCURVE",
"205 37 CURVE SMOOTH",
"157 37 OFFCURVE",
"125 61 OFFCURVE",
"108 109 CURVE SMOOTH",
"97 143 OFFCURVE",
"93 190 OFFCURVE",
"97 248 CURVE SMOOTH",
"101 302 OFFCURVE",
"112 343 OFFCURVE",
"130 372 CURVE SMOOTH",
"160 419 OFFCURVE",
"201 442 OFFCURVE",
"251 442 CURVE SMOOTH",
"299 442 OFFCURVE",
"331 419 OFFCURVE",
"348 370 CURVE SMOOTH"
);
}
);
width = 572;
}
);
leftKerningGroup = d;
note = d;
unicode = 0064;
},
{
glyphname = eth;
lastChange = "2021-09-09 12:51:32 +0000";
layers = (
{
hints = (
{
horizontal = 1;
place = "{-10, 21}";
target = up;
type = BottomGhost;
},
{
horizontal = 1;
place = "{213, 35}";
type = Stem;
},
{
horizontal = 1;
place = "{676, -20}";
target = down;
type = TopGhost;
},
{
place = "{12, 75}";
type = Stem;
},
{
place = "{87, 227}";
type = Stem;
}
);
layerId = "24D0D9E8-BA2F-4B13-8DB9-88CA40D3CAFC";
paths = (
{
closed = 1;
nodes = (
"346 652 LINE",
"329 643 OFFCURVE",
"293 622 OFFCURVE",
"253 602 CURVE",
"218 630 OFFCURVE",
"176 656 OFFCURVE",
"128 677 CURVE",
"126 679 OFFCURVE",
"123 680 OFFCURVE",
"120 680 CURVE SMOOTH",
"112 680 OFFCURVE",
"91 660 OFFCURVE",
"44 608 CURVE SMOOTH",
"35 599 OFFCURVE",
"27 590 OFFCURVE",
"21 584 CURVE",
"21 578 LINE",
"23 577 OFFCURVE",
"27 570 OFFCURVE",
"31 565 CURVE SMOOTH",
"33 563 OFFCURVE",
"34 560 OFFCURVE",
"35 559 CURVE",
"41 560 LINE",
"54 579 OFFCURVE",
"89 620 OFFCURVE",
"123 598 CURVE SMOOTH",
"143 585 OFFCURVE",
"160 573 OFFCURVE",
"176 562 CURVE",
"151 549 OFFCURVE",
"133 541 OFFCURVE",
"124 538 CURVE",
"112 531 OFFCURVE",
"116 481 OFFCURVE",
"127 488 CURVE SMOOTH",
"145 499 OFFCURVE",
"175 518 OFFCURVE",
"207 535 CURVE",
"221 524 OFFCURVE",
"233 512 OFFCURVE",
"244 499 CURVE SMOOTH",
"249 493 OFFCURVE",
"254 486 OFFCURVE",
"259 480 CURVE",
"183 478 OFFCURVE",
"126 468 OFFCURVE",
"70 397 CURVE SMOOTH",
"32 351 OFFCURVE",
"12 294 OFFCURVE",
"9 226 CURVE SMOOTH",
"8 214 OFFCURVE",
"8 202 OFFCURVE",
"8 190 CURVE SMOOTH",
"8 127 OFFCURVE",
"17 80 OFFCURVE",
"37 48 CURVE SMOOTH",
"56 13 OFFCURVE",
"89 -7 OFFCURVE",
"136 -12 CURVE SMOOTH",
"145 -13 OFFCURVE",
"155 -14 OFFCURVE",
"164 -14 CURVE SMOOTH",
"287 -14 OFFCURVE",
"363 69 OFFCURVE",
"390 232 CURVE SMOOTH",
"396 264 OFFCURVE",
"397 299 OFFCURVE",
"393 333 CURVE SMOOTH",
"385 430 OFFCURVE",
"348 511 OFFCURVE",
"283 576 CURVE",
"309 589 OFFCURVE",
"331 600 OFFCURVE",
"344 604 CURVE SMOOTH",
"353 608 OFFCURVE",
"354 646 OFFCURVE",
"352 651 CURVE"
);
},
{
closed = 1;
nodes = (
"309 177 OFFCURVE",
"289 99 OFFCURVE",
"251 55 CURVE SMOOTH",
"217 16 OFFCURVE",
"184 13 OFFCURVE",
"148 44 CURVE SMOOTH",
"110 77 OFFCURVE",
"91 131 OFFCURVE",
"91 205 CURVE SMOOTH",
"91 352 OFFCURVE",
"157 441 OFFCURVE",
"276 452 CURVE",
"299 407 OFFCURVE",
"311 354 OFFCURVE",
"311 291 CURVE SMOOTH"
);
}
);
width = 395;
}
);
note = eth;
unicode = 00F0;
},
{
glyphname = e;
lastChange = "2021-09-09 12:54:47 +0000";
layers = (
{
hints = (
{
horizontal = 1;
place = "{-40, -1}";
type = Stem;
},
{
horizontal = 1;
place = "{232, 1}";
type = Stem;
},
{
horizontal = 1;
place = "{422, -2}";
type = Stem;
},
{
place = "{-1, 43}";
type = Stem;
},
{
place = "{342, 27}";
type = Stem;
}
);
layerId = "24D0D9E8-BA2F-4B13-8DB9-88CA40D3CAFC";
paths = (
{
closed = 1;
nodes = (
"412 74 OFFCURVE",
"412 90 OFFCURVE",
"412 103 CURVE",
"416 143 OFFCURVE",
"419 166 OFFCURVE",
"421 178 CURVE",
"391 164 LINE",
"390 161 OFFCURVE",
"390 155 OFFCURVE",
"389 149 CURVE SMOOTH",
"366 66 OFFCURVE",
"310 26 OFFCURVE",
"217 28 CURVE SMOOTH",
"157 29 OFFCURVE",
"119 53 OFFCURVE",
"103 100 CURVE SMOOTH",
"92 130 OFFCURVE",
"90 182 OFFCURVE",
"96 255 CURVE",
"136 258 OFFCURVE",
"178 260 OFFCURVE",
"224 260 CURVE SMOOTH",
"228 260 OFFCURVE",
"235 260 OFFCURVE",
"246 261 CURVE SMOOTH",
"259 261 OFFCURVE",
"276 261 OFFCURVE",
"298 262 CURVE SMOOTH",
"321 263 OFFCURVE",
"344 262 OFFCURVE",
"365 260 CURVE",
"372 258 OFFCURVE",
"384 272 OFFCURVE",
"402 295 CURVE SMOOTH",
"418 313 OFFCURVE",
"428 326 OFFCURVE",
"434 334 CURVE",
"438 381 OFFCURVE",
"426 418 OFFCURVE",
"399 445 CURVE SMOOTH",
"370 474 OFFCURVE",
"326 488 OFFCURVE",
"266 488 CURVE SMOOTH",
"164 488 OFFCURVE",
"92 454 OFFCURVE",
"54 387 CURVE SMOOTH",
"28 343 OFFCURVE",
"14 286 OFFCURVE",
"10 220 CURVE SMOOTH",
"6 144 OFFCURVE",
"15 88 OFFCURVE",
"37 52 CURVE SMOOTH",
"66 9 OFFCURVE",
"116 -12 OFFCURVE",
"188 -12 CURVE SMOOTH",
"294 -12 OFFCURVE",
"364 2 OFFCURVE",
"395 31 CURVE SMOOTH",
"405 39 OFFCURVE",
"409 46 OFFCURVE",
"411 54 CURVE"
);
},
{
closed = 1;
nodes = (
"362 357 OFFCURVE",
"362 347 OFFCURVE",
"362 337 CURVE SMOOTH",
"360 318 OFFCURVE",
"354 310 OFFCURVE",
"343 308 CURVE SMOOTH",
"317 305 OFFCURVE",
"277 302 OFFCURVE",
"221 301 CURVE SMOOTH",
"161 299 OFFCURVE",
"122 300 OFFCURVE",
"102 304 CURVE",
"103 310 OFFCURVE",
"104 316 OFFCURVE",
"104 320 CURVE SMOOTH",
"105 325 OFFCURVE",
"105 327 OFFCURVE",
"106 329 CURVE",
"123 411 OFFCURVE",
"172 451 OFFCURVE",
"253 450 CURVE SMOOTH",
"312 449 OFFCURVE",
"346 422 OFFCURVE",
"359 369 CURVE SMOOTH"
);
}
);
width = 458;
}
);
leftKerningGroup = e;
note = e;
rightKerningGroup = e;
unicode = 0065;
},
{
glyphname = f;
lastChange = "2021-09-09 12:54:47 +0000";
layers = (
{
hints = (
{
horizontal = 1;
place = "{-35, 21}";
target = up;
type = BottomGhost;
},
{
horizontal = 1;
place = "{405, -10}";
type = Stem;
},
{
horizontal = 1;
place = "{605, -2}";
type = Stem;
},
{
place = "{107, 38}";
type = Stem;
}
);
layerId = "24D0D9E8-BA2F-4B13-8DB9-88CA40D3CAFC";
paths = (
{
closed = 1;
nodes = (
"432 510 LINE",
"432 567 OFFCURVE",
"433 603 OFFCURVE",
"436 616 CURVE SMOOTH",
"440 635 OFFCURVE",
"424 649 OFFCURVE",
"391 660 CURVE SMOOTH",
"364 667 OFFCURVE",
"334 671 OFFCURVE",
"304 671 CURVE SMOOTH",
"248 671 OFFCURVE",
"206 653 OFFCURVE",
"179 614 CURVE SMOOTH",
"156 581 OFFCURVE",
"142 530 OFFCURVE",
"136 464 CURVE",
"97 464 OFFCURVE",
"78 464 OFFCURVE",
"72 464 CURVE",
"69 462 LINE",
"45 434 LINE",
"71 434 OFFCURVE",
"102 434 OFFCURVE",
"137 433 CURVE",
"142 437 LINE",
"142 440 OFFCURVE",
"132 412 OFFCURVE",
"128 353 CURVE SMOOTH",
"126 310 OFFCURVE",
"124 284 OFFCURVE",
"123 276 CURVE SMOOTH",
"115 158 OFFCURVE",
"107 90 OFFCURVE",
"99 65 CURVE SMOOTH",
"90 36 OFFCURVE",
"54 21 OFFCURVE",
"-9 21 CURVE",
"-25 -8 LINE",
"74 0 OFFCURVE",
"129 4 OFFCURVE",
"140 4 CURVE SMOOTH",
"225 2 OFFCURVE",
"265 -2 OFFCURVE",
"278 -8 CURVE",
"297 24 LINE",
"273 21 OFFCURVE",
"250 22 OFFCURVE",
"226 30 CURVE SMOOTH",
"200 37 OFFCURVE",
"187 49 OFFCURVE",
"186 64 CURVE",
"186 147 OFFCURVE",
"188 217 OFFCURVE",
"191 275 CURVE SMOOTH",
"194 310 OFFCURVE",
"197 363 OFFCURVE",
"203 431 CURVE",
"249 429 OFFCURVE",
"280 427 OFFCURVE",
"296 424 CURVE SMOOTH",
"304 422 OFFCURVE",
"313 426 OFFCURVE",
"327 436 CURVE",
"339 446 OFFCURVE",
"345 452 OFFCURVE",
"345 458 CURVE",
"341 458 LINE",
"341 459 OFFCURVE",
"341 459 OFFCURVE",
"339 459 CURVE",
"339 463 LINE",
"206 463 LINE",
"210 505 OFFCURVE",
"218 538 OFFCURVE",
"227 563 CURVE SMOOTH",
"248 613 OFFCURVE",
"283 636 OFFCURVE",
"332 633 CURVE SMOOTH",
"356 632 OFFCURVE",
"374 626 OFFCURVE",
"384 614 CURVE SMOOTH",
"397 599 OFFCURVE",
"404 579 OFFCURVE",
"405 553 CURVE SMOOTH",
"406 532 OFFCURVE",
"405 511 OFFCURVE",
"404 495 CURVE"
);
}
);
width = 391;
}
);
note = f;
unicode = 0066;
},
{
glyphname = g;
lastChange = "2021-09-09 12:54:47 +0000";
layers = (
{
hints = (
{
horizontal = 1;
place = "{-199, -7}";
type = Stem;
},
{
horizontal = 1;
place = "{24, 18}";
type = Stem;
},
{
horizontal = 1;
place = "{404, -9}";
type = Stem;
},
{
horizontal = 1;
place = "{449, -20}";
target = down;
type = TopGhost;
},
{
place = "{-20, 22}";
type = Stem;
},
{
place = "{52, 33}";
type = Stem;
},
{
place = "{317, 33}";
type = Stem;
},
{
place = "{395, 26}";
type = Stem;
},
{
place = "{5, 31}";
type = Stem;
}
);
layerId = "24D0D9E8-BA2F-4B13-8DB9-88CA40D3CAFC";
paths = (
{
closed = 1;
nodes = (
"349 464 LINE",
"324 478 OFFCURVE",
"293 485 OFFCURVE",
"259 485 CURVE SMOOTH",
"143 485 OFFCURVE",
"78 432 OFFCURVE",
"71 333 CURVE SMOOTH",
"68 281 OFFCURVE",
"82 243 OFFCURVE",
"112 217 CURVE",
"95 200 OFFCURVE",
"67 183 OFFCURVE",
"28 169 CURVE SMOOTH",
"18 165 OFFCURVE",
"12 155 OFFCURVE",
"11 139 CURVE SMOOTH",
"10 122 OFFCURVE",
"13 104 OFFCURVE",
"20 86 CURVE SMOOTH",
"31 61 OFFCURVE",
"42 49 OFFCURVE",
"56 51 CURVE",
"70 51 OFFCURVE",
"81 50 OFFCURVE",
"92 51 CURVE",
"90 59 LINE",
"16 24 OFFCURVE",
"-25 -22 OFFCURVE",
"-29 -78 CURVE SMOOTH",
"-31 -103 OFFCURVE",
"-24 -123 OFFCURVE",
"-8 -139 CURVE SMOOTH",
"11 -160 OFFCURVE",
"58 -170 OFFCURVE",
"132 -171 CURVE SMOOTH",
"169 -172 OFFCURVE",
"209 -166 OFFCURVE",
"251 -154 CURVE SMOOTH",
"298 -142 OFFCURVE",
"338 -125 OFFCURVE",
"372 -101 CURVE SMOOTH",
"426 -65 OFFCURVE",
"455 -23 OFFCURVE",
"459 25 CURVE SMOOTH",
"463 83 OFFCURVE",
"423 112 OFFCURVE",
"342 110 CURVE SMOOTH",
"267 108 OFFCURVE",
"191 111 OFFCURVE",
"115 117 CURVE SMOOTH",
"90 119 OFFCURVE",
"81 127 OFFCURVE",
"82 142 CURVE SMOOTH",
"83 152 OFFCURVE",
"88 162 OFFCURVE",
"100 176 CURVE SMOOTH",
"111 188 OFFCURVE",
"123 197 OFFCURVE",
"136 203 CURVE",
"162 189 OFFCURVE",
"191 183 OFFCURVE",
"222 183 CURVE SMOOTH",
"337 183 OFFCURVE",
"403 236 OFFCURVE",
"410 336 CURVE SMOOTH",
"412 375 OFFCURVE",
"404 406 OFFCURVE",
"386 431 CURVE",
"434 428 OFFCURVE",
"462 425 OFFCURVE",
"469 424 CURVE SMOOTH",
"477 423 OFFCURVE",
"487 427 OFFCURVE",
"500 437 CURVE SMOOTH",
"511 445 OFFCURVE",
"518 452 OFFCURVE",
"518 458 CURVE",
"514 458 LINE",
"514 460 OFFCURVE",
"514 459 OFFCURVE",
"510 464 CURVE"
);
},
{
closed = 1;
nodes = (
"224 204 OFFCURVE",
"195 216 OFFCURVE",
"174 247 CURVE SMOOTH",
"153 276 OFFCURVE",
"144 311 OFFCURVE",
"147 352 CURVE SMOOTH",
"151 411 OFFCURVE",
"176 446 OFFCURVE",
"222 456 CURVE SMOOTH",
"257 464 OFFCURVE",
"285 452 OFFCURVE",
"308 421 CURVE SMOOTH",
"329 391 OFFCURVE",
"338 355 OFFCURVE",
"335 316 CURVE SMOOTH",
"331 256 OFFCURVE",
"306 222 OFFCURVE",
"259 212 CURVE SMOOTH"
);
},
{
closed = 1;
nodes = (
"329 -93 OFFCURVE",
"296 -110 OFFCURVE",
"255 -122 CURVE SMOOTH",
"220 -133 OFFCURVE",
"186 -138 OFFCURVE",
"152 -138 CURVE SMOOTH",
"101 -138 OFFCURVE",
"65 -125 OFFCURVE",
"44 -97 CURVE SMOOTH",
"36 -86 OFFCURVE",
"32 -71 OFFCURVE",
"33 -54 CURVE SMOOTH",
"37 -4 OFFCURVE",
"66 30 OFFCURVE",
"121 49 CURVE",
"149 48 OFFCURVE",
"180 47 OFFCURVE",
"216 47 CURVE SMOOTH",
"277 46 OFFCURVE",
"324 43 OFFCURVE",
"356 38 CURVE SMOOTH",
"381 34 OFFCURVE",
"392 19 OFFCURVE",
"391 -8 CURVE SMOOTH",
"389 -28 OFFCURVE",
"376 -49 OFFCURVE",
"353 -71 CURVE SMOOTH"
);
}
);
width = 525;
}
);
note = g;
unicode = 0067;
},
{
glyphname = h;
lastChange = "2021-09-09 12:54:47 +0000";
layers = (
{
hints = (
{
horizontal = 1;
place = "{-35, -12}";
type = Stem;
},
{
horizontal = 1;
place = "{416, 9}";
type = Stem;
},
{
horizontal = 1;
place = "{635, -20}";
target = down;
type = TopGhost;
},
{
place = "{108, 29}";
type = Stem;
},
{
place = "{401, 37}";
type = Stem;
},
{
horizontal = 1;
place = "{-35, 21}";
target = up;
type = BottomGhost;
}
);
layerId = "24D0D9E8-BA2F-4B13-8DB9-88CA40D3CAFC";
paths = (
{
closed = 1;
nodes = (
"603 17 LINE",
"599 23 LINE",
"594 22 OFFCURVE",
"588 22 OFFCURVE",
"579 22 CURVE SMOOTH",
"521 22 OFFCURVE",
"491 36 OFFCURVE",
"485 64 CURVE",
"484 103 OFFCURVE",
"484 135 OFFCURVE",
"485 158 CURVE SMOOTH",
"486 202 OFFCURVE",
"488 241 OFFCURVE",
"490 276 CURVE SMOOTH",
"490 285 OFFCURVE",
"491 302 OFFCURVE",
"493 325 CURVE SMOOTH",
"494 354 OFFCURVE",
"496 380 OFFCURVE",
"497 401 CURVE SMOOTH",
"502 451 OFFCURVE",
"473 481 OFFCURVE",
"415 490 CURVE SMOOTH",
"405 492 OFFCURVE",
"393 493 OFFCURVE",
"382 493 CURVE SMOOTH",
"338 493 OFFCURVE",
"300 481 OFFCURVE",
"265 456 CURVE SMOOTH",
"247 444 OFFCURVE",
"227 432 OFFCURVE",
"202 419 CURVE",
"211 530 OFFCURVE",
"221 606 OFFCURVE",
"233 652 CURVE SMOOTH",
"233 653 OFFCURVE",
"233 656 OFFCURVE",
"233 657 CURVE SMOOTH",
"234 666 OFFCURVE",
"229 671 OFFCURVE",
"219 671 CURVE SMOOTH",
"215 671 OFFCURVE",
"205 670 OFFCURVE",
"193 667 CURVE SMOOTH",
"179 664 OFFCURVE",
"168 663 OFFCURVE",
"159 663 CURVE SMOOTH",
"151 663 OFFCURVE",
"143 664 OFFCURVE",
"136 664 CURVE SMOOTH",
"96 665 OFFCURVE",
"70 666 OFFCURVE",
"58 668 CURVE",
"43 639 LINE",
"82 649 OFFCURVE",
"111 647 OFFCURVE",
"128 631 CURVE SMOOTH",
"140 617 OFFCURVE",
"142 547 OFFCURVE",
"134 422 CURVE SMOOTH",
"123 276 LINE SMOOTH",
"113 144 OFFCURVE",
"107 83 OFFCURVE",
"101 65 CURVE SMOOTH",
"96 50 OFFCURVE",
"83 38 OFFCURVE",
"63 30 CURVE SMOOTH",
"47 23 OFFCURVE",
"29 20 OFFCURVE",
"7 20 CURVE SMOOTH",
"0 20 OFFCURVE",
"-6 20 OFFCURVE",
"-10 22 CURVE",
"-25 -7 LINE",
"74 0 OFFCURVE",
"129 4 OFFCURVE",
"140 4 CURVE SMOOTH",
"196 3 OFFCURVE",
"230 -1 OFFCURVE",
"247 -7 CURVE",
"262 23 LINE",
"212 22 OFFCURVE",
"188 35 OFFCURVE",
"185 63 CURVE SMOOTH",
"182 94 OFFCURVE",
"184 165 OFFCURVE",
"191 275 CURVE SMOOTH",
"198 374 LINE",
"211 390 OFFCURVE",
"232 406 OFFCURVE",
"260 420 CURVE SMOOTH",
"288 434 OFFCURVE",
"309 441 OFFCURVE",
"326 443 CURVE SMOOTH",
"332 444 OFFCURVE",
"339 444 OFFCURVE",
"345 444 CURVE SMOOTH",
"401 444 OFFCURVE",
"426 396 OFFCURVE",
"418 298 CURVE SMOOTH",
"408 154 LINE",
"407 143 LINE SMOOTH",
"404 102 OFFCURVE",
"399 74 OFFCURVE",
"391 58 CURVE SMOOTH",
"387 48 OFFCURVE",
"378 39 OFFCURVE",
"364 31 CURVE SMOOTH",
"351 25 OFFCURVE",
"337 22 OFFCURVE",
"325 23 CURVE",
"308 -8 LINE",
"405 3 OFFCURVE",
"500 3 OFFCURVE",
"591 -6 CURVE"
);
}
);
width = 652;
}
);
leftKerningGroup = h;
note = h;
rightKerningGroup = a;
unicode = 0068;
},
{
glyphname = i;
lastChange = "2021-09-09 12:54:47 +0000";
layers = (
{
hints = (
{
horizontal = 1;
place = "{-35, -10}";
type = Stem;
},
{
horizontal = 1;
place = "{626, -20}";
target = down;
type = TopGhost;
},
{
place = "{108, 29}";
type = Stem;
}
);
layerId = "24D0D9E8-BA2F-4B13-8DB9-88CA40D3CAFC";
paths = (
{
closed = 1;
nodes = (
"247 618 OFFCURVE",
"249 623 OFFCURVE",
"248 627 CURVE",
"248 633 OFFCURVE",
"244 636 OFFCURVE",
"238 636 CURVE SMOOTH",
"224 636 OFFCURVE",
"214 638 OFFCURVE",
"206 643 CURVE",
"201 645 OFFCURVE",
"198 647 OFFCURVE",
"193 650 CURVE SMOOTH",
"191 652 OFFCURVE",
"189 654 OFFCURVE",
"186 655 CURVE",
"181 660 OFFCURVE",
"178 662 OFFCURVE",
"173 662 CURVE SMOOTH",
"168 662 OFFCURVE",
"156 655 OFFCURVE",
"140 643 CURVE SMOOTH",
"118 626 OFFCURVE",
"106 614 OFFCURVE",
"105 607 CURVE SMOOTH",
"105 599 OFFCURVE",
"112 589 OFFCURVE",
"123 578 CURVE SMOOTH",
"136 566 OFFCURVE",
"148 559 OFFCURVE",
"158 559 CURVE SMOOTH",
"167 559 OFFCURVE",
"184 569 OFFCURVE",
"210 589 CURVE SMOOTH",
"228 602 OFFCURVE",
"239 611 OFFCURVE",
"243 615 CURVE SMOOTH"
);
},
{
closed = 1;
nodes = (
"294 23 LINE",
"224 22 OFFCURVE",
"188 36 OFFCURVE",
"185 63 CURVE SMOOTH",
"182 93 OFFCURVE",
"182 148 OFFCURVE",
"188 227 CURVE SMOOTH",
"192 268 LINE SMOOTH",
"198 359 OFFCURVE",
"207 425 OFFCURVE",
"220 467 CURVE SMOOTH",
"220 468 OFFCURVE",
"220 471 OFFCURVE",
"220 472 CURVE SMOOTH",
"221 480 OFFCURVE",
"216 484 OFFCURVE",
"206 484 CURVE SMOOTH",
"202 484 OFFCURVE",
"192 483 OFFCURVE",
"180 480 CURVE SMOOTH",
"166 478 OFFCURVE",
"155 477 OFFCURVE",
"147 478 CURVE SMOOTH",
"93 479 OFFCURVE",
"60 480 OFFCURVE",
"45 482 CURVE",
"30 453 LINE",
"70 462 OFFCURVE",
"98 460 OFFCURVE",
"116 447 CURVE",
"127 435 OFFCURVE",
"130 377 OFFCURVE",
"123 276 CURVE SMOOTH",
"120 227 LINE SMOOTH",
"114 143 OFFCURVE",
"107 86 OFFCURVE",
"101 65 CURVE SMOOTH",
"92 36 OFFCURVE",
"55 21 OFFCURVE",
"-10 21 CURVE",
"-25 -8 LINE",
"57 0 OFFCURVE",
"110 3 OFFCURVE",
"132 3 CURVE SMOOTH",
"203 5 OFFCURVE",
"251 1 OFFCURVE",
"278 -8 CURVE"
);
}
);
width = 325;
}
);
leftKerningGroup = i;
note = i;
unicode = 0069;
},
{
color = 11;
glyphname = idotless;
lastChange = "2021-09-09 13:36:57 +0000";
layers = (
{
hints = (
{
horizontal = 1;
place = "{-35, -10}";
type = Stem;
},
{
horizontal = 1;
place = "{626, -20}";
target = down;
type = TopGhost;
},
{
place = "{108, 29}";
type = Stem;
}
);
layerId = "24D0D9E8-BA2F-4B13-8DB9-88CA40D3CAFC";
paths = (
{
closed = 1;
nodes = (
"294 23 LINE",
"224 22 OFFCURVE",
"189 36 OFFCURVE",
"185 63 CURVE SMOOTH",
"182 93 OFFCURVE",
"182 148 OFFCURVE",
"188 227 CURVE SMOOTH",
"192 268 LINE SMOOTH",
"198 359 OFFCURVE",
"207 425 OFFCURVE",
"220 467 CURVE SMOOTH",
"220 468 OFFCURVE",
"220 471 OFFCURVE",
"220 472 CURVE SMOOTH",
"221 480 OFFCURVE",
"216 484 OFFCURVE",
"206 484 CURVE SMOOTH",
"202 484 OFFCURVE",
"192 483 OFFCURVE",
"180 480 CURVE SMOOTH",
"166 478 OFFCURVE",
"155 477 OFFCURVE",
"146 478 CURVE SMOOTH",
"94 479 OFFCURVE",
"60 480 OFFCURVE",
"46 482 CURVE",
"30 453 LINE",
"69 462 OFFCURVE",
"98 460 OFFCURVE",
"115 447 CURVE",
"127 435 OFFCURVE",
"130 377 OFFCURVE",
"123 276 CURVE SMOOTH",
"120 227 LINE SMOOTH",
"114 143 OFFCURVE",
"107 86 OFFCURVE",
"101 65 CURVE SMOOTH",
"93 36 OFFCURVE",
"56 21 OFFCURVE",
"-10 21 CURVE",
"-24 -8 LINE",
"57 0 OFFCURVE",
"109 3 OFFCURVE",
"132 3 CURVE SMOOTH",
"203 5 OFFCURVE",
"251 1 OFFCURVE",
"278 -8 CURVE"
);
}
);
width = 325;
}
);
unicode = 0131;
},
{
glyphname = j;
lastChange = "2021-09-09 12:54:47 +0000";
layers = (
{
hints = (
{
horizontal = 1;
place = "{-204, 21}";
target = up;
type = BottomGhost;
},
{
horizontal = 1;
place = "{626, -20}";
target = down;
type = TopGhost;
},
{
place = "{100, 33}";
type = Stem;
}
);
layerId = "24D0D9E8-BA2F-4B13-8DB9-88CA40D3CAFC";
paths = (
{
closed = 1;
nodes = (
"239 618 OFFCURVE",
"241 622 OFFCURVE",
"241 628 CURVE",
"240 633 OFFCURVE",
"236 636 OFFCURVE",
"231 636 CURVE SMOOTH",
"217 636 OFFCURVE",
"207 638 OFFCURVE",
"199 643 CURVE SMOOTH",
"192 646 OFFCURVE",
"186 650 OFFCURVE",
"179 655 CURVE SMOOTH",
"175 659 OFFCURVE",
"169 662 OFFCURVE",
"166 662 CURVE SMOOTH",
"160 662 OFFCURVE",
"149 655 OFFCURVE",
"132 643 CURVE SMOOTH",
"108 624 OFFCURVE",
"98 614 OFFCURVE",
"97 607 CURVE SMOOTH",
"97 599 OFFCURVE",
"104 589 OFFCURVE",
"116 578 CURVE SMOOTH",
"129 565 OFFCURVE",
"140 559 OFFCURVE",
"150 559 CURVE SMOOTH",
"159 559 OFFCURVE",
"176 569 OFFCURVE",
"203 589 CURVE SMOOTH",
"221 602 OFFCURVE",
"232 611 OFFCURVE",
"236 615 CURVE SMOOTH"
);
},
{
closed = 1;
nodes = (
"213 468 OFFCURVE",
"213 469 OFFCURVE",
"213 472 CURVE SMOOTH",
"214 479 OFFCURVE",
"208 484 OFFCURVE",
"199 484 CURVE SMOOTH",
"194 484 OFFCURVE",
"185 483 OFFCURVE",
"172 480 CURVE SMOOTH",
"159 478 OFFCURVE",
"148 477 OFFCURVE",
"140 478 CURVE SMOOTH",
"86 479 OFFCURVE",
"53 480 OFFCURVE",
"38 482 CURVE",
"23 453 LINE",
"62 462 OFFCURVE",
"90 460 OFFCURVE",
"109 447 CURVE",
"120 435 OFFCURVE",
"122 377 OFFCURVE",
"115 276 CURVE SMOOTH",
"104 119 LINE SMOOTH",
"97 23 OFFCURVE",
"83 -47 OFFCURVE",
"63 -86 CURVE SMOOTH",
"52 -107 OFFCURVE",
"36 -122 OFFCURVE",
"16 -133 CURVE SMOOTH",
"-8 -145 OFFCURVE",
"-27 -148 OFFCURVE",
"-46 -145 CURVE",
"-34 -176 LINE",
"-21 -174 OFFCURVE",
"-10 -172 OFFCURVE",
"-2 -170 CURVE SMOOTH",
"2 -169 OFFCURVE",
"6 -169 OFFCURVE",
"9 -168 CURVE SMOOTH",
"111 -149 OFFCURVE",
"165 -96 OFFCURVE",
"169 -11 CURVE SMOOTH",
"176 134 LINE",
"184 268 LINE SMOOTH",
"189 354 OFFCURVE",
"198 419 OFFCURVE",
"211 466 CURVE"
);
}
);
width = 285;
}
);
leftKerningGroup = j;
note = j;
rightKerningGroup = bracketleft;
unicode = 006A;
},
{
color = 11;
glyphname = jdotless;
lastChange = "2021-09-09 13:36:57 +0000";
layers = (
{
hints = (
{
horizontal = 1;
place = "{-204, 21}";
target = up;
type = BottomGhost;
},
{
horizontal = 1;
place = "{626, -20}";
target = down;
type = TopGhost;
},
{
place = "{100, 33}";
type = Stem;
}
);
layerId = "24D0D9E8-BA2F-4B13-8DB9-88CA40D3CAFC";
paths = (
{
closed = 1;
nodes = (
"213 468 OFFCURVE",
"213 469 OFFCURVE",
"213 472 CURVE SMOOTH",
"214 479 OFFCURVE",
"208 484 OFFCURVE",
"199 484 CURVE SMOOTH",
"194 484 OFFCURVE",
"185 483 OFFCURVE",
"172 480 CURVE SMOOTH",
"159 478 OFFCURVE",
"148 477 OFFCURVE",
"140 478 CURVE SMOOTH",
"86 479 OFFCURVE",
"53 480 OFFCURVE",
"38 482 CURVE",
"23 453 LINE",
"62 462 OFFCURVE",
"90 460 OFFCURVE",
"109 447 CURVE",
"120 435 OFFCURVE",
"122 377 OFFCURVE",
"115 276 CURVE SMOOTH",
"104 119 LINE SMOOTH",
"97 23 OFFCURVE",
"83 -47 OFFCURVE",
"63 -86 CURVE SMOOTH",
"52 -107 OFFCURVE",
"36 -122 OFFCURVE",
"16 -133 CURVE SMOOTH",
"-8 -145 OFFCURVE",
"-27 -148 OFFCURVE",
"-46 -145 CURVE",
"-34 -176 LINE",
"-21 -174 OFFCURVE",
"-10 -172 OFFCURVE",
"-2 -170 CURVE SMOOTH",
"2 -169 OFFCURVE",
"6 -169 OFFCURVE",
"9 -168 CURVE SMOOTH",
"111 -149 OFFCURVE",
"165 -96 OFFCURVE",
"169 -11 CURVE SMOOTH",
"176 134 LINE",
"184 268 LINE SMOOTH",
"189 354 OFFCURVE",
"198 419 OFFCURVE",
"211 466 CURVE"
);
}
);
width = 285;
}
);
unicode = 0237;
},
{
glyphname = k;
lastChange = "2021-09-09 12:54:47 +0000";
layers = (
{
hints = (
{
horizontal = 1;
place = "{-40, 21}";
target = up;
type = BottomGhost;
},
{
horizontal = 1;
place = "{635, -20}";
target = down;
type = TopGhost;
},
{
place = "{108, 29}";
type = Stem;
}
);
layerId = "24D0D9E8-BA2F-4B13-8DB9-88CA40D3CAFC";
paths = (
{
closed = 1;
nodes = (
"584 24 LINE",
"567 21 OFFCURVE",
"555 20 OFFCURVE",
"546 20 CURVE SMOOTH",
"514 20 OFFCURVE",
"484 33 OFFCURVE",
"457 59 CURVE SMOOTH",
"422 93 OFFCURVE",
"378 144 OFFCURVE",
"326 211 CURVE SMOOTH",
"293 253 OFFCURVE",
"273 278 OFFCURVE",
"266 287 CURVE",
"316 347 OFFCURVE",
"378 397 OFFCURVE",
"456 438 CURVE SMOOTH",
"475 449 OFFCURVE",
"503 454 OFFCURVE",
"541 454 CURVE",
"556 482 LINE",
"505 477 OFFCURVE",
"460 474 OFFCURVE",
"422 473 CURVE",
"391 475 OFFCURVE",
"364 477 OFFCURVE",
"341 479 CURVE SMOOTH",
"327 480 OFFCURVE",
"314 480 OFFCURVE",
"304 481 CURVE",
"285 455 LINE",
"294 456 OFFCURVE",
"303 458 OFFCURVE",
"311 458 CURVE SMOOTH",
"333 458 OFFCURVE",
"344 447 OFFCURVE",
"344 426 CURVE SMOOTH",
"344 408 OFFCURVE",
"296 361 OFFCURVE",
"206 292 CURVE",
"197 284 OFFCURVE",
"192 278 OFFCURVE",
"191 272 CURVE SMOOTH",
"191 267 OFFCURVE",
"194 260 OFFCURVE",
"200 253 CURVE SMOOTH",
"243 189 OFFCURVE",
"286 131 OFFCURVE",
"327 82 CURVE SMOOTH",
"356 47 OFFCURVE",
"384 21 OFFCURVE",
"409 8 CURVE SMOOTH",
"434 -4 OFFCURVE",
"470 -11 OFFCURVE",
"517 -12 CURVE SMOOTH",
"535 -12 OFFCURVE",
"551 -10 OFFCURVE",
"566 -7 CURVE"
);
},
{
closed = 1;
nodes = (
"296 24 LINE",
"273 21 OFFCURVE",
"250 22 OFFCURVE",
"226 30 CURVE SMOOTH",
"200 37 OFFCURVE",
"187 49 OFFCURVE",
"186 65 CURVE SMOOTH",
"182 97 OFFCURVE",
"184 167 OFFCURVE",
"191 275 CURVE SMOOTH",
"196 343 LINE SMOOTH",
"207 497 OFFCURVE",
"219 600 OFFCURVE",
"233 652 CURVE SMOOTH",
"233 653 OFFCURVE",
"233 656 OFFCURVE",
"233 657 CURVE SMOOTH",
"234 666 OFFCURVE",
"229 671 OFFCURVE",
"219 671 CURVE SMOOTH",
"215 671 OFFCURVE",
"205 670 OFFCURVE",
"193 667 CURVE SMOOTH",
"179 664 OFFCURVE",
"168 663 OFFCURVE",
"159 663 CURVE SMOOTH",
"151 663 OFFCURVE",
"143 664 OFFCURVE",
"136 664 CURVE SMOOTH",
"96 665 OFFCURVE",
"70 666 OFFCURVE",
"58 668 CURVE",
"43 639 LINE",
"82 649 OFFCURVE",
"111 647 OFFCURVE",
"128 631 CURVE SMOOTH",
"140 617 OFFCURVE",
"142 547 OFFCURVE",
"134 422 CURVE SMOOTH",
"123 276 LINE SMOOTH",
"113 146 OFFCURVE",
"107 85 OFFCURVE",
"101 65 CURVE SMOOTH",
"96 50 OFFCURVE",
"83 38 OFFCURVE",
"62 30 CURVE SMOOTH",
"46 23 OFFCURVE",
"28 20 OFFCURVE",
"7 20 CURVE SMOOTH",
"-2 20 OFFCURVE",
"-7 20 OFFCURVE",
"-11 22 CURVE",
"-25 -7 LINE",
"74 0 OFFCURVE",
"129 4 OFFCURVE",
"140 4 CURVE SMOOTH",
"225 2 OFFCURVE",
"267 -2 OFFCURVE",
"280 -8 CURVE"
);
}
);
width = 607;
}
);
leftKerningGroup = h;
note = k;
unicode = 006B;
},
{
glyphname = kgreenlandic;
lastChange = "2021-09-09 12:51:32 +0000";
layers = (
{
hints = (
{
horizontal = 1;
place = "{-8, 21}";
target = up;
type = BottomGhost;
},
{
horizontal = 1;
place = "{667, -20}";
target = down;
type = TopGhost;
},
{
place = "{140, 61}";
type = Stem;
}
);
layerId = "24D0D9E8-BA2F-4B13-8DB9-88CA40D3CAFC";
paths = (
{
closed = 1;
nodes = (
"614 24 LINE",
"597 21 OFFCURVE",
"585 20 OFFCURVE",
"577 20 CURVE SMOOTH",
"544 20 OFFCURVE",
"513 33 OFFCURVE",
"485 59 CURVE SMOOTH",
"448 93 OFFCURVE",
"400 144 OFFCURVE",
"343 211 CURVE SMOOTH",
"307 253 OFFCURVE",
"286 278 OFFCURVE",
"278 287 CURVE",
"323 347 OFFCURVE",
"382 397 OFFCURVE",
"457 438 CURVE SMOOTH",
"476 449 OFFCURVE",
"503 454 OFFCURVE",
"542 454 CURVE",
"555 482 LINE",
"504 477 OFFCURVE",
"459 474 OFFCURVE",
"421 473 CURVE",
"390 475 OFFCURVE",
"362 477 OFFCURVE",
"340 479 CURVE SMOOTH",
"325 480 OFFCURVE",
"312 480 OFFCURVE",
"302 481 CURVE",
"285 455 LINE",
"294 456 OFFCURVE",
"303 458 OFFCURVE",
"311 458 CURVE SMOOTH",
"333 458 OFFCURVE",
"344 447 OFFCURVE",
"346 426 CURVE SMOOTH",
"348 408 OFFCURVE",
"303 361 OFFCURVE",
"217 292 CURVE",
"209 284 OFFCURVE",
"204 278 OFFCURVE",
"204 272 CURVE SMOOTH",
"204 267 OFFCURVE",
"208 260 OFFCURVE",
"214 253 CURVE SMOOTH",
"261 189 OFFCURVE",
"309 131 OFFCURVE",
"353 82 CURVE SMOOTH",
"385 47 OFFCURVE",
"414 21 OFFCURVE",
"440 8 CURVE SMOOTH",
"466 -4 OFFCURVE",
"503 -11 OFFCURVE",
"550 -12 CURVE SMOOTH",
"568 -12 OFFCURVE",
"584 -10 OFFCURVE",
"599 -7 CURVE"
);
},
{
closed = 1;
nodes = (
"327 24 LINE",
"304 21 OFFCURVE",
"280 22 OFFCURVE",
"256 30 CURVE SMOOTH",
"230 37 OFFCURVE",
"216 49 OFFCURVE",
"213 65 CURVE SMOOTH",
"207 97 OFFCURVE",
"204 167 OFFCURVE",
"204 275 CURVE SMOOTH",
"204 350 LINE SMOOTH",
"204 415 OFFCURVE",
"209 434 OFFCURVE",
"219 472 CURVE SMOOTH",
"219 473 LINE SMOOTH",
"219 474 OFFCURVE",
"219 475 OFFCURVE",
"219 476 CURVE SMOOTH",
"219 484 OFFCURVE",
"214 488 OFFCURVE",
"204 488 CURVE SMOOTH",
"201 488 OFFCURVE",
"194 487 OFFCURVE",
"178 485 CURVE SMOOTH",
"165 483 OFFCURVE",
"154 482 OFFCURVE",
"145 482 CURVE SMOOTH",
"92 483 OFFCURVE",
"59 484 OFFCURVE",
"44 486 CURVE",
"29 462 LINE",
"68 470 OFFCURVE",
"98 468 OFFCURVE",
"117 457 CURVE",
"127 448 OFFCURVE",
"136 405 OFFCURVE",
"136 361 CURVE SMOOTH",
"136 276 LINE SMOOTH",
"135 146 OFFCURVE",
"133 85 OFFCURVE",
"128 65 CURVE SMOOTH",
"124 50 OFFCURVE",
"112 38 OFFCURVE",
"91 30 CURVE SMOOTH",
"76 23 OFFCURVE",
"59 20 OFFCURVE",
"38 20 CURVE SMOOTH",
"29 20 OFFCURVE",
"24 20 OFFCURVE",
"20 22 CURVE",
"8 -7 LINE",
"106 0 OFFCURVE",
"161 4 OFFCURVE",
"172 4 CURVE SMOOTH",
"257 2 OFFCURVE",
"299 -2 OFFCURVE",
"312 -8 CURVE"
);
}
);
width = 607;
}
);
unicode = 0138;
},
{
glyphname = l;
lastChange = "2021-09-09 12:54:47 +0000";
layers = (
{
hints = (
{
horizontal = 1;
place = "{-35, 21}";
target = up;
type = BottomGhost;
},
{
horizontal = 1;
place = "{635, -20}";
target = down;
type = TopGhost;
},
{
place = "{108, 29}";
type = Stem;
}
);
layerId = "24D0D9E8-BA2F-4B13-8DB9-88CA40D3CAFC";
paths = (
{
closed = 1;
nodes = (
"293 25 LINE",
"266 21 OFFCURVE",
"244 23 OFFCURVE",
"224 29 CURVE SMOOTH",
"199 36 OFFCURVE",
"187 47 OFFCURVE",
"185 63 CURVE SMOOTH",
"182 94 OFFCURVE",
"184 165 OFFCURVE",
"191 275 CURVE SMOOTH",
"196 343 LINE SMOOTH",
"207 497 OFFCURVE",
"219 600 OFFCURVE",
"233 652 CURVE SMOOTH",
"233 653 OFFCURVE",
"233 656 OFFCURVE",
"233 657 CURVE SMOOTH",
"234 666 OFFCURVE",
"229 671 OFFCURVE",
"219 671 CURVE SMOOTH",
"215 671 OFFCURVE",
"205 670 OFFCURVE",
"193 667 CURVE SMOOTH",
"179 664 OFFCURVE",
"168 663 OFFCURVE",
"159 663 CURVE SMOOTH",
"151 663 OFFCURVE",
"143 664 OFFCURVE",
"136 664 CURVE SMOOTH",
"96 665 OFFCURVE",
"70 666 OFFCURVE",
"58 668 CURVE",
"43 639 LINE",
"82 649 OFFCURVE",
"111 647 OFFCURVE",
"128 631 CURVE SMOOTH",
"140 617 OFFCURVE",
"142 547 OFFCURVE",
"134 422 CURVE SMOOTH",
"123 276 LINE SMOOTH",
"114 151 OFFCURVE",
"106 83 OFFCURVE",
"99 63 CURVE SMOOTH",
"90 34 OFFCURVE",
"62 20 OFFCURVE",
"10 20 CURVE SMOOTH",
"1 20 OFFCURVE",
"-6 20 OFFCURVE",
"-8 22 CURVE",
"-25 -8 LINE",
"74 0 OFFCURVE",
"129 4 OFFCURVE",
"140 4 CURVE SMOOTH",
"223 2 OFFCURVE",
"264 -2 OFFCURVE",
"277 -8 CURVE"
);
}
);
width = 306;
}
);
leftKerningGroup = h;
note = l;
unicode = 006C;
},
{
glyphname = m;
lastChange = "2021-09-09 12:54:47 +0000";
layers = (
{
hints = (
{
horizontal = 1;
place = "{-36, 21}";
target = up;
type = BottomGhost;
},
{
horizontal = 1;
place = "{416, 9}";
type = Stem;
},
{
place = "{133, 29}";
type = Stem;
},
{
place = "{401, 32}";
type = Stem;
},
{
place = "{673, 36}";
type = Stem;
}
);
layerId = "24D0D9E8-BA2F-4B13-8DB9-88CA40D3CAFC";
paths = (
{
closed = 1;
nodes = (
"874 17 LINE",
"870 23 LINE",
"866 22 OFFCURVE",
"858 21 OFFCURVE",
"847 21 CURVE SMOOTH",
"790 21 OFFCURVE",
"761 33 OFFCURVE",
"756 57 CURVE SMOOTH",
"752 78 OFFCURVE",
"753 111 OFFCURVE",
"756 158 CURVE SMOOTH",
"760 225 OFFCURVE",
"763 266 OFFCURVE",
"764 281 CURVE",
"756 281 LINE",
"756 280 OFFCURVE",
"765 295 OFFCURVE",
"767 328 CURVE SMOOTH",
"768 337 OFFCURVE",
"768 346 OFFCURVE",
"769 355 CURVE SMOOTH",
"770 371 OFFCURVE",
"770 387 OFFCURVE",
"772 401 CURVE SMOOTH",
"776 451 OFFCURVE",
"748 481 OFFCURVE",
"694 490 CURVE SMOOTH",
"685 492 OFFCURVE",
"674 493 OFFCURVE",
"664 493 CURVE SMOOTH",
"625 493 OFFCURVE",
"589 481 OFFCURVE",
"555 456 CURVE SMOOTH",
"540 444 OFFCURVE",
"520 431 OFFCURVE",
"498 418 CURVE",
"495 458 OFFCURVE",
"469 482 OFFCURVE",
"422 490 CURVE SMOOTH",
"413 492 OFFCURVE",
"402 493 OFFCURVE",
"392 493 CURVE SMOOTH",
"353 493 OFFCURVE",
"317 481 OFFCURVE",
"283 456 CURVE SMOOTH",
"264 441 OFFCURVE",
"246 429 OFFCURVE",
"228 419 CURVE",
"231 432 OFFCURVE",
"233 443 OFFCURVE",
"235 453 CURVE",
"236 456 OFFCURVE",
"237 458 OFFCURVE",
"237 461 CURVE",
"238 463 OFFCURVE",
"239 465 OFFCURVE",
"239 468 CURVE SMOOTH",
"239 478 OFFCURVE",
"234 483 OFFCURVE",
"223 483 CURVE SMOOTH",
"220 483 OFFCURVE",
"212 483 OFFCURVE",
"200 481 CURVE SMOOTH",
"189 479 OFFCURVE",
"180 479 OFFCURVE",
"173 479 CURVE SMOOTH",
"97 481 OFFCURVE",
"57 483 OFFCURVE",
"53 484 CURVE",
"36 454 LINE",
"49 460 OFFCURVE",
"70 460 OFFCURVE",
"96 459 CURVE SMOOTH",
"119 457 OFFCURVE",
"134 452 OFFCURVE",
"141 446 CURVE",
"153 432 OFFCURVE",
"155 378 OFFCURVE",
"148 276 CURVE SMOOTH",
"140 158 OFFCURVE",
"132 88 OFFCURVE",
"125 65 CURVE SMOOTH",
"120 50 OFFCURVE",
"107 38 OFFCURVE",
"86 30 CURVE SMOOTH",
"71 23 OFFCURVE",
"53 20 OFFCURVE",
"31 20 CURVE SMOOTH",
"24 20 OFFCURVE",
"18 20 OFFCURVE",
"15 22 CURVE",
"-2 -8 LINE",
"87 0 OFFCURVE",
"139 4 OFFCURVE",
"154 4 CURVE SMOOTH",
"200 5 OFFCURVE",
"237 1 OFFCURVE",
"266 -9 CURVE",
"288 25 LINE",
"238 24 OFFCURVE",
"213 36 OFFCURVE",
"210 63 CURVE SMOOTH",
"208 94 OFFCURVE",
"210 165 OFFCURVE",
"217 275 CURVE SMOOTH",
"222 341 LINE SMOOTH",
"223 357 OFFCURVE",
"224 367 OFFCURVE",
"224 374 CURVE",
"237 390 OFFCURVE",
"255 406 OFFCURVE",
"280 421 CURVE SMOOTH",
"304 434 OFFCURVE",
"323 441 OFFCURVE",
"337 443 CURVE SMOOTH",
"343 444 OFFCURVE",
"349 444 OFFCURVE",
"354 444 CURVE SMOOTH",
"404 444 OFFCURVE",
"426 396 OFFCURVE",
"418 298 CURVE SMOOTH",
"408 154 LINE",
"407 143 LINE SMOOTH",
"404 104 OFFCURVE",
"399 75 OFFCURVE",
"392 58 CURVE SMOOTH",
"389 48 OFFCURVE",
"382 40 OFFCURVE",
"371 33 CURVE SMOOTH",
"362 26 OFFCURVE",
"351 22 OFFCURVE",
"342 22 CURVE SMOOTH",
"338 22 OFFCURVE",
"337 22 OFFCURVE",
"334 25 CURVE",
"318 -6 LINE",
"387 3 OFFCURVE",
"460 3 OFFCURVE",
"537 -6 CURVE",
"548 18 LINE",
"545 23 LINE",
"543 23 OFFCURVE",
"541 23 OFFCURVE",
"539 22 CURVE",
"538 22 OFFCURVE",
"537 22 OFFCURVE",
"536 22 CURVE SMOOTH",
"524 22 OFFCURVE",
"513 25 OFFCURVE",
"503 31 CURVE SMOOTH",
"491 38 OFFCURVE",
"485 46 OFFCURVE",
"484 57 CURVE SMOOTH",
"483 98 OFFCURVE",
"482 133 OFFCURVE",
"484 158 CURVE SMOOTH",
"485 202 OFFCURVE",
"487 241 OFFCURVE",
"489 276 CURVE SMOOTH",
"489 278 OFFCURVE",
"490 292 OFFCURVE",
"492 313 CURVE SMOOTH",
"493 339 OFFCURVE",
"494 359 OFFCURVE",
"495 372 CURVE",
"510 387 OFFCURVE",
"529 403 OFFCURVE",
"555 419 CURVE SMOOTH",
"577 432 OFFCURVE",
"596 441 OFFCURVE",
"609 443 CURVE SMOOTH",
"615 444 OFFCURVE",
"621 444 OFFCURVE",
"626 444 CURVE SMOOTH",
"676 444 OFFCURVE",
"698 396 OFFCURVE",
"690 298 CURVE SMOOTH",
"679 154 LINE SMOOTH",
"676 107 OFFCURVE",
"670 75 OFFCURVE",
"663 58 CURVE SMOOTH",
"659 48 OFFCURVE",
"651 40 OFFCURVE",
"639 32 CURVE SMOOTH",
"629 26 OFFCURVE",
"617 22 OFFCURVE",
"605 22 CURVE SMOOTH",
"601 22 OFFCURVE",
"601 22 OFFCURVE",
"595 22 CURVE",
"579 -8 LINE",
"676 3 OFFCURVE",
"771 3 OFFCURVE",
"862 -6 CURVE"
);
}
);
width = 907;
}
);
leftKerningGroup = i;
note = m;
rightKerningGroup = a;
unicode = 006D;
},
{
glyphname = n;
lastChange = "2021-09-09 12:54:47 +0000";
layers = (
{
hints = (
{
horizontal = 1;
place = "{-35, -12}";
type = Stem;
},
{
horizontal = 1;
place = "{416, 9}";
type = Stem;
},
{
place = "{108, 29}";
type = Stem;
},
{
place = "{401, 37}";
type = Stem;
},
{
horizontal = 1;
place = "{-35, 21}";
target = up;
type = BottomGhost;
}
);
layerId = "24D0D9E8-BA2F-4B13-8DB9-88CA40D3CAFC";
paths = (
{
closed = 1;
nodes = (
"605 17 LINE",
"601 23 LINE",
"596 22 OFFCURVE",
"589 22 OFFCURVE",
"577 22 CURVE SMOOTH",
"518 22 OFFCURVE",
"489 34 OFFCURVE",
"485 57 CURVE",
"484 98 OFFCURVE",
"483 133 OFFCURVE",
"485 158 CURVE SMOOTH",
"486 202 OFFCURVE",
"488 241 OFFCURVE",
"490 276 CURVE SMOOTH",
"490 285 OFFCURVE",
"491 302 OFFCURVE",
"493 325 CURVE SMOOTH",
"494 354 OFFCURVE",
"496 380 OFFCURVE",
"497 401 CURVE SMOOTH",
"502 451 OFFCURVE",
"473 481 OFFCURVE",
"415 490 CURVE SMOOTH",
"405 492 OFFCURVE",
"393 493 OFFCURVE",
"382 493 CURVE SMOOTH",
"338 493 OFFCURVE",
"300 481 OFFCURVE",
"265 456 CURVE SMOOTH",
"247 444 OFFCURVE",
"227 433 OFFCURVE",
"203 419 CURVE",
"206 436 OFFCURVE",
"209 450 OFFCURVE",
"212 462 CURVE",
"212 464 OFFCURVE",
"213 466 OFFCURVE",
"213 468 CURVE SMOOTH",
"213 478 OFFCURVE",
"208 483 OFFCURVE",
"198 483 CURVE SMOOTH",
"195 483 OFFCURVE",
"186 483 OFFCURVE",
"175 481 CURVE SMOOTH",
"163 479 OFFCURVE",
"155 479 OFFCURVE",
"147 479 CURVE SMOOTH",
"72 481 OFFCURVE",
"32 483 OFFCURVE",
"28 484 CURVE",
"11 454 LINE",
"25 460 OFFCURVE",
"44 460 OFFCURVE",
"70 459 CURVE SMOOTH",
"93 457 OFFCURVE",
"109 452 OFFCURVE",
"115 446 CURVE SMOOTH",
"127 432 OFFCURVE",
"130 375 OFFCURVE",
"123 276 CURVE SMOOTH",
"114 153 OFFCURVE",
"106 85 OFFCURVE",
"99 63 CURVE SMOOTH",
"90 35 OFFCURVE",
"54 21 OFFCURVE",
"-10 21 CURVE",
"-25 -7 LINE",
"74 0 OFFCURVE",
"129 4 OFFCURVE",
"140 4 CURVE SMOOTH",
"196 3 OFFCURVE",
"231 -1 OFFCURVE",
"246 -7 CURVE",
"262 23 LINE",
"212 22 OFFCURVE",
"188 35 OFFCURVE",
"185 63 CURVE SMOOTH",
"182 94 OFFCURVE",
"184 165 OFFCURVE",
"191 275 CURVE SMOOTH",
"198 374 LINE",
"211 390 OFFCURVE",
"232 406 OFFCURVE",
"260 420 CURVE SMOOTH",
"288 434 OFFCURVE",
"309 441 OFFCURVE",
"326 443 CURVE SMOOTH",
"332 444 OFFCURVE",
"339 444 OFFCURVE",
"345 444 CURVE SMOOTH",
"401 444 OFFCURVE",
"426 396 OFFCURVE",
"418 298 CURVE SMOOTH",
"408 154 LINE",
"407 143 LINE SMOOTH",
"404 102 OFFCURVE",
"399 74 OFFCURVE",
"391 58 CURVE SMOOTH",
"387 48 OFFCURVE",
"379 40 OFFCURVE",
"368 33 CURVE SMOOTH",
"357 26 OFFCURVE",
"345 22 OFFCURVE",
"335 22 CURVE SMOOTH",
"329 22 OFFCURVE",
"329 22 OFFCURVE",
"327 25 CURVE",
"308 -8 LINE",
"362 -1 OFFCURVE",
"409 1 OFFCURVE",
"447 2 CURVE SMOOTH",
"492 2 OFFCURVE",
"540 -1 OFFCURVE",
"591 -6 CURVE"
);
}
);
width = 640;
}
);
leftKerningGroup = i;
note = n;
rightKerningGroup = n;
unicode = 006E;
},
{
color = 3;
glyphname = eng;
lastChange = "2021-09-09 13:01:43 +0000";
layers = (
{
hints = (
{
horizontal = 1;
place = "{-35, -12}";
type = Stem;
},
{
horizontal = 1;
place = "{416, 9}";
type = Stem;
},
{
place = "{108, 29}";
type = Stem;
},
{
place = "{401, 37}";
type = Stem;
},
{
horizontal = 1;
place = "{-35, 21}";
target = up;
type = BottomGhost;
},
{
horizontal = 1;
place = "{-379, 21}";
target = up;
type = BottomGhost;
},
{
horizontal = 1;
place = "{451, -20}";
target = down;
type = TopGhost;
},
{
place = "{1415, 33}";
type = Stem;
}
);
layerId = "24D0D9E8-BA2F-4B13-8DB9-88CA40D3CAFC";
paths = (
{
closed = 1;
nodes = (
"412 212 OFFCURVE",
"408 136 OFFCURVE",
"405 66 CURVE SMOOTH",
"400 -33 OFFCURVE",
"395 -117 OFFCURVE",
"387 -189 CURVE SMOOTH",
"377 -274 OFFCURVE",
"337 -320 OFFCURVE",
"272 -320 CURVE SMOOTH",
"240 -320 OFFCURVE",
"222 -303 OFFCURVE",
"216 -267 CURVE SMOOTH",
"212 -240 OFFCURVE",
"220 -188 OFFCURVE",
"228 -161 CURVE",
"198 -155 LINE",
"185 -241 OFFCURVE",
"164 -313 OFFCURVE",
"155 -313 CURVE",
"151 -318 LINE",
"152 -324 LINE",
"214 -351 OFFCURVE",
"268 -354 OFFCURVE",
"324 -354 CURVE SMOOTH",
"404 -354 OFFCURVE",
"454 -278 OFFCURVE",
"462 -145 CURVE SMOOTH",
"462 -144 OFFCURVE",
"476 70 OFFCURVE",
"490 276 CURVE SMOOTH",
"493 325 LINE SMOOTH",
"494 354 OFFCURVE",
"496 380 OFFCURVE",
"497 401 CURVE SMOOTH",
"502 451 OFFCURVE",
"473 481 OFFCURVE",
"415 490 CURVE SMOOTH",
"405 492 OFFCURVE",
"393 493 OFFCURVE",
"382 493 CURVE SMOOTH",
"338 493 OFFCURVE",
"300 481 OFFCURVE",
"265 456 CURVE SMOOTH",
"247 444 OFFCURVE",
"227 433 OFFCURVE",
"203 419 CURVE",
"206 436 OFFCURVE",
"209 450 OFFCURVE",
"212 462 CURVE",
"212 464 OFFCURVE",
"213 466 OFFCURVE",
"213 468 CURVE SMOOTH",
"213 478 OFFCURVE",
"208 483 OFFCURVE",
"198 483 CURVE SMOOTH",
"195 483 OFFCURVE",
"186 483 OFFCURVE",
"175 481 CURVE SMOOTH",
"163 479 OFFCURVE",
"155 479 OFFCURVE",
"147 479 CURVE SMOOTH",
"72 481 OFFCURVE",
"32 483 OFFCURVE",
"28 484 CURVE",
"11 454 LINE",
"25 460 OFFCURVE",
"44 460 OFFCURVE",
"70 459 CURVE SMOOTH",
"93 457 OFFCURVE",
"109 452 OFFCURVE",
"115 446 CURVE SMOOTH",
"127 432 OFFCURVE",
"130 375 OFFCURVE",
"123 276 CURVE SMOOTH",
"114 153 OFFCURVE",
"106 85 OFFCURVE",
"99 63 CURVE SMOOTH",
"90 35 OFFCURVE",
"54 21 OFFCURVE",
"-10 21 CURVE",
"-25 -7 LINE",
"74 0 OFFCURVE",
"129 4 OFFCURVE",
"140 4 CURVE SMOOTH",
"196 3 OFFCURVE",
"231 -1 OFFCURVE",
"246 -7 CURVE",
"262 23 LINE",
"212 22 OFFCURVE",
"188 35 OFFCURVE",
"185 63 CURVE SMOOTH",
"182 94 OFFCURVE",
"184 165 OFFCURVE",
"191 275 CURVE SMOOTH",
"198 374 LINE",
"211 390 OFFCURVE",
"232 406 OFFCURVE",
"260 420 CURVE SMOOTH",
"288 434 OFFCURVE",
"309 441 OFFCURVE",
"326 443 CURVE SMOOTH",
"332 444 OFFCURVE",
"339 444 OFFCURVE",
"345 444 CURVE SMOOTH",
"401 444 OFFCURVE",
"426 396 OFFCURVE",
"418 298 CURVE SMOOTH"
);
}
);
width = 588;
}
);
unicode = 014B;
},
{
glyphname = o;
lastChange = "2021-09-09 12:54:47 +0000";
layers = (
{
hints = (
{
horizontal = 1;
place = "{-43, 13}";
type = Stem;
},
{
horizontal = 1;
place = "{408, 17}";
type = Stem;
},
{
place = "{-15, 34}";
type = Stem;
},
{
place = "{351, 29}";
type = Stem;
}
);
layerId = "24D0D9E8-BA2F-4B13-8DB9-88CA40D3CAFC";
paths = (
{
closed = 1;
nodes = (
"230 -15 OFFCURVE",
"265 -4 OFFCURVE",
"290 17 CURVE SMOOTH",
"323 44 OFFCURVE",
"348 65 OFFCURVE",
"365 78 CURVE",
"405 116 OFFCURVE",
"428 170 OFFCURVE",
"433 243 CURVE SMOOTH",
"438 316 OFFCURVE",
"424 374 OFFCURVE",
"392 418 CURVE SMOOTH",
"357 468 OFFCURVE",
"306 493 OFFCURVE",
"237 493 CURVE SMOOTH",
"200 493 OFFCURVE",
"172 485 OFFCURVE",
"151 468 CURVE SMOOTH",
"102 429 OFFCURVE",
"75 407 OFFCURVE",
"69 402 CURVE SMOOTH",
"27 361 OFFCURVE",
"2 301 OFFCURVE",
"-3 223 CURVE SMOOTH",
"-8 156 OFFCURVE",
"5 101 OFFCURVE",
"35 58 CURVE SMOOTH",
"68 10 OFFCURVE",
"118 -15 OFFCURVE",
"182 -15 CURVE SMOOTH"
);
},
{
closed = 1;
nodes = (
"238 436 OFFCURVE",
"265 425 OFFCURVE",
"291 404 CURVE SMOOTH",
"314 385 OFFCURVE",
"331 362 OFFCURVE",
"344 332 CURVE SMOOTH",
"359 292 OFFCURVE",
"365 252 OFFCURVE",
"362 211 CURVE SMOOTH",
"359 166 OFFCURVE",
"345 127 OFFCURVE",
"321 94 CURVE SMOOTH",
"294 56 OFFCURVE",
"259 38 OFFCURVE",
"216 38 CURVE SMOOTH",
"166 38 OFFCURVE",
"128 62 OFFCURVE",
"100 112 CURVE SMOOTH",
"78 155 OFFCURVE",
"69 204 OFFCURVE",
"73 258 CURVE SMOOTH",
"76 304 OFFCURVE",
"89 344 OFFCURVE",
"110 376 CURVE SMOOTH",
"135 416 OFFCURVE",
"168 436 OFFCURVE",
"209 436 CURVE SMOOTH"
);
}
);
width = 467;
}
);
leftKerningGroup = o;
note = o;
rightKerningGroup = o;
unicode = 006F;
},
{
glyphname = oslash;
lastChange = "2021-09-09 12:51:32 +0000";
layers = (
{
hints = (
{
horizontal = 1;
place = "{-11, 46}";
type = Stem;
},
{
horizontal = 1;
place = "{438, 51}";
type = Stem;
},
{
place = "{17, 67}";
type = Stem;
},
{
place = "{378, 66}";
type = Stem;
}
);
layerId = "24D0D9E8-BA2F-4B13-8DB9-88CA40D3CAFC";
paths = (
{
closed = 1;
nodes = (
"429 116 OFFCURVE",
"448 170 OFFCURVE",
"448 243 CURVE SMOOTH",
"448 330 OFFCURVE",
"422 397 OFFCURVE",
"371 445 CURVE",
"392 480 LINE",
"337 480 LINE",
"332 472 LINE",
"307 486 OFFCURVE",
"279 492 OFFCURVE",
"249 492 CURVE SMOOTH",
"200 492 OFFCURVE",
"168 485 OFFCURVE",
"150 468 CURVE SMOOTH",
"135 455 OFFCURVE",
"122 444 OFFCURVE",
"110 434 CURVE SMOOTH",
"96 421 OFFCURVE",
"83 410 OFFCURVE",
"73 402 CURVE",
"33 361 OFFCURVE",
"13 302 OFFCURVE",
"13 223 CURVE SMOOTH",
"13 142 OFFCURVE",
"36 79 OFFCURVE",
"82 36 CURVE",
"58 -6 LINE",
"107 -5 LINE",
"116 10 LINE",
"145 -6 OFFCURVE",
"177 -15 OFFCURVE",
"215 -15 CURVE SMOOTH",
"265 -15 OFFCURVE",
"299 -4 OFFCURVE",
"321 17 CURVE SMOOTH",
"352 46 OFFCURVE",
"375 66 OFFCURVE",
"392 78 CURVE"
);
},
{
closed = 1;
nodes = (
"357 80 OFFCURVE",
"320 39 OFFCURVE",
"257 39 CURVE SMOOTH",
"243 39 OFFCURVE",
"228 42 OFFCURVE",
"209 48 CURVE SMOOTH",
"188 55 OFFCURVE",
"170 65 OFFCURVE",
"156 78 CURVE",
"329 372 LINE",
"359 334 OFFCURVE",
"374 282 OFFCURVE",
"374 218 CURVE SMOOTH",
"374 200 OFFCURVE",
"373 182 OFFCURVE",
"370 164 CURVE SMOOTH"
);
},
{
closed = 1;
nodes = (
"126 112 LINE",
"100 150 OFFCURVE",
"88 198 OFFCURVE",
"88 255 CURVE SMOOTH",
"88 273 OFFCURVE",
"89 291 OFFCURVE",
"92 307 CURVE SMOOTH",
"104 392 OFFCURVE",
"141 434 OFFCURVE",
"203 434 CURVE SMOOTH",
"217 434 OFFCURVE",
"230 431 OFFCURVE",
"246 427 CURVE SMOOTH",
"261 423 OFFCURVE",
"277 416 OFFCURVE",
"294 405 CURVE"
);
}
);
width = 467;
}
);
note = oslash;
unicode = 00F8;
},
{
glyphname = oe;
lastChange = "2021-09-09 12:51:32 +0000";
layers = (
{
hints = (
{
horizontal = 1;
place = "{-11, 41}";
type = Stem;
},
{
horizontal = 1;
place = "{266, 32}";
type = Stem;
},
{
horizontal = 1;
place = "{452, 29}";
type = Stem;
},
{
horizontal = 1;
place = "{488, -20}";
target = down;
type = TopGhost;
},
{
place = "{17, 67}";
type = Stem;
},
{
place = "{378, 68}";
type = Stem;
},
{
place = "{709, 63}";
type = Stem;
},
{
horizontal = 1;
place = "{438, 44}";
type = Stem;
}
);
layerId = "24D0D9E8-BA2F-4B13-8DB9-88CA40D3CAFC";
paths = (
{
closed = 1;
nodes = (
"777 64 OFFCURVE",
"777 73 OFFCURVE",
"775 84 CURVE SMOOTH",
"774 92 OFFCURVE",
"774 98 OFFCURVE",
"774 102 CURVE SMOOTH",
"773 106 OFFCURVE",
"773 108 OFFCURVE",
"773 109 CURVE SMOOTH",
"773 121 OFFCURVE",
"774 145 OFFCURVE",
"776 182 CURVE",
"747 168 LINE",
"747 164 OFFCURVE",
"747 160 OFFCURVE",
"746 153 CURVE SMOOTH",
"731 72 OFFCURVE",
"679 32 OFFCURVE",
"587 34 CURVE SMOOTH",
"528 36 OFFCURVE",
"489 60 OFFCURVE",
"470 105 CURVE SMOOTH",
"457 134 OFFCURVE",
"451 184 OFFCURVE",
"451 257 CURVE",
"489 260 OFFCURVE",
"531 262 OFFCURVE",
"576 262 CURVE SMOOTH",
"579 262 OFFCURVE",
"586 262 OFFCURVE",
"597 263 CURVE SMOOTH",
"609 263 OFFCURVE",
"626 263 OFFCURVE",
"649 264 CURVE SMOOTH",
"672 265 OFFCURVE",
"694 264 OFFCURVE",
"714 262 CURVE",
"721 260 OFFCURVE",
"733 275 OFFCURVE",
"747 296 CURVE SMOOTH",
"756 307 OFFCURVE",
"762 316 OFFCURVE",
"767 322 CURVE SMOOTH",
"776 334 OFFCURVE",
"759 342 OFFCURVE",
"776 326 CURVE",
"778 377 OFFCURVE",
"763 416 OFFCURVE",
"733 443 CURVE SMOOTH",
"703 471 OFFCURVE",
"659 485 OFFCURVE",
"599 485 CURVE SMOOTH",
"506 485 OFFCURVE",
"442 457 OFFCURVE",
"407 401 CURVE",
"370 462 OFFCURVE",
"318 492 OFFCURVE",
"249 492 CURVE SMOOTH",
"200 492 OFFCURVE",
"168 485 OFFCURVE",
"150 468 CURVE SMOOTH",
"135 455 OFFCURVE",
"122 444 OFFCURVE",
"110 434 CURVE SMOOTH",
"96 421 OFFCURVE",
"83 410 OFFCURVE",
"73 402 CURVE",
"33 361 OFFCURVE",
"13 302 OFFCURVE",
"13 223 CURVE SMOOTH",
"13 159 OFFCURVE",
"29 104 OFFCURVE",
"61 61 CURVE SMOOTH",
"96 11 OFFCURVE",
"148 -15 OFFCURVE",
"215 -15 CURVE SMOOTH",
"265 -15 OFFCURVE",
"299 -4 OFFCURVE",
"321 17 CURVE SMOOTH",
"328 24 OFFCURVE",
"341 35 OFFCURVE",
"360 51 CURVE SMOOTH",
"376 63 OFFCURVE",
"387 74 OFFCURVE",
"396 83 CURVE",
"424 25 OFFCURVE",
"480 -4 OFFCURVE",
"563 -4 CURVE SMOOTH",
"667 -4 OFFCURVE",
"734 9 OFFCURVE",
"763 37 CURVE SMOOTH",
"770 45 OFFCURVE",
"775 52 OFFCURVE",
"776 59 CURVE SMOOTH"
);
},
{
closed = 1;
nodes = (
"703 356 OFFCURVE",
"705 346 OFFCURVE",
"705 337 CURVE SMOOTH",
"705 320 OFFCURVE",
"699 312 OFFCURVE",
"688 310 CURVE SMOOTH",
"664 306 OFFCURVE",
"624 303 OFFCURVE",
"570 302 CURVE SMOOTH",
"512 300 OFFCURVE",
"474 302 OFFCURVE",
"453 305 CURVE",
"453 318 OFFCURVE",
"454 327 OFFCURVE",
"455 330 CURVE",
"466 410 OFFCURVE",
"510 449 OFFCURVE",
"589 448 CURVE SMOOTH",
"647 447 OFFCURVE",
"683 421 OFFCURVE",
"699 369 CURVE SMOOTH"
);
},
{
closed = 1;
nodes = (
"357 80 OFFCURVE",
"320 39 OFFCURVE",
"257 39 CURVE SMOOTH",
"243 39 OFFCURVE",
"228 42 OFFCURVE",
"209 48 CURVE SMOOTH",
"170 60 OFFCURVE",
"138 87 OFFCURVE",
"117 127 CURVE SMOOTH",
"98 164 OFFCURVE",
"88 206 OFFCURVE",
"88 255 CURVE SMOOTH",
"88 273 OFFCURVE",
"89 291 OFFCURVE",
"92 307 CURVE SMOOTH",
"104 392 OFFCURVE",
"141 434 OFFCURVE",
"203 434 CURVE SMOOTH",
"217 434 OFFCURVE",
"230 431 OFFCURVE",
"246 427 CURVE SMOOTH",
"289 416 OFFCURVE",
"321 389 OFFCURVE",
"344 349 CURVE SMOOTH",
"364 313 OFFCURVE",
"374 271 OFFCURVE",
"374 218 CURVE SMOOTH",
"374 200 OFFCURVE",
"373 182 OFFCURVE",
"370 164 CURVE SMOOTH"
);
}
);
width = 799;
}
);
leftKerningGroup = o;
note = oe;
unicode = 0153;
},
{
glyphname = p;
lastChange = "2021-09-09 12:54:47 +0000";
layers = (
{
hints = (
{
horizontal = 1;
place = "{-224, 181}";
type = Stem;
},
{
horizontal = 1;
place = "{402, 5}";
type = Stem;
},
{
horizontal = 1;
place = "{448, -20}";
target = down;
type = TopGhost;
},
{
place = "{108, 35}";
type = Stem;
},
{
place = "{434, 38}";
type = Stem;
},
{
horizontal = 1;
place = "{-224, 21}";
target = up;
type = BottomGhost;
},
{
horizontal = 1;
place = "{-40, -3}";
type = Stem;
}
);
layerId = "24D0D9E8-BA2F-4B13-8DB9-88CA40D3CAFC";
paths = (
{
closed = 1;
nodes = (
"531 327 OFFCURVE",
"525 379 OFFCURVE",
"507 412 CURVE SMOOTH",
"485 454 OFFCURVE",
"444 475 OFFCURVE",
"384 475 CURVE SMOOTH",
"373 475 OFFCURVE",
"361 475 OFFCURVE",
"349 473 CURVE SMOOTH",
"279 465 OFFCURVE",
"230 440 OFFCURVE",
"198 397 CURVE",
"206 395 LINE",
"207 400 OFFCURVE",
"207 405 OFFCURVE",
"208 410 CURVE SMOOTH",
"212 431 OFFCURVE",
"215 450 OFFCURVE",
"219 465 CURVE SMOOTH",
"220 467 OFFCURVE",
"220 468 OFFCURVE",
"220 470 CURVE SMOOTH",
"221 479 OFFCURVE",
"216 484 OFFCURVE",
"206 484 CURVE SMOOTH",
"202 484 OFFCURVE",
"192 483 OFFCURVE",
"180 480 CURVE SMOOTH",
"165 477 OFFCURVE",
"155 476 OFFCURVE",
"147 477 CURVE",
"94 478 OFFCURVE",
"60 480 OFFCURVE",
"45 481 CURVE",
"29 452 LINE",
"72 463 OFFCURVE",
"99 459 OFFCURVE",
"115 444 CURVE SMOOTH",
"127 430 OFFCURVE",
"129 360 OFFCURVE",
"120 235 CURVE SMOOTH",
"110 89 LINE SMOOTH",
"101 -32 OFFCURVE",
"93 -100 OFFCURVE",
"86 -124 CURVE SMOOTH",
"81 -139 OFFCURVE",
"68 -152 OFFCURVE",
"47 -159 CURVE SMOOTH",
"32 -166 OFFCURVE",
"14 -169 OFFCURVE",
"-8 -169 CURVE SMOOTH",
"-16 -169 OFFCURVE",
"-21 -169 OFFCURVE",
"-25 -167 CURVE",
"-41 -197 LINE",
"52 -189 OFFCURVE",
"109 -185 OFFCURVE",
"127 -185 CURVE SMOOTH",
"192 -184 OFFCURVE",
"239 -188 OFFCURVE",
"267 -197 CURVE",
"284 -166 LINE",
"261 -169 OFFCURVE",
"237 -168 OFFCURVE",
"213 -160 CURVE SMOOTH",
"187 -153 OFFCURVE",
"174 -141 OFFCURVE",
"172 -124 CURVE SMOOTH",
"170 -97 OFFCURVE",
"169 -69 OFFCURVE",
"170 -39 CURVE SMOOTH",
"176 49 LINE",
"169 47 LINE",
"192 7 OFFCURVE",
"235 -12 OFFCURVE",
"296 -12 CURVE SMOOTH",
"437 -12 OFFCURVE",
"514 78 OFFCURVE",
"526 256 CURVE SMOOTH"
);
},
{
closed = 1;
nodes = (
"446 324 OFFCURVE",
"449 277 OFFCURVE",
"445 219 CURVE SMOOTH",
"441 164 OFFCURVE",
"430 122 OFFCURVE",
"412 95 CURVE SMOOTH",
"382 48 OFFCURVE",
"342 25 OFFCURVE",
"291 25 CURVE SMOOTH",
"243 25 OFFCURVE",
"211 49 OFFCURVE",
"195 97 CURVE SMOOTH",
"183 133 OFFCURVE",
"180 178 OFFCURVE",
"184 236 CURVE SMOOTH",
"187 291 OFFCURVE",
"198 332 OFFCURVE",
"216 360 CURVE SMOOTH",
"246 407 OFFCURVE",
"287 430 OFFCURVE",
"337 430 CURVE SMOOTH",
"385 430 OFFCURVE",
"417 407 OFFCURVE",
"434 357 CURVE SMOOTH"
);
}
);
width = 589;
}
);
leftKerningGroup = j;
note = p;
rightKerningGroup = b;
unicode = 0070;
},
{
glyphname = thorn;
lastChange = "2021-09-09 12:51:32 +0000";
layers = (
{
hints = (
{
horizontal = 1;
place = "{-189, 210}";
type = Stem;
},
{
horizontal = 1;
place = "{434, 37}";
type = Stem;
},
{
horizontal = 1;
place = "{670, -20}";
target = down;
type = TopGhost;
},
{
place = "{119, 87}";
type = Stem;
},
{
place = "{466, 70}";
type = Stem;
},
{
place = "{133, 73}";
type = Stem;
},
{
horizontal = 1;
place = "{-8, 29}";
type = Stem;
}
);
layerId = "24D0D9E8-BA2F-4B13-8DB9-88CA40D3CAFC";
paths = (
{
closed = 1;
nodes = (
"540 327 OFFCURVE",
"531 379 OFFCURVE",
"510 412 CURVE SMOOTH",
"486 454 OFFCURVE",
"443 475 OFFCURVE",
"383 475 CURVE SMOOTH",
"372 475 OFFCURVE",
"360 475 OFFCURVE",
"347 473 CURVE SMOOTH",
"278 465 OFFCURVE",
"231 440 OFFCURVE",
"203 397 CURVE",
"210 395 LINE",
"210 420 OFFCURVE",
"211 444 OFFCURVE",
"211 467 CURVE SMOOTH",
"211 492 OFFCURVE",
"211 516 OFFCURVE",
"212 539 CURVE SMOOTH",
"212 587 OFFCURVE",
"213 617 OFFCURVE",
"214 626 CURVE SMOOTH",
"215 631 OFFCURVE",
"216 635 OFFCURVE",
"216 640 CURVE SMOOTH",
"217 645 OFFCURVE",
"218 649 OFFCURVE",
"219 655 CURVE SMOOTH",
"219 656 OFFCURVE",
"219 659 OFFCURVE",
"219 660 CURVE SMOOTH",
"219 669 OFFCURVE",
"214 674 OFFCURVE",
"204 674 CURVE SMOOTH",
"200 674 OFFCURVE",
"190 673 OFFCURVE",
"178 670 CURVE SMOOTH",
"164 667 OFFCURVE",
"154 666 OFFCURVE",
"145 666 CURVE SMOOTH",
"92 668 OFFCURVE",
"58 670 OFFCURVE",
"44 671 CURVE",
"30 642 LINE",
"68 652 OFFCURVE",
"96 650 OFFCURVE",
"115 635 CURVE",
"122 551 OFFCURVE",
"127 468 OFFCURVE",
"129 388 CURVE",
"134 349 OFFCURVE",
"136 298 OFFCURVE",
"136 235 CURVE SMOOTH",
"136 89 LINE SMOOTH",
"135 -32 OFFCURVE",
"132 -100 OFFCURVE",
"126 -124 CURVE SMOOTH",
"123 -139 OFFCURVE",
"111 -152 OFFCURVE",
"91 -159 CURVE SMOOTH",
"75 -166 OFFCURVE",
"57 -169 OFFCURVE",
"36 -169 CURVE SMOOTH",
"28 -169 OFFCURVE",
"23 -169 OFFCURVE",
"19 -167 CURVE",
"8 -193 LINE",
"47 -191 OFFCURVE",
"79 -189 OFFCURVE",
"104 -187 CURVE SMOOTH",
"143 -185 OFFCURVE",
"165 -183 OFFCURVE",
"172 -183 CURVE SMOOTH",
"251 -185 OFFCURVE",
"294 -189 OFFCURVE",
"309 -194 CURVE",
"326 -168 LINE",
"305 -171 OFFCURVE",
"282 -170 OFFCURVE",
"254 -161 CURVE SMOOTH",
"229 -152 OFFCURVE",
"216 -140 OFFCURVE",
"213 -124 CURVE SMOOTH",
"210 -106 OFFCURVE",
"207 -73 OFFCURVE",
"206 -21 CURVE SMOOTH",
"205 0 OFFCURVE",
"205 24 OFFCURVE",
"205 49 CURVE",
"198 47 LINE",
"224 7 OFFCURVE",
"268 -12 OFFCURVE",
"329 -12 CURVE SMOOTH",
"469 -12 OFFCURVE",
"540 78 OFFCURVE",
"540 256 CURVE SMOOTH"
);
},
{
closed = 1;
nodes = (
"455 324 OFFCURVE",
"462 277 OFFCURVE",
"462 219 CURVE SMOOTH",
"462 164 OFFCURVE",
"454 122 OFFCURVE",
"438 95 CURVE SMOOTH",
"411 48 OFFCURVE",
"372 25 OFFCURVE",
"321 25 CURVE SMOOTH",
"273 25 OFFCURVE",
"239 49 OFFCURVE",
"220 97 CURVE SMOOTH",
"206 133 OFFCURVE",
"199 178 OFFCURVE",
"199 236 CURVE SMOOTH",
"199 291 OFFCURVE",
"207 332 OFFCURVE",
"222 360 CURVE SMOOTH",
"250 407 OFFCURVE",
"289 430 OFFCURVE",
"339 430 CURVE SMOOTH",
"387 430 OFFCURVE",
"421 407 OFFCURVE",
"441 357 CURVE SMOOTH"
);
}
);
width = 628;
}
);
leftKerningGroup = bracketleft;
note = thorn;
rightKerningGroup = b;
unicode = 00FE;
},
{
glyphname = q;
lastChange = "2021-09-09 12:54:47 +0000";
layers = (
{
hints = (
{
horizontal = 1;
place = "{-33, 1}";
type = Stem;
},
{
horizontal = 1;
place = "{449, -20}";
target = down;
type = TopGhost;
},
{
place = "{7, 37}";
type = Stem;
},
{
place = "{347, 29}";
type = Stem;
},
{
horizontal = 1;
place = "{-224, 192}";
type = Stem;
},
{
horizontal = 1;
place = "{414, -1}";
type = Stem;
}
);
layerId = "24D0D9E8-BA2F-4B13-8DB9-88CA40D3CAFC";
paths = (
{
closed = 1;
nodes = (
"524 -166 LINE",
"500 -169 OFFCURVE",
"477 -168 OFFCURVE",
"453 -160 CURVE SMOOTH",
"427 -153 OFFCURVE",
"414 -141 OFFCURVE",
"411 -124 CURVE SMOOTH",
"409 -94 OFFCURVE",
"411 -22 OFFCURVE",
"418 89 CURVE SMOOTH",
"428 235 LINE SMOOTH",
"437 363 OFFCURVE",
"449 430 OFFCURVE",
"462 444 CURVE",
"480 458 OFFCURVE",
"507 461 OFFCURVE",
"543 452 CURVE",
"559 480 LINE",
"516 479 OFFCURVE",
"481 479 OFFCURVE",
"453 480 CURVE",
"445 479 OFFCURVE",
"435 480 OFFCURVE",
"419 482 CURVE SMOOTH",
"403 484 OFFCURVE",
"392 485 OFFCURVE",
"387 485 CURVE SMOOTH",
"371 485 OFFCURVE",
"362 480 OFFCURVE",
"361 469 CURVE SMOOTH",
"361 468 OFFCURVE",
"361 467 OFFCURVE",
"361 466 CURVE",
"362 464 OFFCURVE",
"361 464 OFFCURVE",
"362 465 CURVE SMOOTH",
"362 458 OFFCURVE",
"363 452 OFFCURVE",
"363 444 CURVE",
"334 469 OFFCURVE",
"295 482 OFFCURVE",
"248 482 CURVE SMOOTH",
"167 482 OFFCURVE",
"107 456 OFFCURVE",
"71 402 CURVE SMOOTH",
"41 360 OFFCURVE",
"24 297 OFFCURVE",
"18 214 CURVE SMOOTH",
"13 147 OFFCURVE",
"23 95 OFFCURVE",
"47 58 CURVE SMOOTH",
"72 16 OFFCURVE",
"112 -5 OFFCURVE",
"169 -5 CURVE SMOOTH",
"177 -5 OFFCURVE",
"186 -4 OFFCURVE",
"196 -3 CURVE SMOOTH",
"268 5 OFFCURVE",
"320 34 OFFCURVE",
"351 81 CURVE",
"358 96 LINE",
"350 97 LINE",
"349 89 LINE SMOOTH",
"341 -28 OFFCURVE",
"333 -99 OFFCURVE",
"326 -124 CURVE SMOOTH",
"321 -140 OFFCURVE",
"308 -152 OFFCURVE",
"287 -159 CURVE SMOOTH",
"271 -166 OFFCURVE",
"253 -169 OFFCURVE",
"231 -169 CURVE SMOOTH",
"224 -169 OFFCURVE",
"219 -169 OFFCURVE",
"213 -167 CURVE",
"198 -197 LINE",
"289 -189 OFFCURVE",
"345 -185 OFFCURVE",
"365 -185 CURVE SMOOTH",
"430 -184 OFFCURVE",
"478 -188 OFFCURVE",
"505 -197 CURVE"
);
},
{
closed = 1;
nodes = (
"359 223 LINE SMOOTH",
"356 176 OFFCURVE",
"345 137 OFFCURVE",
"326 107 CURVE SMOOTH",
"296 60 OFFCURVE",
"256 37 OFFCURVE",
"205 37 CURVE SMOOTH",
"157 37 OFFCURVE",
"125 61 OFFCURVE",
"108 109 CURVE SMOOTH",
"97 143 OFFCURVE",
"93 190 OFFCURVE",
"97 248 CURVE SMOOTH",
"101 302 OFFCURVE",
"112 343 OFFCURVE",
"130 372 CURVE SMOOTH",
"160 419 OFFCURVE",
"201 442 OFFCURVE",
"251 442 CURVE SMOOTH",
"299 442 OFFCURVE",
"331 419 OFFCURVE",
"348 370 CURVE SMOOTH",
"359 336 OFFCURVE",
"363 297 OFFCURVE",
"361 250 CURVE SMOOTH"
);
}
);
width = 572;
}
);
leftKerningGroup = d;
note = q;
unicode = 0071;
},
{
glyphname = r;
lastChange = "2021-09-09 12:54:47 +0000";
layers = (
{
hints = (
{
horizontal = 1;
place = "{-35, 21}";
target = up;
type = BottomGhost;
},
{
horizontal = 1;
place = "{408, 9}";
type = Stem;
},
{
place = "{107, 32}";
type = Stem;
}
);
layerId = "24D0D9E8-BA2F-4B13-8DB9-88CA40D3CAFC";
paths = (
{
closed = 1;
nodes = (
"458 442 OFFCURVE",
"434 473 OFFCURVE",
"384 482 CURVE SMOOTH",
"374 484 OFFCURVE",
"365 484 OFFCURVE",
"356 484 CURVE SMOOTH",
"320 484 OFFCURVE",
"286 472 OFFCURVE",
"254 448 CURVE SMOOTH",
"224 424 OFFCURVE",
"199 403 OFFCURVE",
"193 396 CURVE",
"199 393 LINE",
"202 409 OFFCURVE",
"205 424 OFFCURVE",
"208 438 CURVE SMOOTH",
"209 446 OFFCURVE",
"211 454 OFFCURVE",
"212 462 CURVE SMOOTH",
"212 464 OFFCURVE",
"213 466 OFFCURVE",
"213 468 CURVE SMOOTH",
"213 478 OFFCURVE",
"208 483 OFFCURVE",
"198 483 CURVE SMOOTH",
"195 483 OFFCURVE",
"186 483 OFFCURVE",
"175 481 CURVE SMOOTH",
"163 479 OFFCURVE",
"155 479 OFFCURVE",
"147 479 CURVE SMOOTH",
"72 481 OFFCURVE",
"32 483 OFFCURVE",
"28 484 CURVE",
"11 454 LINE",
"25 460 OFFCURVE",
"44 460 OFFCURVE",
"70 459 CURVE SMOOTH",
"93 457 OFFCURVE",
"109 452 OFFCURVE",
"115 446 CURVE SMOOTH",
"127 433 OFFCURVE",
"130 385 OFFCURVE",
"124 298 CURVE SMOOTH",
"113 154 LINE SMOOTH",
"110 112 OFFCURVE",
"104 80 OFFCURVE",
"96 60 CURVE SMOOTH",
"90 49 OFFCURVE",
"78 39 OFFCURVE",
"60 32 CURVE SMOOTH",
"45 25 OFFCURVE",
"30 22 OFFCURVE",
"12 22 CURVE SMOOTH",
"6 22 OFFCURVE",
"2 22 OFFCURVE",
"-2 24 CURVE",
"-19 -8 LINE",
"16 -3 OFFCURVE",
"69 -1 OFFCURVE",
"139 -1 CURVE SMOOTH",
"208 -1 OFFCURVE",
"258 -2 OFFCURVE",
"292 -6 CURVE",
"310 24 LINE",
"298 22 OFFCURVE",
"285 21 OFFCURVE",
"274 21 CURVE SMOOTH",
"219 21 OFFCURVE",
"191 34 OFFCURVE",
"186 59 CURVE",
"185 100 OFFCURVE",
"184 133 OFFCURVE",
"186 158 CURVE SMOOTH",
"189 226 OFFCURVE",
"191 267 OFFCURVE",
"192 281 CURVE SMOOTH",
"192 303 OFFCURVE",
"194 317 OFFCURVE",
"194 322 CURVE SMOOTH",
"195 323 OFFCURVE",
"195 324 OFFCURVE",
"195 324 CURVE",
"187 324 LINE",
"187 323 OFFCURVE",
"195 326 OFFCURVE",
"195 335 CURVE SMOOTH",
"197 355 OFFCURVE",
"212 375 OFFCURVE",
"242 399 CURVE SMOOTH",
"269 420 OFFCURVE",
"291 432 OFFCURVE",
"307 434 CURVE SMOOTH",
"313 435 OFFCURVE",
"319 436 OFFCURVE",
"324 436 CURVE SMOOTH",
"359 436 OFFCURVE",
"379 412 OFFCURVE",
"384 360 CURVE SMOOTH",
"386 343 OFFCURVE",
"388 330 OFFCURVE",
"395 330 CURVE SMOOTH",
"396 330 OFFCURVE",
"398 331 OFFCURVE",
"399 332 CURVE",
"399 331 OFFCURVE",
"397 331 OFFCURVE",
"397 331 CURVE",
"399 332 LINE SMOOTH",
"434 354 OFFCURVE",
"453 374 OFFCURVE",
"454 392 CURVE SMOOTH"
);
}
);
width = 475;
}
);
leftKerningGroup = i;
note = r;
rightKerningGroup = r;
unicode = 0072;
},
{
glyphname = s;
lastChange = "2021-09-09 12:54:47 +0000";
layers = (
{
hints = (
{
horizontal = 1;
place = "{-43, -7}";
type = Stem;
},
{
horizontal = 1;
place = "{424, -8}";
type = Stem;
},
{
place = "{25, 30}";
type = Stem;
},
{
place = "{281, -11}";
type = Stem;
},
{
place = "{251, 41}";
type = Stem;
}
);
layerId = "24D0D9E8-BA2F-4B13-8DB9-88CA40D3CAFC";
paths = (
{
closed = 1;
nodes = (
"309 215 OFFCURVE",
"283 235 OFFCURVE",
"246 255 CURVE SMOOTH",
"192 285 OFFCURVE",
"161 301 OFFCURVE",
"156 305 CURVE SMOOTH",
"128 326 OFFCURVE",
"115 347 OFFCURVE",
"117 369 CURVE SMOOTH",
"119 394 OFFCURVE",
"131 413 OFFCURVE",
"154 429 CURVE SMOOTH",
"176 444 OFFCURVE",
"201 452 OFFCURVE",
"228 452 CURVE SMOOTH",
"246 452 OFFCURVE",
"264 447 OFFCURVE",
"278 437 CURVE",
"297 422 OFFCURVE",
"305 403 OFFCURVE",
"304 379 CURVE SMOOTH",
"303 349 OFFCURVE",
"301 336 OFFCURVE",
"300 334 CURVE",
"305 328 LINE",
"330 341 LINE",
"330 387 OFFCURVE",
"332 420 OFFCURVE",
"339 443 CURVE",
"339 443 OFFCURVE",
"339 445 OFFCURVE",
"339 446 CURVE SMOOTH",
"340 456 OFFCURVE",
"333 464 OFFCURVE",
"322 470 CURVE SMOOTH",
"302 479 OFFCURVE",
"273 483 OFFCURVE",
"234 483 CURVE SMOOTH",
"233 483 LINE SMOOTH",
"185 483 OFFCURVE",
"142 470 OFFCURVE",
"106 444 CURVE SMOOTH",
"68 416 OFFCURVE",
"48 382 OFFCURVE",
"45 344 CURVE SMOOTH",
"43 308 OFFCURVE",
"57 278 OFFCURVE",
"87 256 CURVE SMOOTH",
"91 252 OFFCURVE",
"122 236 OFFCURVE",
"178 208 CURVE SMOOTH",
"216 189 OFFCURVE",
"239 169 OFFCURVE",
"249 145 CURVE",
"253 135 OFFCURVE",
"256 123 OFFCURVE",
"255 108 CURVE SMOOTH",
"252 71 OFFCURVE",
"234 44 OFFCURVE",
"198 27 CURVE SMOOTH",
"186 21 OFFCURVE",
"172 18 OFFCURVE",
"155 18 CURVE SMOOTH",
"130 18 OFFCURVE",
"106 25 OFFCURVE",
"86 38 CURVE SMOOTH",
"65 51 OFFCURVE",
"52 68 OFFCURVE",
"48 89 CURVE SMOOTH",
"47 95 OFFCURVE",
"48 123 OFFCURVE",
"51 169 CURVE",
"24 160 LINE",
"23 117 OFFCURVE",
"16 71 OFFCURVE",
"1 21 CURVE",
"-3 14 OFFCURVE",
"1 9 OFFCURVE",
"10 6 CURVE SMOOTH",
"48 -7 OFFCURVE",
"86 -15 OFFCURVE",
"118 -15 CURVE SMOOTH",
"165 -15 OFFCURVE",
"205 -8 OFFCURVE",
"239 6 CURVE SMOOTH",
"268 19 OFFCURVE",
"291 37 OFFCURVE",
"307 59 CURVE SMOOTH",
"326 83 OFFCURVE",
"336 107 OFFCURVE",
"337 132 CURVE SMOOTH",
"339 156 OFFCURVE",
"334 176 OFFCURVE",
"322 194 CURVE SMOOTH"
);
}
);
width = 390;
}
);
leftKerningGroup = s;
note = s;
rightKerningGroup = s;
unicode = 0073;
},
{
glyphname = germandbls;
lastChange = "2021-09-09 13:03:42 +0000";
layers = (
{
hints = (
{
horizontal = 1;
place = "{-46, 6}";
type = Stem;
},
{
horizontal = 1;
place = "{633, -20}";
target = down;
type = TopGhost;
},
{
place = "{100, 36}";
type = Stem;
},
{
place = "{368, 40}";
type = Stem;
},
{
place = "{458, 47}";
type = Stem;
}
);
layerId = "24D0D9E8-BA2F-4B13-8DB9-88CA40D3CAFC";
paths = (
{
closed = 1;
nodes = (
"463 214 OFFCURVE",
"439 234 OFFCURVE",
"390 263 CURVE SMOOTH",
"339 293 OFFCURVE",
"312 308 OFFCURVE",
"306 312 CURVE SMOOTH",
"250 350 OFFCURVE",
"249 388 OFFCURVE",
"301 421 CURVE SMOOTH",
"375 466 OFFCURVE",
"409 507 OFFCURVE",
"413 555 CURVE SMOOTH",
"418 631 OFFCURVE",
"370 669 OFFCURVE",
"269 669 CURVE SMOOTH",
"256 669 OFFCURVE",
"241 669 OFFCURVE",
"225 667 CURVE SMOOTH",
"158 663 OFFCURVE",
"115 645 OFFCURVE",
"99 614 CURVE SMOOTH",
"89 595 OFFCURVE",
"82 555 OFFCURVE",
"77 489 CURVE",
"4 490 LINE",
"-5 457 LINE",
"18 460 OFFCURVE",
"33 461 OFFCURVE",
"37 461 CURVE SMOOTH",
"61 461 OFFCURVE",
"72 446 OFFCURVE",
"74 413 CURVE",
"72 390 OFFCURVE",
"71 364 OFFCURVE",
"69 336 CURVE SMOOTH",
"45 4 OFFCURVE",
"16 -213 OFFCURVE",
"-7 -232 CURVE SMOOTH",
"-11 -235 OFFCURVE",
"-15 -240 OFFCURVE",
"-15 -243 CURVE SMOOTH",
"-15 -251 OFFCURVE",
"-8 -253 OFFCURVE",
"0 -249 CURVE SMOOTH",
"28 -238 LINE SMOOTH",
"49 -229 OFFCURVE",
"64 -222 OFFCURVE",
"75 -214 CURVE SMOOTH",
"90 -202 OFFCURVE",
"99 -183 OFFCURVE",
"101 -161 CURVE SMOOTH",
"131 236 LINE SMOOTH",
"141 365 OFFCURVE",
"152 472 OFFCURVE",
"164 555 CURVE SMOOTH",
"168 584 OFFCURVE",
"179 606 OFFCURVE",
"198 621 CURVE SMOOTH",
"215 636 OFFCURVE",
"235 643 OFFCURVE",
"257 643 CURVE SMOOTH",
"281 643 OFFCURVE",
"302 635 OFFCURVE",
"320 619 CURVE SMOOTH",
"381 559 OFFCURVE",
"316 445 OFFCURVE",
"225 405 CURVE SMOOTH",
"176 383 OFFCURVE",
"185 295 OFFCURVE",
"242 264 CURVE",
"246 261 OFFCURVE",
"276 245 OFFCURVE",
"307 228 CURVE SMOOTH",
"313 225 OFFCURVE",
"320 222 OFFCURVE",
"326 218 CURVE",
"359 201 OFFCURVE",
"391 170 OFFCURVE",
"402 145 CURVE",
"406 135 OFFCURVE",
"409 123 OFFCURVE",
"408 108 CURVE SMOOTH",
"405 71 OFFCURVE",
"387 44 OFFCURVE",
"351 27 CURVE SMOOTH",
"339 21 OFFCURVE",
"325 18 OFFCURVE",
"308 18 CURVE SMOOTH",
"283 18 OFFCURVE",
"259 25 OFFCURVE",
"239 38 CURVE SMOOTH",
"218 51 OFFCURVE",
"205 68 OFFCURVE",
"201 89 CURVE SMOOTH",
"200 95 OFFCURVE",
"201 123 OFFCURVE",
"204 169 CURVE",
"177 160 LINE",
"176 117 OFFCURVE",
"169 71 OFFCURVE",
"154 21 CURVE",
"150 14 OFFCURVE",
"154 9 OFFCURVE",
"163 6 CURVE SMOOTH",
"201 -7 OFFCURVE",
"239 -15 OFFCURVE",
"271 -15 CURVE SMOOTH",
"318 -15 OFFCURVE",
"358 -8 OFFCURVE",
"392 6 CURVE SMOOTH",
"421 19 OFFCURVE",
"444 37 OFFCURVE",
"460 59 CURVE SMOOTH",
"479 83 OFFCURVE",
"489 107 OFFCURVE",
"490 132 CURVE SMOOTH",
"492 156 OFFCURVE",
"487 176 OFFCURVE",
"475 194 CURVE SMOOTH"
);
}
);
width = 536;
}
);
note = germandbls;
unicode = 00DF;
},
{
glyphname = t;
lastChange = "2021-09-09 12:54:47 +0000";
layers = (
{
hints = (
{
horizontal = 1;
place = "{-38, 3}";
type = Stem;
},
{
horizontal = 1;
place = "{406, -10}";
type = Stem;
},
{
horizontal = 1;
place = "{592, -20}";
target = down;
type = TopGhost;
},
{
place = "{45, 30}";
type = Stem;
},
{
place = "{45, 212}";
type = Stem;
}
);
layerId = "24D0D9E8-BA2F-4B13-8DB9-88CA40D3CAFC";
paths = (
{
closed = 1;
nodes = (
"305 175 LINE",
"278 164 LINE",
"274 140 OFFCURVE",
"271 121 OFFCURVE",
"268 107 CURVE SMOOTH",
"261 77 OFFCURVE",
"248 56 OFFCURVE",
"230 45 CURVE SMOOTH",
"217 36 OFFCURVE",
"200 32 OFFCURVE",
"181 32 CURVE SMOOTH",
"144 32 OFFCURVE",
"124 54 OFFCURVE",
"120 101 CURVE SMOOTH",
"116 159 OFFCURVE",
"122 260 OFFCURVE",
"139 405 CURVE SMOOTH",
"143 434 LINE",
"190 432 OFFCURVE",
"227 429 OFFCURVE",
"255 424 CURVE SMOOTH",
"262 422 OFFCURVE",
"272 426 OFFCURVE",
"285 436 CURVE SMOOTH",
"297 445 OFFCURVE",
"304 452 OFFCURVE",
"304 458 CURVE SMOOTH",
"304 461 OFFCURVE",
"302 463 OFFCURVE",
"298 463 CURVE SMOOTH",
"147 464 LINE",
"155 523 OFFCURVE",
"166 574 OFFCURVE",
"178 618 CURVE",
"178 618 OFFCURVE",
"178 620 OFFCURVE",
"178 620 CURVE",
"179 625 OFFCURVE",
"176 628 OFFCURVE",
"171 628 CURVE SMOOTH",
"161 628 OFFCURVE",
"143 618 OFFCURVE",
"120 600 CURVE SMOOTH",
"92 580 OFFCURVE",
"81 570 OFFCURVE",
"80 563 CURVE SMOOTH",
"73 464 LINE",
"29 464 LINE",
"3 434 LINE",
"71 434 LINE",
"70 395 LINE SMOOTH",
"64 316 OFFCURVE",
"60 260 OFFCURVE",
"57 228 CURVE SMOOTH",
"56 215 OFFCURVE",
"55 206 OFFCURVE",
"55 201 CURVE SMOOTH",
"51 154 OFFCURVE",
"49 123 OFFCURVE",
"49 109 CURVE SMOOTH",
"49 67 OFFCURVE",
"54 39 OFFCURVE",
"67 22 CURVE SMOOTH",
"82 0 OFFCURVE",
"114 -10 OFFCURVE",
"163 -10 CURVE SMOOTH",
"190 -10 OFFCURVE",
"216 -6 OFFCURVE",
"243 4 CURVE SMOOTH",
"275 17 OFFCURVE",
"292 32 OFFCURVE",
"293 51 CURVE SMOOTH",
"293 58 OFFCURVE",
"296 79 OFFCURVE",
"301 113 CURVE SMOOTH",
"305 147 OFFCURVE",
"309 165 OFFCURVE",
"310 170 CURVE"
);
}
);
width = 352;
}
);
leftKerningGroup = t;
note = t;
rightKerningGroup = t;
unicode = 0074;
},
{
glyphname = u;
lastChange = "2021-09-09 12:54:47 +0000";
layers = (
{
hints = (
{
horizontal = 1;
place = "{-45, 9}";
type = Stem;
},
{
horizontal = 1;
place = "{446, -20}";
target = down;
type = TopGhost;
},
{
place = "{81, 36}";
type = Stem;
},
{
place = "{382, 29}";
type = Stem;
},
{
horizontal = 1;
place = "{-31, -5}";
type = Stem;
}
);
layerId = "24D0D9E8-BA2F-4B13-8DB9-88CA40D3CAFC";
paths = (
{
closed = 1;
nodes = (
"580 30 LINE",
"566 25 OFFCURVE",
"546 23 OFFCURVE",
"519 25 CURVE SMOOTH",
"497 26 OFFCURVE",
"481 30 OFFCURVE",
"474 37 CURVE SMOOTH",
"467 46 OFFCURVE",
"462 71 OFFCURVE",
"460 114 CURVE SMOOTH",
"458 147 OFFCURVE",
"458 176 OFFCURVE",
"460 200 CURVE SMOOTH",
"470 323 OFFCURVE",
"478 391 OFFCURVE",
"485 413 CURVE SMOOTH",
"493 441 OFFCURVE",
"513 456 OFFCURVE",
"543 456 CURVE SMOOTH",
"548 456 OFFCURVE",
"554 455 OFFCURVE",
"560 453 CURVE",
"573 479 LINE",
"519 475 OFFCURVE",
"481 473 OFFCURVE",
"459 472 CURVE SMOOTH",
"452 472 OFFCURVE",
"447 471 OFFCURVE",
"443 471 CURVE SMOOTH",
"371 473 OFFCURVE",
"342 476 OFFCURVE",
"339 479 CURVE",
"321 454 LINE",
"370 455 OFFCURVE",
"395 441 OFFCURVE",
"398 413 CURVE SMOOTH",
"402 382 OFFCURVE",
"400 310 OFFCURVE",
"392 201 CURVE SMOOTH",
"385 102 LINE",
"373 86 OFFCURVE",
"353 70 OFFCURVE",
"323 56 CURVE SMOOTH",
"295 42 OFFCURVE",
"275 35 OFFCURVE",
"258 33 CURVE SMOOTH",
"251 32 OFFCURVE",
"244 32 OFFCURVE",
"238 32 CURVE SMOOTH",
"182 32 OFFCURVE",
"158 80 OFFCURVE",
"165 177 CURVE SMOOTH",
"176 322 LINE",
"176 332 LINE SMOOTH",
"179 373 OFFCURVE",
"184 401 OFFCURVE",
"192 418 CURVE SMOOTH",
"196 428 OFFCURVE",
"204 436 OFFCURVE",
"215 443 CURVE SMOOTH",
"227 450 OFFCURVE",
"238 454 OFFCURVE",
"249 454 CURVE SMOOTH",
"250 454 OFFCURVE",
"251 454 OFFCURVE",
"252 454 CURVE",
"254 453 OFFCURVE",
"255 453 OFFCURVE",
"258 453 CURVE",
"275 481 LINE",
"192 472 OFFCURVE",
"107 472 OFFCURVE",
"20 482 CURVE",
"3 452 LINE",
"11 453 OFFCURVE",
"25 455 OFFCURVE",
"37 455 CURVE SMOOTH",
"74 455 OFFCURVE",
"94 443 OFFCURVE",
"98 419 CURVE",
"100 378 OFFCURVE",
"100 345 OFFCURVE",
"99 320 CURVE SMOOTH",
"99 288 OFFCURVE",
"96 248 OFFCURVE",
"93 200 CURVE SMOOTH",
"93 191 OFFCURVE",
"92 174 OFFCURVE",
"91 151 CURVE SMOOTH",
"90 122 OFFCURVE",
"88 96 OFFCURVE",
"86 75 CURVE SMOOTH",
"82 25 OFFCURVE",
"110 -6 OFFCURVE",
"168 -15 CURVE SMOOTH",
"180 -17 OFFCURVE",
"191 -17 OFFCURVE",
"202 -17 CURVE SMOOTH",
"245 -17 OFFCURVE",
"283 -5 OFFCURVE",
"319 20 CURVE SMOOTH",
"336 32 OFFCURVE",
"356 43 OFFCURVE",
"380 57 CURVE",
"377 40 OFFCURVE",
"375 26 OFFCURVE",
"371 14 CURVE SMOOTH",
"371 13 OFFCURVE",
"371 10 OFFCURVE",
"371 7 CURVE SMOOTH",
"370 -3 OFFCURVE",
"375 -8 OFFCURVE",
"386 -8 CURVE SMOOTH",
"389 -8 OFFCURVE",
"397 -7 OFFCURVE",
"408 -5 CURVE SMOOTH",
"420 -3 OFFCURVE",
"429 -3 OFFCURVE",
"437 -3 CURVE SMOOTH",
"497 -5 OFFCURVE",
"537 -6 OFFCURVE",
"556 -6 CURVE"
);
}
);
width = 598;
}
);
leftKerningGroup = j;
note = u;
unicode = 0075;
},
{
color = 11;
glyphname = uhorn;
lastChange = "2021-09-09 13:36:57 +0000";
layers = (
{
hints = (
{
horizontal = 1;
place = "{-45, 9}";
type = Stem;
},
{
horizontal = 1;
place = "{446, -20}";
target = down;
type = TopGhost;
},
{
place = "{17, 36}";
type = Stem;
},
{
place = "{318, 29}";
type = Stem;
},
{
horizontal = 1;
place = "{-31, -5}";
type = Stem;
},
{
horizontal = 1;
place = "{-383, -15}";
type = Stem;
},
{
horizontal = 1;
place = "{-241, -20}";
target = down;
type = TopGhost;
},
{
horizontal = 1;
place = "{-213, -12}";
type = Stem;
},
{
place = "{414, -12}";
type = Stem;
},
{
place = "{415, -14}";
type = Stem;
},
{
horizontal = 1;
place = "{-379, -15}";
type = Stem;
}
);
layerId = "24D0D9E8-BA2F-4B13-8DB9-88CA40D3CAFC";
paths = (
{
closed = 1;
nodes = (
"600 589 OFFCURVE",
"600 574 OFFCURVE",
"596 547 CURVE SMOOTH",
"592 516 OFFCURVE",
"571 488 OFFCURVE",
"528 478 CURVE SMOOTH",
"513 475 OFFCURVE",
"461 471 OFFCURVE",
"445 471 CURVE SMOOTH",
"412 471 OFFCURVE",
"344 476 OFFCURVE",
"342 479 CURVE",
"320 454 LINE",
"370 455 OFFCURVE",
"393 441 OFFCURVE",
"392 413 CURVE SMOOTH",
"391 382 OFFCURVE",
"379 310 OFFCURVE",
"356 201 CURVE SMOOTH",
"335 102 LINE",
"321 86 OFFCURVE",
"299 70 OFFCURVE",
"267 56 CURVE SMOOTH",
"237 42 OFFCURVE",
"216 35 OFFCURVE",
"199 33 CURVE SMOOTH",
"191 32 OFFCURVE",
"184 32 OFFCURVE",
"178 32 CURVE SMOOTH",
"122 32 OFFCURVE",
"105 80 OFFCURVE",
"126 177 CURVE SMOOTH",
"157 322 LINE",
"158 332 LINE",
"167 373 OFFCURVE",
"176 401 OFFCURVE",
"186 418 CURVE SMOOTH",
"192 428 OFFCURVE",
"201 436 OFFCURVE",
"213 443 CURVE SMOOTH",
"226 450 OFFCURVE",
"237 454 OFFCURVE",
"248 454 CURVE SMOOTH",
"251 454 LINE",
"253 453 OFFCURVE",
"254 453 OFFCURVE",
"257 453 CURVE",
"278 481 LINE",
"194 472 OFFCURVE",
"109 472 OFFCURVE",
"23 482 CURVE",
"2 452 LINE",
"10 453 OFFCURVE",
"25 455 OFFCURVE",
"37 455 CURVE SMOOTH",
"74 455 OFFCURVE",
"92 443 OFFCURVE",
"93 419 CURVE",
"89 378 OFFCURVE",
"84 345 OFFCURVE",
"80 320 CURVE SMOOTH",
"75 288 OFFCURVE",
"67 248 OFFCURVE",
"57 200 CURVE SMOOTH",
"56 191 OFFCURVE",
"52 174 OFFCURVE",
"48 151 CURVE SMOOTH",
"43 122 OFFCURVE",
"37 96 OFFCURVE",
"32 75 CURVE SMOOTH",
"21 25 OFFCURVE",
"45 -6 OFFCURVE",
"102 -15 CURVE SMOOTH",
"114 -17 OFFCURVE",
"125 -17 OFFCURVE",
"136 -17 CURVE SMOOTH",
"179 -17 OFFCURVE",
"218 -5 OFFCURVE",
"258 20 CURVE SMOOTH",
"276 32 OFFCURVE",
"298 43 OFFCURVE",
"324 57 CURVE",
"319 40 OFFCURVE",
"315 26 OFFCURVE",
"309 14 CURVE",
"309 13 OFFCURVE",
"308 10 OFFCURVE",
"308 7 CURVE",
"306 -3 OFFCURVE",
"310 -8 OFFCURVE",
"321 -8 CURVE SMOOTH",
"324 -8 OFFCURVE",
"332 -7 OFFCURVE",
"343 -5 CURVE SMOOTH",
"356 -3 OFFCURVE",
"365 -3 OFFCURVE",
"373 -3 CURVE SMOOTH",
"432 -5 OFFCURVE",
"472 -6 OFFCURVE",
"491 -6 CURVE",
"520 30 LINE",
"505 25 OFFCURVE",
"485 23 OFFCURVE",
"458 25 CURVE SMOOTH",
"437 26 OFFCURVE",
"421 30 OFFCURVE",
"415 37 CURVE SMOOTH",
"409 46 OFFCURVE",
"408 71 OFFCURVE",
"412 114 CURVE SMOOTH",
"415 147 OFFCURVE",
"419 176 OFFCURVE",
"424 200 CURVE SMOOTH",
"451 323 OFFCURVE",
"469 391 OFFCURVE",
"479 413 CURVE SMOOTH",
"494 448 OFFCURVE",
"518 452 OFFCURVE",
"563 459 CURVE SMOOTH",
"619 469 OFFCURVE",
"648 507 OFFCURVE",
"656 564 CURVE SMOOTH",
"661 604 OFFCURVE",
"660 628 OFFCURVE",
"659 634 CURVE",
"599 602 LINE"
);
}
);
width = 598;
}
);
unicode = 01B0;
},
{
glyphname = v;
lastChange = "2021-09-09 12:54:47 +0000";
layers = (
{
hints = (
{
horizontal = 1;
place = "{-49, 21}";
target = up;
type = BottomGhost;
},
{
horizontal = 1;
place = "{446, -20}";
target = down;
type = TopGhost;
},
{
place = "{160, 184}";
type = Stem;
}
);
layerId = "24D0D9E8-BA2F-4B13-8DB9-88CA40D3CAFC";
paths = (
{
closed = 1;
nodes = (
"587 483 LINE",
"545 478 OFFCURVE",
"514 476 OFFCURVE",
"494 476 CURVE SMOOTH",
"462 475 OFFCURVE",
"433 475 OFFCURVE",
"408 477 CURVE SMOOTH",
"363 478 OFFCURVE",
"340 481 OFFCURVE",
"336 481 CURVE",
"319 458 LINE",
"323 452 LINE",
"329 454 OFFCURVE",
"337 454 OFFCURVE",
"346 454 CURVE SMOOTH",
"385 454 OFFCURVE",
"402 444 OFFCURVE",
"401 423 CURVE SMOOTH",
"399 396 OFFCURVE",
"383 346 OFFCURVE",
"354 274 CURVE SMOOTH",
"328 207 OFFCURVE",
"304 156 OFFCURVE",
"284 118 CURVE SMOOTH",
"281 114 OFFCURVE",
"278 111 OFFCURVE",
"279 111 CURVE",
"279 111 OFFCURVE",
"278 112 OFFCURVE",
"274 120 CURVE SMOOTH",
"218 282 OFFCURVE",
"191 385 OFFCURVE",
"194 424 CURVE SMOOTH",
"194 433 OFFCURVE",
"202 441 OFFCURVE",
"218 447 CURVE SMOOTH",
"230 451 OFFCURVE",
"243 453 OFFCURVE",
"258 453 CURVE SMOOTH",
"262 453 OFFCURVE",
"265 453 OFFCURVE",
"270 453 CURVE",
"291 483 LINE",
"234 476 OFFCURVE",
"185 473 OFFCURVE",
"144 473 CURVE SMOOTH",
"140 473 OFFCURVE",
"131 474 OFFCURVE",
"120 474 CURVE SMOOTH",
"112 475 OFFCURVE",
"102 475 OFFCURVE",
"91 476 CURVE SMOOTH",
"84 476 OFFCURVE",
"78 477 OFFCURVE",
"73 477 CURVE SMOOTH",
"39 479 OFFCURVE",
"18 480 OFFCURVE",
"11 482 CURVE",
"-1 459 LINE",
"4 453 LINE",
"9 455 OFFCURVE",
"16 455 OFFCURVE",
"25 455 CURVE SMOOTH",
"52 455 OFFCURVE",
"72 450 OFFCURVE",
"83 440 CURVE SMOOTH",
"103 423 OFFCURVE",
"139 318 OFFCURVE",
"188 131 CURVE SMOOTH",
"196 101 OFFCURVE",
"202 79 OFFCURVE",
"205 64 CURVE",
"208 52 OFFCURVE",
"218 37 OFFCURVE",
"233 20 CURVE SMOOTH",
"248 3 OFFCURVE",
"259 -12 OFFCURVE",
"261 -19 CURVE",
"266 -21 LINE",
"279 -15 LINE",
"296 53 OFFCURVE",
"328 137 OFFCURVE",
"374 235 CURVE SMOOTH",
"426 348 OFFCURVE",
"471 418 OFFCURVE",
"504 438 CURVE SMOOTH",
"529 451 OFFCURVE",
"550 456 OFFCURVE",
"569 456 CURVE"
);
}
);
width = 581;
}
);
note = v;
rightKerningGroup = v;
unicode = 0076;
},
{
glyphname = w;
lastChange = "2021-09-09 12:54:47 +0000";
layers = (
{
hints = (
{
horizontal = 1;
place = "{-49, 21}";
target = up;
type = BottomGhost;
},
{
horizontal = 1;
place = "{446, -20}";
target = down;
type = TopGhost;
},
{
place = "{457, 184}";
type = Stem;
}
);
layerId = "24D0D9E8-BA2F-4B13-8DB9-88CA40D3CAFC";
paths = (
{
closed = 1;
nodes = (
"885 483 LINE",
"843 478 OFFCURVE",
"812 476 OFFCURVE",
"792 476 CURVE SMOOTH",
"760 475 OFFCURVE",
"731 475 OFFCURVE",
"706 477 CURVE SMOOTH",
"661 478 OFFCURVE",
"638 481 OFFCURVE",
"634 481 CURVE",
"617 458 LINE",
"621 452 LINE",
"627 454 OFFCURVE",
"635 454 OFFCURVE",
"644 454 CURVE SMOOTH",
"683 454 OFFCURVE",
"700 444 OFFCURVE",
"699 423 CURVE SMOOTH",
"697 396 OFFCURVE",
"681 346 OFFCURVE",
"652 274 CURVE SMOOTH",
"626 207 OFFCURVE",
"602 156 OFFCURVE",
"582 118 CURVE SMOOTH",
"579 114 OFFCURVE",
"576 111 OFFCURVE",
"577 111 CURVE",
"576 111 OFFCURVE",
"574 114 OFFCURVE",
"572 120 CURVE SMOOTH",
"514 287 OFFCURVE",
"488 386 OFFCURVE",
"491 424 CURVE SMOOTH",
"491 433 OFFCURVE",
"499 441 OFFCURVE",
"516 447 CURVE SMOOTH",
"528 451 OFFCURVE",
"541 453 OFFCURVE",
"556 453 CURVE SMOOTH",
"560 453 OFFCURVE",
"563 453 OFFCURVE",
"568 453 CURVE",
"589 483 LINE",
"532 476 OFFCURVE",
"483 473 OFFCURVE",
"441 473 CURVE",
"441 465 LINE",
"442 465 OFFCURVE",
"424 474 OFFCURVE",
"389 476 CURVE SMOOTH",
"384 476 OFFCURVE",
"380 477 OFFCURVE",
"376 477 CURVE SMOOTH",
"352 479 OFFCURVE",
"338 480 OFFCURVE",
"330 482 CURVE",
"313 449 LINE",
"325 455 OFFCURVE",
"330 455 OFFCURVE",
"339 455 CURVE SMOOTH",
"355 455 OFFCURVE",
"369 450 OFFCURVE",
"380 440 CURVE SMOOTH",
"390 432 OFFCURVE",
"397 421 OFFCURVE",
"400 410 CURVE",
"393 378 OFFCURVE",
"377 330 OFFCURVE",
"350 262 CURVE SMOOTH",
"324 200 OFFCURVE",
"302 153 OFFCURVE",
"284 118 CURVE SMOOTH",
"281 114 OFFCURVE",
"278 111 OFFCURVE",
"279 111 CURVE",
"279 111 OFFCURVE",
"278 112 OFFCURVE",
"274 120 CURVE SMOOTH",
"218 282 OFFCURVE",
"191 385 OFFCURVE",
"194 424 CURVE SMOOTH",
"194 433 OFFCURVE",
"202 441 OFFCURVE",
"218 447 CURVE SMOOTH",
"230 451 OFFCURVE",
"243 453 OFFCURVE",
"258 453 CURVE SMOOTH",
"262 453 OFFCURVE",
"265 453 OFFCURVE",
"270 453 CURVE",
"291 483 LINE",
"234 476 OFFCURVE",
"185 473 OFFCURVE",
"144 473 CURVE SMOOTH",
"140 473 OFFCURVE",
"131 474 OFFCURVE",
"120 474 CURVE SMOOTH",
"112 475 OFFCURVE",
"102 475 OFFCURVE",
"91 476 CURVE SMOOTH",
"84 476 OFFCURVE",
"78 477 OFFCURVE",
"73 477 CURVE SMOOTH",
"39 479 OFFCURVE",
"18 480 OFFCURVE",
"11 482 CURVE",
"-1 459 LINE",
"4 453 LINE",
"9 455 OFFCURVE",
"16 455 OFFCURVE",
"25 455 CURVE SMOOTH",
"52 455 OFFCURVE",
"72 450 OFFCURVE",
"83 440 CURVE SMOOTH",
"103 423 OFFCURVE",
"139 318 OFFCURVE",
"188 131 CURVE SMOOTH",
"196 101 OFFCURVE",
"202 79 OFFCURVE",
"205 64 CURVE",
"208 52 OFFCURVE",
"218 37 OFFCURVE",
"233 20 CURVE SMOOTH",
"248 3 OFFCURVE",
"259 -12 OFFCURVE",
"261 -19 CURVE",
"266 -21 LINE",
"279 -15 LINE",
"289 25 OFFCURVE",
"309 80 OFFCURVE",
"337 149 CURVE SMOOTH",
"368 222 OFFCURVE",
"397 285 OFFCURVE",
"426 337 CURVE",
"444 284 OFFCURVE",
"464 215 OFFCURVE",
"486 131 CURVE SMOOTH",
"494 101 OFFCURVE",
"500 79 OFFCURVE",
"503 64 CURVE",
"506 52 OFFCURVE",
"516 37 OFFCURVE",
"531 20 CURVE SMOOTH",
"546 3 OFFCURVE",
"557 -12 OFFCURVE",
"559 -19 CURVE",
"564 -21 LINE",
"577 -15 LINE",
"594 53 OFFCURVE",
"626 137 OFFCURVE",
"672 235 CURVE SMOOTH",
"724 348 OFFCURVE",
"769 418 OFFCURVE",
"802 438 CURVE SMOOTH",
"825 451 OFFCURVE",
"848 456 OFFCURVE",
"867 456 CURVE"
);
}
);
width = 885;
}
);
note = w;
rightKerningGroup = v;
unicode = 0077;
},
{
glyphname = x;
lastChange = "2021-09-09 12:54:47 +0000";
layers = (
{
hints = (
{
horizontal = 1;
place = "{-37, 21}";
target = up;
type = BottomGhost;
},
{
horizontal = 1;
place = "{446, -20}";
target = down;
type = TopGhost;
}
);
layerId = "24D0D9E8-BA2F-4B13-8DB9-88CA40D3CAFC";
paths = (
{
closed = 1;
nodes = (
"530 25 LINE",
"521 23 OFFCURVE",
"510 22 OFFCURVE",
"500 22 CURVE SMOOTH",
"461 22 OFFCURVE",
"432 31 OFFCURVE",
"414 51 CURVE SMOOTH",
"394 73 OFFCURVE",
"353 140 OFFCURVE",
"293 254 CURVE",
"311 280 OFFCURVE",
"328 302 OFFCURVE",
"343 322 CURVE SMOOTH",
"352 334 OFFCURVE",
"362 346 OFFCURVE",
"371 358 CURVE SMOOTH",
"380 370 OFFCURVE",
"390 383 OFFCURVE",
"399 395 CURVE SMOOTH",
"416 415 OFFCURVE",
"431 429 OFFCURVE",
"442 434 CURVE SMOOTH",
"472 449 OFFCURVE",
"498 456 OFFCURVE",
"522 456 CURVE",
"535 483 LINE",
"495 478 OFFCURVE",
"464 476 OFFCURVE",
"444 476 CURVE SMOOTH",
"418 475 OFFCURVE",
"394 475 OFFCURVE",
"372 477 CURVE SMOOTH",
"361 478 OFFCURVE",
"352 479 OFFCURVE",
"344 479 CURVE SMOOTH",
"334 480 OFFCURVE",
"327 481 OFFCURVE",
"322 481 CURVE",
"309 458 LINE",
"314 452 LINE",
"320 455 OFFCURVE",
"329 453 OFFCURVE",
"345 449 CURVE SMOOTH",
"358 445 OFFCURVE",
"366 440 OFFCURVE",
"366 436 CURVE SMOOTH",
"365 434 OFFCURVE",
"365 431 OFFCURVE",
"362 427 CURVE SMOOTH",
"350 400 OFFCURVE",
"321 354 OFFCURVE",
"276 286 CURVE",
"248 341 OFFCURVE",
"230 380 OFFCURVE",
"221 403 CURVE SMOOTH",
"216 417 OFFCURVE",
"214 427 OFFCURVE",
"214 434 CURVE SMOOTH",
"215 442 OFFCURVE",
"222 447 OFFCURVE",
"239 451 CURVE",
"241 451 OFFCURVE",
"243 451 OFFCURVE",
"246 452 CURVE",
"256 452 OFFCURVE",
"264 453 OFFCURVE",
"270 453 CURVE",
"290 483 LINE",
"248 478 OFFCURVE",
"213 476 OFFCURVE",
"187 476 CURVE SMOOTH",
"104 476 OFFCURVE",
"81 458 OFFCURVE",
"127 476 CURVE",
"70 476 OFFCURVE",
"37 479 OFFCURVE",
"27 480 CURVE",
"6 452 LINE",
"15 453 OFFCURVE",
"24 455 OFFCURVE",
"37 455 CURVE SMOOTH",
"74 455 OFFCURVE",
"96 449 OFFCURVE",
"107 437 CURVE SMOOTH",
"139 404 OFFCURVE",
"183 335 OFFCURVE",
"237 229 CURVE",
"217 199 OFFCURVE",
"199 174 OFFCURVE",
"183 153 CURVE SMOOTH",
"124 78 LINE SMOOTH",
"108 57 OFFCURVE",
"92 42 OFFCURVE",
"80 37 CURVE SMOOTH",
"60 27 OFFCURVE",
"36 22 OFFCURVE",
"6 21 CURVE",
"-12 -8 LINE",
"22 -4 OFFCURVE",
"53 -2 OFFCURVE",
"80 -2 CURVE SMOOTH",
"108 -1 OFFCURVE",
"133 -1 OFFCURVE",
"155 -2 CURVE SMOOTH",
"196 -5 OFFCURVE",
"217 -7 OFFCURVE",
"217 -8 CURVE",
"232 19 LINE",
"228 25 LINE",
"222 23 OFFCURVE",
"216 23 OFFCURVE",
"208 23 CURVE SMOOTH",
"178 23 OFFCURVE",
"163 31 OFFCURVE",
"164 46 CURVE SMOOTH",
"164 48 OFFCURVE",
"165 50 OFFCURVE",
"166 52 CURVE SMOOTH",
"177 78 OFFCURVE",
"206 126 OFFCURVE",
"254 197 CURVE",
"313 77 LINE SMOOTH",
"319 65 OFFCURVE",
"321 56 OFFCURVE",
"320 48 CURVE SMOOTH",
"319 31 OFFCURVE",
"304 23 OFFCURVE",
"274 23 CURVE SMOOTH",
"270 23 OFFCURVE",
"269 23 OFFCURVE",
"264 25 CURVE",
"246 -10 LINE",
"300 -2 OFFCURVE",
"361 1 OFFCURVE",
"432 -2 CURVE SMOOTH",
"476 -4 OFFCURVE",
"502 -6 OFFCURVE",
"511 -7 CURVE"
);
}
);
width = 548;
}
);
note = x;
unicode = 0078;
},
{
glyphname = y;
lastChange = "2021-09-09 12:54:47 +0000";
layers = (
{
hints = (
{
horizontal = 1;
place = "{-211, -2}";
type = Stem;
},
{
horizontal = 1;
place = "{446, -20}";
target = down;
type = TopGhost;
},
{
place = "{164, 190}";
type = Stem;
}
);
layerId = "24D0D9E8-BA2F-4B13-8DB9-88CA40D3CAFC";
paths = (
{
closed = 1;
nodes = (
"602 483 LINE",
"560 478 OFFCURVE",
"529 476 OFFCURVE",
"507 476 CURVE SMOOTH",
"474 475 OFFCURVE",
"445 475 OFFCURVE",
"418 477 CURVE SMOOTH",
"373 478 OFFCURVE",
"349 481 OFFCURVE",
"345 481 CURVE",
"327 458 LINE",
"331 452 LINE",
"338 454 OFFCURVE",
"346 454 OFFCURVE",
"355 454 CURVE SMOOTH",
"395 454 OFFCURVE",
"413 444 OFFCURVE",
"412 423 CURVE SMOOTH",
"410 396 OFFCURVE",
"393 345 OFFCURVE",
"364 274 CURVE SMOOTH",
"337 207 OFFCURVE",
"313 156 OFFCURVE",
"292 118 CURVE SMOOTH",
"289 114 OFFCURVE",
"286 111 OFFCURVE",
"287 111 CURVE",
"286 111 OFFCURVE",
"284 114 OFFCURVE",
"282 120 CURVE SMOOTH",
"222 287 OFFCURVE",
"195 386 OFFCURVE",
"198 424 CURVE SMOOTH",
"198 433 OFFCURVE",
"206 441 OFFCURVE",
"224 447 CURVE SMOOTH",
"236 451 OFFCURVE",
"249 453 OFFCURVE",
"264 453 CURVE SMOOTH",
"268 453 OFFCURVE",
"274 453 OFFCURVE",
"276 453 CURVE",
"298 483 LINE",
"240 476 OFFCURVE",
"189 473 OFFCURVE",
"147 473 CURVE",
"138 474 OFFCURVE",
"119 475 OFFCURVE",
"93 476 CURVE SMOOTH",
"48 478 OFFCURVE",
"21 479 OFFCURVE",
"11 482 CURVE",
"-1 459 LINE",
"4 453 LINE",
"9 455 OFFCURVE",
"16 455 OFFCURVE",
"25 455 CURVE SMOOTH",
"53 455 OFFCURVE",
"73 450 OFFCURVE",
"85 440 CURVE SMOOTH",
"96 430 OFFCURVE",
"123 363 OFFCURVE",
"163 241 CURVE SMOOTH",
"179 192 OFFCURVE",
"204 110 OFFCURVE",
"239 -5 CURVE",
"229 -38 OFFCURVE",
"216 -67 OFFCURVE",
"198 -94 CURVE SMOOTH",
"174 -129 OFFCURVE",
"150 -145 OFFCURVE",
"124 -145 CURVE SMOOTH",
"98 -145 OFFCURVE",
"80 -135 OFFCURVE",
"69 -117 CURVE SMOOTH",
"62 -104 OFFCURVE",
"56 -87 OFFCURVE",
"52 -65 CURVE SMOOTH",
"51 -54 OFFCURVE",
"50 -41 OFFCURVE",
"49 -25 CURVE",
"9 -35 LINE",
"12 -57 OFFCURVE",
"14 -90 OFFCURVE",
"14 -136 CURVE SMOOTH",
"13 -148 OFFCURVE",
"23 -158 OFFCURVE",
"42 -167 CURVE SMOOTH",
"64 -178 OFFCURVE",
"91 -183 OFFCURVE",
"120 -183 CURVE SMOOTH",
"179 -183 OFFCURVE",
"225 -144 OFFCURVE",
"257 -68 CURVE SMOOTH",
"352 156 LINE SMOOTH",
"389 244 OFFCURVE",
"421 311 OFFCURVE",
"450 357 CURVE SMOOTH",
"474 399 OFFCURVE",
"497 426 OFFCURVE",
"518 438 CURVE SMOOTH",
"543 451 OFFCURVE",
"564 456 OFFCURVE",
"584 456 CURVE"
);
}
);
width = 594;
}
);
note = y;
unicode = 0079;
},
{
glyphname = z;
lastChange = "2021-09-09 12:54:47 +0000";
layers = (
{
hints = (
{
horizontal = 1;
place = "{-29, 29}";
type = Stem;
},
{
horizontal = 1;
place = "{393, 20}";
type = Stem;
},
{
horizontal = 1;
place = "{451, -20}";
target = down;
type = TopGhost;
}
);
layerId = "24D0D9E8-BA2F-4B13-8DB9-88CA40D3CAFC";
paths = (
{
closed = 1;
nodes = (
"404 168 LINE",
"370 163 LINE",
"367 154 OFFCURVE",
"364 147 OFFCURVE",
"362 141 CURVE SMOOTH",
"356 126 OFFCURVE",
"352 115 OFFCURVE",
"349 108 CURVE SMOOTH",
"340 88 OFFCURVE",
"318 75 OFFCURVE",
"282 71 CURVE SMOOTH",
"267 69 OFFCURVE",
"235 68 OFFCURVE",
"187 68 CURVE SMOOTH",
"142 68 OFFCURVE",
"111 70 OFFCURVE",
"96 72 CURVE",
"96 72 OFFCURVE",
"96 72 OFFCURVE",
"96 72 CURVE",
"97 88 OFFCURVE",
"132 139 OFFCURVE",
"194 212 CURVE SMOOTH",
"319 362 OFFCURVE",
"389 448 OFFCURVE",
"403 471 CURVE",
"404 474 OFFCURVE",
"405 477 OFFCURVE",
"406 479 CURVE SMOOTH",
"406 484 OFFCURVE",
"402 487 OFFCURVE",
"395 487 CURVE SMOOTH",
"392 487 OFFCURVE",
"385 486 OFFCURVE",
"374 484 CURVE",
"366 481 OFFCURVE",
"359 480 OFFCURVE",
"355 480 CURVE SMOOTH",
"333 480 OFFCURVE",
"301 480 OFFCURVE",
"260 481 CURVE SMOOTH",
"240 481 OFFCURVE",
"219 482 OFFCURVE",
"195 482 CURVE SMOOTH",
"168 482 OFFCURVE",
"147 482 OFFCURVE",
"131 482 CURVE SMOOTH",
"101 483 OFFCURVE",
"95 482 OFFCURVE",
"93 482 CURVE SMOOTH",
"83 482 OFFCURVE",
"74 469 OFFCURVE",
"67 443 CURVE SMOOTH",
"54 387 LINE SMOOTH",
"47 364 OFFCURVE",
"42 345 OFFCURVE",
"39 331 CURVE SMOOTH",
"37 324 OFFCURVE",
"35 318 OFFCURVE",
"34 313 CURVE",
"66 320 LINE",
"67 335 OFFCURVE",
"72 355 OFFCURVE",
"81 384 CURVE SMOOTH",
"87 409 OFFCURVE",
"106 421 OFFCURVE",
"140 421 CURVE SMOOTH",
"202 421 OFFCURVE",
"242 421 OFFCURVE",
"262 419 CURVE SMOOTH",
"276 418 OFFCURVE",
"282 412 OFFCURVE",
"283 402 CURVE SMOOTH",
"285 392 OFFCURVE",
"244 335 OFFCURVE",
"160 231 CURVE SMOOTH",
"119 183 OFFCURVE",
"85 142 OFFCURVE",
"56 108 CURVE SMOOTH",
"36 84 OFFCURVE",
"19 63 OFFCURVE",
"4 47 CURVE",
"-20 25 OFFCURVE",
"-32 12 OFFCURVE",
"-33 4 CURVE SMOOTH",
"-33 -3 OFFCURVE",
"-22 -5 OFFCURVE",
"-8 -4 CURVE SMOOTH",
"11 -3 OFFCURVE",
"30 -2 OFFCURVE",
"47 -1 CURVE SMOOTH",
"167 -2 OFFCURVE",
"259 -3 OFFCURVE",
"321 -4 CURVE",
"332 -3 OFFCURVE",
"341 8 OFFCURVE",
"350 31 CURVE SMOOTH",
"377 105 LINE"
);
}
);
width = 431;
}
);
leftKerningGroup = z;
note = z;
unicode = 007A;
},
{
color = 3;
glyphname = f_f;
lastChange = "2021-09-09 13:37:36 +0000";
layers = (
{
hints = (
{
horizontal = 1;
place = "{-35, 21}";
target = up;
type = BottomGhost;
},
{
horizontal = 1;
place = "{405, -10}";
type = Stem;
},
{
horizontal = 1;
place = "{605, -2}";
type = Stem;
},
{
place = "{107, 38}";
type = Stem;
},
{
place = "{498, 38}";
type = Stem;
}
);
layerId = "24D0D9E8-BA2F-4B13-8DB9-88CA40D3CAFC";
paths = (
{
closed = 1;
nodes = (
"776 510 LINE",
"776 568 OFFCURVE",
"777 604 OFFCURVE",
"779 616 CURVE SMOOTH",
"784 635 OFFCURVE",
"769 649 OFFCURVE",
"734 660 CURVE SMOOTH",
"708 667 OFFCURVE",
"678 671 OFFCURVE",
"648 671 CURVE SMOOTH",
"591 671 OFFCURVE",
"549 652 OFFCURVE",
"523 614 CURVE SMOOTH",
"500 583 OFFCURVE",
"486 533 OFFCURVE",
"480 464 CURVE",
"206 463 LINE",
"210 505 OFFCURVE",
"218 538 OFFCURVE",
"227 563 CURVE SMOOTH",
"248 613 OFFCURVE",
"283 636 OFFCURVE",
"332 633 CURVE SMOOTH",
"356 632 OFFCURVE",
"374 626 OFFCURVE",
"384 614 CURVE SMOOTH",
"397 599 OFFCURVE",
"404 579 OFFCURVE",
"405 553 CURVE SMOOTH",
"406 532 OFFCURVE",
"405 511 OFFCURVE",
"404 495 CURVE",
"432 510 LINE",
"432 567 OFFCURVE",
"433 603 OFFCURVE",
"436 616 CURVE SMOOTH",
"440 635 OFFCURVE",
"424 649 OFFCURVE",
"391 660 CURVE SMOOTH",
"364 667 OFFCURVE",
"334 671 OFFCURVE",
"304 671 CURVE SMOOTH",
"248 671 OFFCURVE",
"206 653 OFFCURVE",
"179 614 CURVE SMOOTH",
"156 581 OFFCURVE",
"142 530 OFFCURVE",
"136 464 CURVE",
"97 464 OFFCURVE",
"78 464 OFFCURVE",
"72 464 CURVE",
"69 462 LINE",
"45 434 LINE",
"71 434 OFFCURVE",
"102 434 OFFCURVE",
"137 433 CURVE",
"142 437 LINE",
"142 440 OFFCURVE",
"132 412 OFFCURVE",
"128 353 CURVE SMOOTH",
"126 310 OFFCURVE",
"124 284 OFFCURVE",
"123 276 CURVE SMOOTH",
"115 158 OFFCURVE",
"107 90 OFFCURVE",
"99 65 CURVE SMOOTH",
"90 36 OFFCURVE",
"54 21 OFFCURVE",
"-9 21 CURVE",
"-25 -8 LINE",
"74 0 OFFCURVE",
"129 4 OFFCURVE",
"140 4 CURVE SMOOTH",
"225 2 OFFCURVE",
"265 -2 OFFCURVE",
"278 -8 CURVE",
"297 24 LINE",
"273 21 OFFCURVE",
"250 22 OFFCURVE",
"226 30 CURVE SMOOTH",
"200 37 OFFCURVE",
"187 49 OFFCURVE",
"186 64 CURVE",
"186 147 OFFCURVE",
"188 217 OFFCURVE",
"191 275 CURVE SMOOTH",
"194 310 OFFCURVE",
"197 363 OFFCURVE",
"203 431 CURVE",
"217 431 OFFCURVE",
"241 430 OFFCURVE",
"269 430 CURVE SMOOTH",
"339 428 OFFCURVE",
"435 427 OFFCURVE",
"477 425 CURVE",
"476 416 OFFCURVE",
"475 394 OFFCURVE",
"472 353 CURVE SMOOTH",
"469 309 OFFCURVE",
"467 285 OFFCURVE",
"466 276 CURVE SMOOTH",
"458 161 OFFCURVE",
"450 91 OFFCURVE",
"443 65 CURVE SMOOTH",
"433 36 OFFCURVE",
"398 21 OFFCURVE",
"334 21 CURVE",
"319 -7 LINE",
"417 0 OFFCURVE",
"472 4 OFFCURVE",
"484 4 CURVE SMOOTH",
"568 2 OFFCURVE",
"609 -2 OFFCURVE",
"622 -8 CURVE",
"641 24 LINE",
"614 20 OFFCURVE",
"591 23 OFFCURVE",
"569 30 CURVE SMOOTH",
"544 37 OFFCURVE",
"531 49 OFFCURVE",
"529 65 CURVE",
"529 147 OFFCURVE",
"532 217 OFFCURVE",
"535 275 CURVE SMOOTH",
"537 310 OFFCURVE",
"540 363 OFFCURVE",
"546 431 CURVE",
"593 429 OFFCURVE",
"624 427 OFFCURVE",
"639 424 CURVE SMOOTH",
"647 422 OFFCURVE",
"657 426 OFFCURVE",
"670 436 CURVE SMOOTH",
"682 446 OFFCURVE",
"689 453 OFFCURVE",
"689 458 CURVE SMOOTH",
"689 461 OFFCURVE",
"687 463 OFFCURVE",
"683 463 CURVE SMOOTH",
"550 463 LINE",
"554 505 OFFCURVE",
"561 538 OFFCURVE",
"571 563 CURVE SMOOTH",
"591 613 OFFCURVE",
"626 636 OFFCURVE",
"675 633 CURVE SMOOTH",
"700 632 OFFCURVE",
"717 626 OFFCURVE",
"727 614 CURVE SMOOTH",
"741 599 OFFCURVE",
"748 578 OFFCURVE",
"749 553 CURVE SMOOTH",
"748 532 OFFCURVE",
"748 512 OFFCURVE",
"748 496 CURVE"
);
}
);
width = 733;
}
);
note = f_f;
unicode = FB00;
},
{
color = 3;
glyphname = f_f_l;
lastChange = "2021-09-09 13:37:42 +0000";
layers = (
{
hints = (
{
horizontal = 1;
place = "{-24, -22}";
type = Stem;
},
{
horizontal = 1;
place = "{406, -11}";
type = Stem;
},
{
horizontal = 1;
place = "{605, -2}";
type = Stem;
},
{
place = "{108, 29}";
type = Stem;
},
{
place = "{370, -14}";
type = Stem;
},
{
place = "{452, 29}";
type = Stem;
},
{
place = "{760, 28}";
type = Stem;
},
{
horizontal = 1;
place = "{-24, -26}";
type = Stem;
},
{
horizontal = 1;
place = "{-24, -27}";
type = Stem;
},
{
horizontal = 1;
place = "{398, -3}";
type = Stem;
},
{
horizontal = 1;
place = "{612, -9}";
type = Stem;
},
{
horizontal = 1;
place = "{403, -7}";
type = Stem;
},
{
horizontal = 1;
place = "{-24, -23}";
type = Stem;
},
{
horizontal = 1;
place = "{-35, -16}";
type = Stem;
},
{
horizontal = 1;
place = "{-24, -27}";
type = Stem;
}
);
layerId = "24D0D9E8-BA2F-4B13-8DB9-88CA40D3CAFC";
paths = (
{
closed = 1;
nodes = (
"946 19 LINE",
"926 16 OFFCURVE",
"903 17 OFFCURVE",
"876 26 CURVE SMOOTH",
"851 35 OFFCURVE",
"839 47 OFFCURVE",
"837 63 CURVE SMOOTH",
"834 94 OFFCURVE",
"836 165 OFFCURVE",
"843 275 CURVE SMOOTH",
"848 343 LINE SMOOTH",
"859 498 OFFCURVE",
"869 594 OFFCURVE",
"877 626 CURVE SMOOTH",
"877 627 OFFCURVE",
"877 628 OFFCURVE",
"877 628 CURVE",
"878 631 OFFCURVE",
"879 634 OFFCURVE",
"880 637 CURVE SMOOTH",
"880 650 OFFCURVE",
"871 658 OFFCURVE",
"852 664 CURVE SMOOTH",
"834 668 OFFCURVE",
"811 671 OFFCURVE",
"787 672 CURVE SMOOTH",
"769 673 OFFCURVE",
"745 673 OFFCURVE",
"715 672 CURVE SMOOTH",
"675 671 OFFCURVE",
"653 671 OFFCURVE",
"649 671 CURVE SMOOTH",
"592 671 OFFCURVE",
"550 652 OFFCURVE",
"524 614 CURVE SMOOTH",
"501 583 OFFCURVE",
"487 533 OFFCURVE",
"481 464 CURVE",
"442 464 OFFCURVE",
"422 464 OFFCURVE",
"416 464 CURVE",
"412 460 LINE",
"412 463 LINE",
"206 463 LINE",
"210 505 OFFCURVE",
"218 538 OFFCURVE",
"227 563 CURVE SMOOTH",
"248 613 OFFCURVE",
"283 636 OFFCURVE",
"332 633 CURVE SMOOTH",
"356 632 OFFCURVE",
"374 626 OFFCURVE",
"384 614 CURVE SMOOTH",
"397 599 OFFCURVE",
"404 579 OFFCURVE",
"405 553 CURVE SMOOTH",
"406 532 OFFCURVE",
"405 511 OFFCURVE",
"404 495 CURVE",
"432 510 LINE",
"432 567 OFFCURVE",
"433 603 OFFCURVE",
"436 616 CURVE SMOOTH",
"440 635 OFFCURVE",
"424 649 OFFCURVE",
"391 660 CURVE SMOOTH",
"364 667 OFFCURVE",
"334 671 OFFCURVE",
"304 671 CURVE SMOOTH",
"248 671 OFFCURVE",
"206 653 OFFCURVE",
"179 614 CURVE SMOOTH",
"156 581 OFFCURVE",
"142 530 OFFCURVE",
"136 464 CURVE",
"97 464 OFFCURVE",
"78 464 OFFCURVE",
"72 464 CURVE",
"69 462 LINE",
"45 434 LINE",
"71 434 OFFCURVE",
"102 434 OFFCURVE",
"137 433 CURVE",
"142 437 LINE",
"142 440 OFFCURVE",
"132 412 OFFCURVE",
"128 353 CURVE SMOOTH",
"126 310 OFFCURVE",
"124 284 OFFCURVE",
"123 276 CURVE SMOOTH",
"115 158 OFFCURVE",
"107 90 OFFCURVE",
"99 65 CURVE SMOOTH",
"90 36 OFFCURVE",
"54 21 OFFCURVE",
"-9 21 CURVE",
"-25 -8 LINE",
"74 0 OFFCURVE",
"129 4 OFFCURVE",
"140 4 CURVE SMOOTH",
"225 2 OFFCURVE",
"265 -2 OFFCURVE",
"278 -8 CURVE",
"297 24 LINE",
"273 21 OFFCURVE",
"250 22 OFFCURVE",
"226 30 CURVE SMOOTH",
"200 37 OFFCURVE",
"187 49 OFFCURVE",
"186 64 CURVE",
"186 147 OFFCURVE",
"188 217 OFFCURVE",
"191 275 CURVE SMOOTH",
"194 310 OFFCURVE",
"197 363 OFFCURVE",
"203 431 CURVE",
"222 430 OFFCURVE",
"261 430 OFFCURVE",
"307 429 CURVE SMOOTH",
"364 428 OFFCURVE",
"430 427 OFFCURVE",
"478 426 CURVE",
"477 417 OFFCURVE",
"476 395 OFFCURVE",
"473 353 CURVE SMOOTH",
"470 311 OFFCURVE",
"468 285 OFFCURVE",
"467 276 CURVE SMOOTH",
"459 159 OFFCURVE",
"451 88 OFFCURVE",
"444 63 CURVE SMOOTH",
"439 47 OFFCURVE",
"426 35 OFFCURVE",
"405 28 CURVE SMOOTH",
"389 21 OFFCURVE",
"371 18 OFFCURVE",
"350 18 CURVE SMOOTH",
"342 18 OFFCURVE",
"337 18 OFFCURVE",
"333 20 CURVE",
"321 -7 LINE",
"418 0 OFFCURVE",
"473 4 OFFCURVE",
"485 4 CURVE SMOOTH",
"537 3 OFFCURVE",
"575 -1 OFFCURVE",
"594 -8 CURVE",
"614 19 LINE",
"592 15 OFFCURVE",
"573 18 OFFCURVE",
"557 27 CURVE SMOOTH",
"540 35 OFFCURVE",
"531 47 OFFCURVE",
"529 62 CURVE",
"530 145 OFFCURVE",
"533 216 OFFCURVE",
"536 275 CURVE SMOOTH",
"538 310 OFFCURVE",
"541 363 OFFCURVE",
"547 431 CURVE",
"631 428 OFFCURVE",
"677 425 OFFCURVE",
"685 424 CURVE SMOOTH",
"692 422 OFFCURVE",
"702 426 OFFCURVE",
"715 436 CURVE SMOOTH",
"727 445 OFFCURVE",
"734 452 OFFCURVE",
"734 458 CURVE SMOOTH",
"734 461 OFFCURVE",
"732 463 OFFCURVE",
"728 463 CURVE SMOOTH",
"551 463 LINE",
"555 505 OFFCURVE",
"562 538 OFFCURVE",
"572 563 CURVE SMOOTH",
"593 614 OFFCURVE",
"632 640 OFFCURVE",
"690 640 CURVE SMOOTH",
"725 640 OFFCURVE",
"749 637 OFFCURVE",
"762 631 CURVE",
"780 624 OFFCURVE",
"790 606 OFFCURVE",
"791 577 CURVE SMOOTH",
"792 548 OFFCURVE",
"791 497 OFFCURVE",
"786 422 CURVE SMOOTH",
"775 276 LINE SMOOTH",
"766 155 OFFCURVE",
"758 87 OFFCURVE",
"751 63 CURVE SMOOTH",
"746 48 OFFCURVE",
"733 35 OFFCURVE",
"713 28 CURVE SMOOTH",
"697 21 OFFCURVE",
"679 18 OFFCURVE",
"657 18 CURVE SMOOTH",
"649 18 OFFCURVE",
"644 18 OFFCURVE",
"640 20 CURVE",
"628 -7 LINE",
"726 0 OFFCURVE",
"781 4 OFFCURVE",
"792 4 CURVE SMOOTH",
"874 2 OFFCURVE",
"915 -2 OFFCURVE",
"928 -8 CURVE"
);
}
);
width = 980;
}
);
note = f_f_l;
unicode = FB04;
},
{
color = 3;
glyphname = fi;
lastChange = "2021-09-09 13:37:47 +0000";
layers = (
{
hints = (
{
horizontal = 1;
place = "{-35, 21}";
target = up;
type = BottomGhost;
},
{
horizontal = 1;
place = "{405, -10}";
type = Stem;
},
{
horizontal = 1;
place = "{610, -6}";
type = Stem;
},
{
place = "{107, 38}";
type = Stem;
},
{
place = "{371, 46}";
type = Stem;
},
{
place = "{388, 29}";
type = Stem;
}
);
layerId = "24D0D9E8-BA2F-4B13-8DB9-88CA40D3CAFC";
paths = (
{
closed = 1;
nodes = (
"612 21 LINE",
"542 20 OFFCURVE",
"506 34 OFFCURVE",
"502 63 CURVE SMOOTH",
"500 93 OFFCURVE",
"500 148 OFFCURVE",
"506 227 CURVE SMOOTH",
"509 268 LINE SMOOTH",
"515 359 OFFCURVE",
"525 425 OFFCURVE",
"537 467 CURVE",
"537 467 OFFCURVE",
"537 467 OFFCURVE",
"537 468 CURVE",
"537 469 OFFCURVE",
"538 471 OFFCURVE",
"538 472 CURVE SMOOTH",
"539 479 OFFCURVE",
"533 484 OFFCURVE",
"524 484 CURVE SMOOTH",
"519 484 OFFCURVE",
"510 483 OFFCURVE",
"497 480 CURVE SMOOTH",
"483 478 OFFCURVE",
"472 477 OFFCURVE",
"465 478 CURVE SMOOTH",
"421 479 OFFCURVE",
"397 481 OFFCURVE",
"391 482 CURVE",
"387 480 LINE",
"372 456 LINE",
"399 462 OFFCURVE",
"419 460 OFFCURVE",
"434 449 CURVE",
"445 437 OFFCURVE",
"447 378 OFFCURVE",
"440 276 CURVE SMOOTH",
"437 227 LINE SMOOTH",
"431 143 OFFCURVE",
"424 88 OFFCURVE",
"417 63 CURVE SMOOTH",
"407 33 OFFCURVE",
"386 18 OFFCURVE",
"349 18 CURVE SMOOTH",
"345 18 OFFCURVE",
"342 18 OFFCURVE",
"338 20 CURVE",
"325 -8 LINE",
"458 4 LINE",
"540 2 OFFCURVE",
"592 -2 OFFCURVE",
"593 -5 CURVE"
);
},
{
closed = 1;
nodes = (
"534 649 OFFCURVE",
"449 672 OFFCURVE",
"396 672 CURVE SMOOTH",
"393 672 OFFCURVE",
"383 672 OFFCURVE",
"370 672 CURVE SMOOTH",
"354 671 OFFCURVE",
"334 671 OFFCURVE",
"328 671 CURVE SMOOTH",
"215 671 OFFCURVE",
"147 598 OFFCURVE",
"136 464 CURVE",
"97 464 OFFCURVE",
"78 464 OFFCURVE",
"72 464 CURVE",
"69 462 LINE",
"45 434 LINE",
"71 434 OFFCURVE",
"102 434 OFFCURVE",
"137 433 CURVE",
"142 437 LINE",
"142 440 OFFCURVE",
"132 412 OFFCURVE",
"128 353 CURVE SMOOTH",
"126 310 OFFCURVE",
"124 284 OFFCURVE",
"123 276 CURVE SMOOTH",
"115 156 OFFCURVE",
"107 87 OFFCURVE",
"99 63 CURVE SMOOTH",
"94 48 OFFCURVE",
"81 35 OFFCURVE",
"61 28 CURVE SMOOTH",
"45 21 OFFCURVE",
"27 18 OFFCURVE",
"5 18 CURVE SMOOTH",
"-3 18 OFFCURVE",
"-8 18 OFFCURVE",
"-12 20 CURVE",
"-24 -7 LINE",
"74 0 OFFCURVE",
"129 4 OFFCURVE",
"140 4 CURVE SMOOTH",
"191 3 OFFCURVE",
"225 -1 OFFCURVE",
"245 -8 CURVE",
"259 19 LINE",
"241 15 OFFCURVE",
"223 18 OFFCURVE",
"208 26 CURVE SMOOTH",
"195 35 OFFCURVE",
"187 47 OFFCURVE",
"185 62 CURVE",
"186 145 OFFCURVE",
"188 216 OFFCURVE",
"191 275 CURVE SMOOTH",
"194 310 OFFCURVE",
"197 363 OFFCURVE",
"203 431 CURVE",
"235 428 OFFCURVE",
"254 426 OFFCURVE",
"261 424 CURVE SMOOTH",
"269 422 OFFCURVE",
"279 426 OFFCURVE",
"292 436 CURVE",
"304 446 OFFCURVE",
"310 452 OFFCURVE",
"310 458 CURVE",
"306 458 LINE",
"306 459 OFFCURVE",
"306 459 OFFCURVE",
"305 459 CURVE",
"305 463 LINE",
"206 463 LINE",
"210 505 OFFCURVE",
"218 538 OFFCURVE",
"227 563 CURVE SMOOTH",
"252 623 OFFCURVE",
"289 648 OFFCURVE",
"356 648 CURVE SMOOTH",
"426 648 OFFCURVE",
"454 628 OFFCURVE",
"451 584 CURVE SMOOTH",
"449 557 OFFCURVE",
"455 536 OFFCURVE",
"468 542 CURVE SMOOTH",
"474 545 OFFCURVE",
"481 548 OFFCURVE",
"488 550 CURVE SMOOTH",
"508 556 OFFCURVE",
"528 563 OFFCURVE",
"531 595 CURVE SMOOTH"
);
}
);
width = 642;
}
);
note = fi;
unicode = FB01;
},
